Caveat-Regular.ufo
<glyph name="exclam" format="2">
  <advance width="210"/>
  <unicode hex="0021"/>
  <outline>
    <contour>
      <point x="197" y="170" type="curve"/>
      <point x="207" y="175"/>
      <point x="207" y="174"/>
      <point x="210" y="206" type="curve"/>
      <point x="212" y="235"/>
      <point x="222" y="273"/>
      <point x="247" y="344" type="curve"/>
      <point x="260" y="371"/>
      <point x="266" y="392"/>
      <point x="266" y="397" type="curve"/>
      <point x="266" y="397"/>
      <point x="266" y="408"/>
      <point x="271" y="408" type="curve"/>
      <point x="276" y="413"/>
      <point x="277" y="419"/>
      <point x="279" y="424" type="curve"/>
      <point x="279" y="429"/>
      <point x="298" y="468"/>
      <point x="310" y="488" type="curve"/>
      <point x="317" y="504"/>
      <point x="323" y="515"/>
      <point x="323" y="520" type="curve"/>
      <point x="323" y="525"/>
      <point x="339" y="552"/>
      <point x="352" y="577" type="curve"/>
      <point x="373" y="615"/>
      <point x="393" y="647"/>
      <point x="395" y="673" type="curve"/>
      <point x="395" y="689"/>
      <point x="395" y="700"/>
      <point x="385" y="710" type="curve"/>
      <point x="376" y="721"/>
      <point x="371" y="726"/>
      <point x="371" y="726" type="curve"/>
      <point x="366" y="726"/>
      <point x="360" y="726"/>
      <point x="355" y="722" type="curve"/>
      <point x="344" y="724"/>
      <point x="339" y="719"/>
      <point x="337" y="708" type="curve"/>
      <point x="336" y="692"/>
      <point x="275" y="541"/>
      <point x="250" y="499" type="curve"/>
      <point x="250" y="493"/>
      <point x="245" y="490"/>
      <point x="245" y="485" type="curve"/>
      <point x="245" y="479"/>
      <point x="237" y="470"/>
      <point x="237" y="464" type="curve"/>
      <point x="231" y="459"/>
      <point x="226" y="443"/>
      <point x="226" y="432" type="curve"/>
      <point x="226" y="422"/>
      <point x="218" y="411"/>
      <point x="213" y="411" type="curve"/>
      <point x="207" y="400"/>
      <point x="186" y="353"/>
      <point x="179" y="327" type="curve"/>
      <point x="179" y="317"/>
      <point x="173" y="301"/>
      <point x="165" y="285" type="curve"/>
      <point x="146" y="210"/>
      <point x="159" y="163"/>
    </contour>
    <contour>
      <point x="143" y="10" type="curve"/>
      <point x="192" y="34"/>
      <point x="197" y="68"/>
      <point x="157" y="93" type="curve"/>
      <point x="133" y="103"/>
      <point x="128" y="103"/>
      <point x="104" y="88" type="curve"/>
      <point x="69" y="64"/>
      <point x="59" y="39"/>
      <point x="84" y="15" type="curve"/>
      <point x="104" y="0"/>
      <point x="118" y="0"/>
    </contour>
  </outline>
</glyph>
<glyph name="quotedbl" format="2">
  <advance width="237"/>
  <unicode hex="0022"/>
  <outline>
    <contour>
      <point x="199" y="440" type="curve"/>
      <point x="214" y="445"/>
      <point x="224" y="445"/>
      <point x="223" y="450" type="curve"/>
      <point x="246" y="476"/>
      <point x="266" y="500"/>
      <point x="274" y="530" type="curve"/>
      <point x="282" y="556"/>
      <point x="295" y="583"/>
      <point x="298" y="615" type="curve"/>
      <point x="302" y="637"/>
      <point x="275" y="646"/>
      <point x="257" y="655" type="curve"/>
      <point x="247" y="660"/>
      <point x="244" y="637"/>
      <point x="245" y="628" type="curve"/>
      <point x="245" y="603"/>
      <point x="236" y="577"/>
      <point x="234" y="563" type="curve"/>
      <point x="227" y="543"/>
      <point x="202" y="499"/>
      <point x="186" y="473" type="curve"/>
      <point x="179" y="463"/>
      <point x="174" y="456"/>
      <point x="176" y="447" type="curve"/>
      <point x="185" y="439"/>
      <point x="185" y="439"/>
    </contour>
    <contour>
      <point x="319" y="440" type="curve"/>
      <point x="334" y="445"/>
      <point x="344" y="445"/>
      <point x="343" y="450" type="curve"/>
      <point x="366" y="476"/>
      <point x="386" y="500"/>
      <point x="394" y="530" type="curve"/>
      <point x="402" y="556"/>
      <point x="415" y="583"/>
      <point x="418" y="615" type="curve"/>
      <point x="422" y="637"/>
      <point x="395" y="646"/>
      <point x="377" y="655" type="curve"/>
      <point x="367" y="660"/>
      <point x="364" y="637"/>
      <point x="365" y="628" type="curve"/>
      <point x="365" y="603"/>
      <point x="356" y="577"/>
      <point x="354" y="563" type="curve"/>
      <point x="347" y="543"/>
      <point x="322" y="499"/>
      <point x="306" y="473" type="curve"/>
      <point x="299" y="463"/>
      <point x="294" y="456"/>
      <point x="296" y="447" type="curve"/>
      <point x="305" y="439"/>
      <point x="305" y="439"/>
    </contour>
  </outline>
</glyph>
<glyph name="parenleft" format="2">
  <advance width="330"/>
  <unicode hex="0028"/>
  <outline>
    <contour>
      <point x="287" y="-128" type="curve"/>
      <point x="310" y="-131"/>
      <point x="321" y="-127"/>
      <point x="329" y="-96" type="curve"/>
      <point x="295" y="-75" type="line"/>
      <point x="275" y="-74"/>
      <point x="262" y="-67"/>
      <point x="247" y="-54" type="curve"/>
      <point x="210" y="-15"/>
      <point x="198" y="20"/>
      <point x="201" y="110" type="curve"/>
      <point x="212" y="191"/>
      <point x="212" y="199"/>
      <point x="217" y="199" type="curve"/>
      <point x="217" y="218"/>
      <point x="241" y="293"/>
      <point x="256" y="325" type="curve"/>
      <point x="268" y="350"/>
      <point x="276" y="370"/>
      <point x="280" y="384" type="curve"/>
      <point x="292" y="403"/>
      <point x="295" y="419"/>
      <point x="295" y="423" type="curve"/>
      <point x="308" y="438"/>
      <point x="313" y="449"/>
      <point x="325" y="471" type="curve"/>
      <point x="337" y="490"/>
      <point x="362" y="534"/>
      <point x="378" y="560" type="curve"/>
      <point x="403" y="592"/>
      <point x="414" y="618"/>
      <point x="414" y="618" type="curve"/>
      <point x="414" y="625"/>
      <point x="421" y="630"/>
      <point x="432" y="634" type="curve"/>
      <point x="440" y="639"/>
      <point x="457" y="656"/>
      <point x="469" y="671" type="curve"/>
      <point x="478" y="682"/>
      <point x="502" y="693"/>
      <point x="516" y="698" type="curve"/>
      <point x="542" y="710"/>
      <point x="542" y="710"/>
      <point x="538" y="729" type="curve"/>
      <point x="527" y="769"/>
      <point x="511" y="773"/>
      <point x="480" y="757" type="curve"/>
      <point x="468" y="757"/>
      <point x="448" y="746"/>
      <point x="443" y="732" type="curve"/>
      <point x="433" y="730"/>
      <point x="420" y="716"/>
      <point x="413" y="710" type="curve"/>
      <point x="392" y="693"/>
      <point x="295" y="559"/>
      <point x="265" y="493" type="curve"/>
      <point x="241" y="431"/>
      <point x="191" y="323"/>
      <point x="182" y="296" type="curve"/>
      <point x="181" y="286"/>
      <point x="175" y="255"/>
      <point x="168" y="230" type="curve"/>
      <point x="142" y="137"/>
      <point x="141" y="39"/>
      <point x="166" y="-17" type="curve"/>
      <point x="184" y="-75"/>
      <point x="232" y="-117"/>
    </contour>
  </outline>
</glyph>
<glyph name="slash" format="2">
  <advance width="330"/>
  <unicode hex="002F"/>
  <outline>
    <contour>
      <point x="67" y="-94" type="curve"/>
      <point x="77" y="-91"/>
      <point x="79" y="-85"/>
      <point x="85" y="-54" type="curve"/>
      <point x="93" y="-19"/>
      <point x="236" y="248"/>
      <point x="273" y="315" type="curve"/>
      <point x="289" y="340"/>
      <point x="299" y="359"/>
      <point x="299" y="364" type="curve"/>
      <point x="299" y="364"/>
      <point x="301" y="375"/>
      <point x="306" y="374" type="curve"/>
      <point x="313" y="378"/>
      <point x="313" y="384"/>
      <point x="315" y="388" type="curve"/>
      <point x="316" y="393"/>
      <point x="363" y="460"/>
      <point x="378" y="478" type="curve"/>
      <point x="386" y="493"/>
      <point x="394" y="503"/>
      <point x="396" y="508" type="curve"/>
      <point x="396" y="513"/>
      <point x="415" y="533"/>
      <point x="432" y="558" type="curve"/>
      <point x="485" y="628"/>
      <point x="492" y="632"/>
      <point x="497" y="658" type="curve"/>
      <point x="501" y="673"/>
      <point x="503" y="684"/>
      <point x="494" y="696" type="curve"/>
      <point x="485" y="709"/>
      <point x="482" y="715"/>
      <point x="482" y="715" type="curve"/>
      <point x="477" y="716"/>
      <point x="470" y="716"/>
      <point x="466" y="713" type="curve"/>
      <point x="455" y="715"/>
      <point x="448" y="712"/>
      <point x="446" y="701" type="curve"/>
      <point x="442" y="685"/>
      <point x="329" y="506"/>
      <point x="299" y="469" type="curve"/>
      <point x="298" y="463"/>
      <point x="292" y="459"/>
      <point x="291" y="454" type="curve"/>
      <point x="290" y="448"/>
      <point x="283" y="439"/>
      <point x="281" y="433" type="curve"/>
      <point x="275" y="430"/>
      <point x="267" y="416"/>
      <point x="264" y="405" type="curve"/>
      <point x="262" y="395"/>
      <point x="255" y="385"/>
      <point x="250" y="386" type="curve"/>
      <point x="242" y="376"/>
      <point x="83" y="87"/>
      <point x="72" y="62" type="curve"/>
      <point x="70" y="52"/>
      <point x="61" y="38"/>
      <point x="53" y="23" type="curve"/>
      <point x="21" y="-47"/>
      <point x="27" y="-96"/>
    </contour>
  </outline>
</glyph>
<glyph name="one" format="2">
  <advance width="450"/>
  <unicode hex="0031"/>
  <outline>
    <contour>
      <point x="321" y="-10" type="curve"/>
      <point x="327" y="-5"/>
      <point x="333" y="21"/>
      <point x="344" y="50" type="curve"/>
      <point x="350" y="79"/>
      <point x="367" y="145"/>
      <point x="381" y="177" type="curve"/>
      <point x="395" y="231"/>
      <point x="403" y="238"/>
      <point x="420" y="300" type="curve"/>
      <point x="436" y="356"/>
      <point x="477" y="473"/>
      <point x="488" y="497" type="curve"/>
      <point x="496" y="514"/>
      <point x="498" y="524"/>
      <point x="494" y="529" type="curve"/>
      <point x="492" y="541"/>
      <point x="470" y="554"/>
      <point x="465" y="555" type="curve"/>
      <point x="460" y="556"/>
      <point x="422" y="535"/>
      <point x="373" y="505" type="curve"/>
      <point x="326" y="470"/>
      <point x="280" y="439"/>
      <point x="273" y="431" type="curve"/>
      <point x="261" y="423"/>
      <point x="249" y="411"/>
      <point x="245" y="411" type="curve"/>
      <point x="232" y="404"/>
      <point x="174" y="361"/>
      <point x="168" y="359" type="curve"/>
      <point x="160" y="345"/>
      <point x="167" y="329"/>
      <point x="184" y="314" type="curve"/>
      <point x="196" y="307"/>
      <point x="196" y="307"/>
      <point x="232" y="335" type="curve"/>
      <point x="256" y="349"/>
      <point x="291" y="378"/>
      <point x="314" y="392" type="curve"/>
      <point x="356" y="424"/>
      <point x="408" y="452"/>
      <point x="408" y="452" type="curve"/>
      <point x="408" y="452"/>
      <point x="399" y="415"/>
      <point x="387" y="376" type="curve"/>
      <point x="373" y="334"/>
      <point x="358" y="283"/>
      <point x="353" y="265" type="curve"/>
      <point x="337" y="212"/>
      <point x="323" y="170"/>
      <point x="317" y="167" type="curve"/>
      <point x="317" y="167"/>
      <point x="303" y="119"/>
      <point x="295" y="80" type="curve"/>
      <point x="282" y="18"/>
      <point x="280" y="14"/>
      <point x="289" y="6" type="curve"/>
      <point x="302" y="-7"/>
      <point x="314" y="-15"/>
    </contour>
  </outline>
</glyph>
<glyph name="two" format="2">
  <advance width="450"/>
  <unicode hex="0032"/>
  <outline>
    <contour>
      <point x="159" y="23" type="curve"/>
      <point x="173" y="19"/>
      <point x="267" y="46"/>
      <point x="290" y="55" type="curve"/>
      <point x="323" y="66"/>
      <point x="345" y="71"/>
      <point x="369" y="68" type="curve"/>
      <point x="385" y="69"/>
      <point x="406" y="68"/>
      <point x="411" y="71" type="curve"/>
      <point x="422" y="73"/>
      <point x="438" y="74"/>
      <point x="454" y="74" type="curve"/>
      <point x="507" y="64"/>
      <point x="523" y="70"/>
      <point x="502" y="88" type="curve"/>
      <point x="494" y="97"/>
      <point x="491" y="104"/>
      <point x="491" y="104" type="curve"/>
      <point x="491" y="109"/>
      <point x="481" y="111"/>
      <point x="467" y="115" type="curve"/>
      <point x="441" y="123"/>
      <point x="401" y="129"/>
      <point x="399" y="120" type="curve"/>
      <point x="399" y="120"/>
      <point x="397" y="115"/>
      <point x="394" y="122" type="curve"/>
      <point x="385" y="129"/>
      <point x="275" y="115"/>
      <point x="236" y="101" type="curve"/>
      <point x="224" y="97"/>
      <point x="218" y="95"/>
      <point x="220" y="101" type="curve"/>
      <point x="215" y="101"/>
      <point x="302" y="202"/>
      <point x="320" y="211" type="curve"/>
      <point x="334" y="223"/>
      <point x="429" y="327"/>
      <point x="442" y="343" type="curve"/>
      <point x="475" y="392"/>
      <point x="483" y="425"/>
      <point x="462" y="457" type="curve"/>
      <point x="449" y="485"/>
      <point x="417" y="518"/>
      <point x="401" y="517" type="curve"/>
      <point x="401" y="517"/>
      <point x="387" y="522"/>
      <point x="372" y="522" type="curve"/>
      <point x="334" y="534"/>
      <point x="290" y="520"/>
      <point x="236" y="485" type="curve"/>
      <point x="205" y="468" type="line"/>
      <point x="215" y="447" type="line"/>
      <point x="223" y="439"/>
      <point x="230" y="427"/>
      <point x="235" y="425" type="curve"/>
      <point x="245" y="423"/>
      <point x="261" y="433"/>
      <point x="280" y="437" type="curve"/>
      <point x="327" y="470"/>
      <point x="364" y="468"/>
      <point x="396" y="457" type="curve"/>
      <point x="425" y="448"/>
      <point x="425" y="448"/>
      <point x="421" y="434" type="curve"/>
      <point x="418" y="424"/>
      <point x="408" y="402"/>
      <point x="397" y="386" type="curve"/>
      <point x="384" y="373"/>
      <point x="368" y="349"/>
      <point x="366" y="339" type="curve"/>
      <point x="358" y="331"/>
      <point x="344" y="320"/>
      <point x="338" y="316" type="curve"/>
      <point x="331" y="312"/>
      <point x="326" y="306"/>
      <point x="326" y="306" type="curve"/>
      <point x="324" y="297"/>
      <point x="300" y="271"/>
      <point x="272" y="241" type="curve"/>
      <point x="245" y="213"/>
      <point x="212" y="183"/>
      <point x="202" y="170" type="curve"/>
      <point x="195" y="162"/>
      <point x="182" y="150"/>
      <point x="175" y="139" type="curve"/>
      <point x="169" y="135"/>
      <point x="162" y="132"/>
      <point x="161" y="127" type="curve"/>
      <point x="160" y="122"/>
      <point x="135" y="84"/>
      <point x="130" y="88" type="curve"/>
      <point x="125" y="88"/>
      <point x="118" y="63"/>
      <point x="122" y="57" type="curve"/>
      <point x="128" y="44"/>
      <point x="151" y="26"/>
    </contour>
  </outline>
</glyph>
<glyph name="three" format="2">
  <advance width="450"/>
  <unicode hex="0033"/>
  <outline>
    <contour>
      <point x="243" y="16" type="curve"/>
      <point x="286" y="19"/>
      <point x="340" y="34"/>
      <point x="377" y="55" type="curve"/>
      <point x="446" y="96"/>
      <point x="467" y="154"/>
      <point x="439" y="216" type="curve"/>
      <point x="425" y="235"/>
      <point x="390" y="270"/>
      <point x="352" y="284" type="curve"/>
      <point x="341" y="293"/>
      <point x="327" y="302"/>
      <point x="327" y="302" type="curve"/>
      <point x="327" y="306"/>
      <point x="364" y="327"/>
      <point x="378" y="338" type="curve"/>
      <point x="420" y="361"/>
      <point x="434" y="372"/>
      <point x="467" y="393" type="curve"/>
      <point x="506" y="428"/>
      <point x="508" y="433"/>
      <point x="502" y="462" type="curve"/>
      <point x="494" y="504"/>
      <point x="461" y="530"/>
      <point x="400" y="537" type="curve"/>
      <point x="375" y="539"/>
      <point x="298" y="536"/>
      <point x="271" y="529" type="curve"/>
      <point x="248" y="518"/>
      <point x="212" y="500"/>
      <point x="209" y="492" type="curve"/>
      <point x="205" y="482"/>
      <point x="223" y="452"/>
      <point x="233" y="449" type="curve"/>
      <point x="238" y="449"/>
      <point x="277" y="461"/>
      <point x="279" y="466" type="curve"/>
      <point x="280" y="471"/>
      <point x="340" y="485"/>
      <point x="350" y="481" type="curve"/>
      <point x="354" y="481"/>
      <point x="354" y="481"/>
      <point x="354" y="481" type="curve"/>
      <point x="354" y="486"/>
      <point x="391" y="484"/>
      <point x="425" y="481" type="curve"/>
      <point x="459" y="474"/>
      <point x="457" y="470"/>
      <point x="433" y="438" type="curve"/>
      <point x="414" y="422"/>
      <point x="387" y="405"/>
      <point x="304" y="359" type="curve"/>
      <point x="212" y="309"/>
      <point x="200" y="303"/>
      <point x="202" y="294" type="curve"/>
      <point x="205" y="288"/>
      <point x="212" y="275"/>
      <point x="220" y="266" type="curve"/>
      <point x="237" y="257"/>
      <point x="241" y="256"/>
      <point x="253" y="258" type="curve"/>
      <point x="280" y="260"/>
      <point x="345" y="243"/>
      <point x="371" y="225" type="curve"/>
      <point x="409" y="200"/>
      <point x="414" y="163"/>
      <point x="378" y="128" type="curve"/>
      <point x="340" y="90"/>
      <point x="246" y="60"/>
      <point x="179" y="74" type="curve"/>
      <point x="150" y="78"/>
      <point x="145" y="79"/>
      <point x="144" y="58" type="curve"/>
      <point x="141" y="34"/>
      <point x="192" y="16"/>
    </contour>
  </outline>
</glyph>
<glyph name="four" format="2">
  <advance width="450"/>
  <unicode hex="0034"/>
  <outline>
    <contour>
      <point x="317" y="7" type="curve"/>
      <point x="325" y="-23"/>
      <point x="365" y="2"/>
      <point x="362" y="38" type="curve"/>
      <point x="352" y="58"/>
      <point x="358" y="77"/>
      <point x="386" y="158" type="curve"/>
      <point x="402" y="207"/>
      <point x="458" y="333"/>
      <point x="490" y="397" type="curve"/>
      <point x="513" y="443"/>
      <point x="519" y="448"/>
      <point x="524" y="473" type="curve"/>
      <point x="535" y="492"/>
      <point x="530" y="497"/>
      <point x="521" y="507" type="curve"/>
      <point x="516" y="517"/>
      <point x="504" y="522"/>
      <point x="499" y="522" type="curve"/>
      <point x="494" y="522"/>
      <point x="490" y="507"/>
      <point x="457" y="433" type="curve"/>
      <point x="441" y="407"/>
      <point x="425" y="368"/>
      <point x="414" y="348" type="curve"/>
      <point x="409" y="333"/>
      <point x="397" y="312"/>
      <point x="397" y="307" type="curve"/>
      <point x="397" y="302"/>
      <point x="386" y="297"/>
      <point x="376" y="297" type="curve"/>
      <point x="366" y="292"/>
      <point x="342" y="287"/>
      <point x="317" y="282" type="curve"/>
      <point x="270" y="268"/>
      <point x="245" y="268"/>
      <point x="237" y="272" type="curve"/>
      <point x="232" y="277"/>
      <point x="232" y="282"/>
      <point x="247" y="328" type="curve"/>
      <point x="274" y="377"/>
      <point x="301" y="417"/>
      <point x="338" y="468" type="curve"/>
      <point x="354" y="487"/>
      <point x="370" y="507"/>
      <point x="370" y="512" type="curve"/>
      <point x="370" y="517"/>
      <point x="375" y="517"/>
      <point x="375" y="517" type="curve"/>
      <point x="380" y="517"/>
      <point x="371" y="548"/>
      <point x="366" y="558" type="curve"/>
      <point x="362" y="563"/>
      <point x="347" y="558"/>
      <point x="337" y="553" type="curve"/>
      <point x="316" y="533"/>
      <point x="231" y="407"/>
      <point x="220" y="382" type="curve"/>
      <point x="220" y="377"/>
      <point x="215" y="372"/>
      <point x="215" y="368" type="curve"/>
      <point x="215" y="363"/>
      <point x="198" y="333"/>
      <point x="187" y="307" type="curve"/>
      <point x="176" y="297"/>
      <point x="184" y="258"/>
      <point x="194" y="248" type="curve"/>
      <point x="215" y="212"/>
      <point x="248" y="207"/>
      <point x="315" y="223" type="curve"/>
      <point x="339" y="233"/>
      <point x="359" y="233"/>
      <point x="359" y="233" type="curve"/>
      <point x="359" y="233"/>
      <point x="353" y="207"/>
      <point x="342" y="182" type="curve"/>
      <point x="337" y="158"/>
      <point x="325" y="112"/>
      <point x="319" y="77" type="curve"/>
      <point x="307" y="28"/>
      <point x="307" y="19"/>
    </contour>
  </outline>
</glyph>
<glyph name="six" format="2">
  <advance width="450"/>
  <unicode hex="0036"/>
  <outline>
    <contour>
      <point x="253" y="31" type="curve"/>
      <point x="295" y="42"/>
      <point x="375" y="85"/>
      <point x="378" y="100" type="curve"/>
      <point x="378" y="100"/>
      <point x="383" y="104"/>
      <point x="389" y="107" type="curve"/>
      <point x="406" y="118"/>
      <point x="441" y="162"/>
      <point x="457" y="189" type="curve"/>
      <point x="471" y="206"/>
      <point x="474" y="221"/>
      <point x="474" y="242" type="curve"/>
      <point x="475" y="277"/>
      <point x="466" y="299"/>
      <point x="440" y="324" type="curve"/>
      <point x="424" y="344"/>
      <point x="419" y="345"/>
      <point x="390" y="351" type="curve"/>
      <point x="376" y="354"/>
      <point x="352" y="360"/>
      <point x="340" y="355" type="curve"/>
      <point x="309" y="352"/>
      <point x="272" y="341"/>
      <point x="272" y="336" type="curve"/>
      <point x="270" y="331"/>
      <point x="249" y="324"/>
      <point x="245" y="332" type="curve"/>
      <point x="245" y="332"/>
      <point x="260" y="353"/>
      <point x="278" y="370" type="curve"/>
      <point x="280" y="375"/>
      <point x="291" y="387"/>
      <point x="303" y="398" type="curve"/>
      <point x="332" y="430"/>
      <point x="396" y="471"/>
      <point x="409" y="468" type="curve"/>
      <point x="409" y="468"/>
      <point x="419" y="466"/>
      <point x="418" y="461" type="curve"/>
      <point x="423" y="455"/>
      <point x="428" y="455"/>
      <point x="447" y="469" type="curve"/>
      <point x="465" y="486"/>
      <point x="466" y="491"/>
      <point x="464" y="502" type="curve"/>
      <point x="460" y="508"/>
      <point x="457" y="518"/>
      <point x="452" y="519" type="curve"/>
      <point x="441" y="521"/>
      <point x="438" y="527"/>
      <point x="438" y="527" type="curve"/>
      <point x="439" y="533"/>
      <point x="429" y="535"/>
      <point x="408" y="528" type="curve"/>
      <point x="366" y="523"/>
      <point x="302" y="480"/>
      <point x="281" y="455" type="curve"/>
      <point x="274" y="446"/>
      <point x="268" y="443"/>
      <point x="262" y="439" type="curve"/>
      <point x="262" y="439"/>
      <point x="248" y="420"/>
      <point x="235" y="403" type="curve"/>
      <point x="220" y="387"/>
      <point x="206" y="365"/>
      <point x="199" y="356" type="curve"/>
      <point x="192" y="348"/>
      <point x="175" y="314"/>
      <point x="165" y="286" type="curve"/>
      <point x="141" y="252"/>
      <point x="137" y="232"/>
      <point x="127" y="184" type="curve"/>
      <point x="116" y="130"/>
      <point x="114" y="127"/>
      <point x="124" y="98" type="curve"/>
      <point x="128" y="71"/>
      <point x="136" y="61"/>
      <point x="155" y="47" type="curve"/>
      <point x="183" y="20"/>
      <point x="209" y="19"/>
    </contour>
    <contour>
      <point x="186" y="80" type="curve"/>
      <point x="176" y="82"/>
      <point x="167" y="84"/>
      <point x="165" y="100" type="curve"/>
      <point x="158" y="111"/>
      <point x="160" y="120"/>
      <point x="169" y="166" type="curve"/>
      <point x="184" y="233"/>
      <point x="192" y="251"/>
      <point x="208" y="253" type="curve"/>
      <point x="217" y="255"/>
      <point x="230" y="263"/>
      <point x="235" y="267" type="curve"/>
      <point x="247" y="270"/>
      <point x="259" y="277"/>
      <point x="269" y="280" type="curve"/>
      <point x="360" y="301"/>
      <point x="371" y="304"/>
      <point x="395" y="299" type="curve"/>
      <point x="410" y="296"/>
      <point x="419" y="293"/>
      <point x="423" y="293" type="curve"/>
      <point x="422" y="288"/>
      <point x="429" y="276"/>
      <point x="428" y="266" type="curve"/>
      <point x="435" y="230"/>
      <point x="393" y="167"/>
      <point x="322" y="122" type="curve"/>
      <point x="297" y="107"/>
      <point x="275" y="92"/>
      <point x="275" y="92" type="curve"/>
      <point x="270" y="93"/>
      <point x="260" y="90"/>
      <point x="249" y="87" type="curve"/>
      <point x="215" y="73"/>
      <point x="210" y="75"/>
    </contour>
  </outline>
</glyph>
<glyph name="eight" format="2">
  <advance width="450"/>
  <unicode hex="0038"/>
  <outline>
    <contour>
      <point x="176" y="-32" type="curve"/>
      <point x="190" y="-39"/>
      <point x="235" y="-34"/>
      <point x="261" y="-16" type="curve"/>
      <point x="274" y="-8"/>
      <point x="287" y="-4"/>
      <point x="292" y="-6" type="curve"/>
      <point x="299" y="-7"/>
      <point x="309" y="-4"/>
      <point x="312" y="5" type="curve"/>
      <point x="318" y="9"/>
      <point x="326" y="14"/>
      <point x="326" y="14" type="curve"/>
      <point x="343" y="12"/>
      <point x="376" y="54"/>
      <point x="402" y="111" type="curve"/>
      <point x="422" y="139"/>
      <point x="402" y="197"/>
      <point x="371" y="254" type="curve"/>
      <point x="353" y="276"/>
      <point x="349" y="287"/>
      <point x="356" y="286" type="curve"/>
      <point x="364" y="291"/>
      <point x="368" y="290"/>
      <point x="368" y="290" type="curve"/>
      <point x="376" y="285"/>
      <point x="426" y="309"/>
      <point x="427" y="314" type="curve"/>
      <point x="427" y="319"/>
      <point x="433" y="318"/>
      <point x="439" y="314" type="curve"/>
      <point x="444" y="314"/>
      <point x="450" y="322"/>
      <point x="457" y="331" type="curve"/>
      <point x="468" y="334"/>
      <point x="476" y="344"/>
      <point x="483" y="349" type="curve"/>
      <point x="491" y="352"/>
      <point x="502" y="363"/>
      <point x="518" y="381" type="curve"/>
      <point x="530" y="399"/>
      <point x="534" y="438"/>
      <point x="523" y="460" type="curve"/>
      <point x="521" y="466"/>
      <point x="515" y="471"/>
      <point x="515" y="475" type="curve"/>
      <point x="512" y="486"/>
      <point x="471" y="519"/>
      <point x="447" y="529" type="curve"/>
      <point x="412" y="544"/>
      <point x="333" y="557"/>
      <point x="311" y="560" type="curve"/>
      <point x="271" y="554"/>
      <point x="247" y="531"/>
      <point x="226" y="483" type="curve"/>
      <point x="207" y="446"/>
      <point x="206" y="402"/>
      <point x="226" y="383" type="curve"/>
      <point x="230" y="373"/>
      <point x="234" y="369"/>
      <point x="234" y="369" type="curve"/>
      <point x="229" y="369"/>
      <point x="239" y="362"/>
      <point x="244" y="347" type="curve"/>
      <point x="270" y="311"/>
      <point x="269" y="306"/>
      <point x="254" y="287" type="curve"/>
      <point x="232" y="259"/>
      <point x="157" y="157"/>
      <point x="138" y="104" type="curve"/>
      <point x="129" y="90"/>
      <point x="126" y="66"/>
      <point x="126" y="50" type="curve"/>
      <point x="122" y="22"/>
      <point x="126" y="16"/>
      <point x="136" y="-6" type="curve"/>
      <point x="148" y="-17"/>
      <point x="162" y="-30"/>
    </contour>
    <contour>
      <point x="192" y="19" type="curve"/>
      <point x="175" y="21"/>
      <point x="182" y="71"/>
      <point x="212" y="122" type="curve"/>
      <point x="222" y="141"/>
      <point x="232" y="164"/>
      <point x="232" y="168" type="curve"/>
      <point x="236" y="172"/>
      <point x="244" y="180"/>
      <point x="254" y="190" type="curve"/>
      <point x="259" y="199"/>
      <point x="267" y="212"/>
      <point x="282" y="231" type="curve"/>
      <point x="288" y="245"/>
      <point x="302" y="253"/>
      <point x="302" y="253" type="curve"/>
      <point x="309" y="249"/>
      <point x="314" y="245"/>
      <point x="322" y="233" type="curve"/>
      <point x="329" y="222"/>
      <point x="339" y="201"/>
      <point x="347" y="185" type="curve"/>
      <point x="363" y="144"/>
      <point x="344" y="106"/>
      <point x="294" y="65" type="curve"/>
      <point x="264" y="44"/>
      <point x="211" y="17"/>
    </contour>
    <contour>
      <point x="347" y="349" type="curve"/>
      <point x="313" y="327"/>
      <point x="298" y="343"/>
      <point x="296" y="350" type="curve"/>
      <point x="291" y="350"/>
      <point x="288" y="355"/>
      <point x="288" y="359" type="curve"/>
      <point x="288" y="359"/>
      <point x="285" y="371"/>
      <point x="273" y="376" type="curve"/>
      <point x="262" y="398"/>
      <point x="263" y="417"/>
      <point x="271" y="442" type="curve"/>
      <point x="289" y="505"/>
      <point x="344" y="512"/>
      <point x="427" y="483" type="curve"/>
      <point x="469" y="466"/>
      <point x="473" y="460"/>
      <point x="472" y="440" type="curve"/>
      <point x="475" y="419"/>
      <point x="474" y="415"/>
      <point x="466" y="401" type="curve"/>
      <point x="444" y="378"/>
      <point x="408" y="357"/>
      <point x="405" y="362" type="curve"/>
      <point x="397" y="376"/>
      <point x="375" y="374"/>
    </contour>
  </outline>
</glyph>
<glyph name="nine" format="2">
  <advance width="450"/>
  <unicode hex="0039"/>
  <outline>
    <contour>
      <point x="313" y="-27" type="curve"/>
      <point x="323" y="-28"/>
      <point x="356" y="9"/>
      <point x="363" y="28" type="curve"/>
      <point x="369" y="42"/>
      <point x="369" y="47"/>
      <point x="365" y="53" type="curve"/>
      <point x="360" y="53"/>
      <point x="349" y="59"/>
      <point x="344" y="59" type="curve"/>
      <point x="335" y="60"/>
      <point x="339" y="114"/>
      <point x="358" y="170" type="curve"/>
      <point x="390" y="261"/>
      <point x="444" y="371"/>
      <point x="476" y="399" type="curve"/>
      <point x="493" y="417"/>
      <point x="505" y="436"/>
      <point x="514" y="480" type="curve"/>
      <point x="520" y="503"/>
      <point x="488" y="555"/>
      <point x="459" y="567" type="curve"/>
      <point x="443" y="573"/>
      <point x="408" y="575"/>
      <point x="387" y="571" type="curve"/>
      <point x="335" y="561"/>
      <point x="276" y="515"/>
      <point x="235" y="454" type="curve"/>
      <point x="217" y="425"/>
      <point x="211" y="412"/>
      <point x="210" y="392" type="curve"/>
      <point x="206" y="333"/>
      <point x="258" y="280"/>
      <point x="320" y="291" type="curve"/>
      <point x="352" y="294"/>
      <point x="352" y="289"/>
      <point x="333" y="241" type="curve"/>
      <point x="313" y="183"/>
      <point x="286" y="92"/>
      <point x="283" y="53" type="curve"/>
      <point x="283" y="43"/>
      <point x="281" y="23"/>
      <point x="281" y="19" type="curve"/>
      <point x="280" y="9"/>
      <point x="284" y="-1"/>
      <point x="284" y="-1" type="curve"/>
      <point x="289" y="-1"/>
      <point x="289" y="-1"/>
      <point x="288" y="-6" type="curve"/>
      <point x="288" y="-11"/>
      <point x="303" y="-26"/>
    </contour>
    <contour>
      <point x="268" y="354" type="curve"/>
      <point x="255" y="369"/>
      <point x="267" y="413"/>
      <point x="302" y="450" type="curve"/>
      <point x="313" y="459"/>
      <point x="317" y="468"/>
      <point x="314" y="473" type="curve"/>
      <point x="314" y="478"/>
      <point x="318" y="478"/>
      <point x="318" y="478" type="curve"/>
      <point x="323" y="477"/>
      <point x="329" y="477"/>
      <point x="334" y="482" type="curve"/>
      <point x="362" y="500"/>
      <point x="377" y="508"/>
      <point x="398" y="512" type="curve"/>
      <point x="430" y="524"/>
      <point x="445" y="523"/>
      <point x="455" y="508" type="curve"/>
      <point x="464" y="498"/>
      <point x="463" y="488"/>
      <point x="446" y="469" type="curve"/>
      <point x="440" y="465"/>
      <point x="429" y="446"/>
      <point x="413" y="427" type="curve"/>
      <point x="371" y="361"/>
      <point x="297" y="322"/>
    </contour>
  </outline>
</glyph>
<glyph name="colon" format="2">
  <advance width="198"/>
  <unicode hex="003A"/>
  <outline>
    <contour>
      <point x="229" y="262" type="curve"/>
      <point x="278" y="286"/>
      <point x="283" y="320"/>
      <point x="243" y="345" type="curve"/>
      <point x="219" y="355"/>
      <point x="214" y="355"/>
      <point x="190" y="340" type="curve"/>
      <point x="155" y="316"/>
      <point x="145" y="291"/>
      <point x="170" y="267" type="curve"/>
      <point x="190" y="252"/>
      <point x="204" y="252"/>
    </contour>
    <contour>
      <point x="159" y="52" type="curve"/>
      <point x="208" y="76"/>
      <point x="213" y="110"/>
      <point x="173" y="135" type="curve"/>
      <point x="149" y="145"/>
      <point x="144" y="145"/>
      <point x="120" y="130" type="curve"/>
      <point x="85" y="106"/>
      <point x="75" y="81"/>
      <point x="100" y="57" type="curve"/>
      <point x="120" y="42"/>
      <point x="134" y="42"/>
    </contour>
  </outline>
</glyph>
<glyph name="less" format="2">
  <advance width="446"/>
  <unicode hex="003C"/>
  <outline>
    <contour>
      <point x="369" y="55" type="curve"/>
      <point x="414" y="46"/>
      <point x="438" y="55"/>
      <point x="449" y="58" type="curve"/>
      <point x="477" y="73"/>
      <point x="435" y="99"/>
      <point x="382" y="112" type="curve"/>
      <point x="280" y="143"/>
      <point x="214" y="178"/>
      <point x="202" y="205" type="curve"/>
      <point x="198" y="231"/>
      <point x="235" y="242"/>
      <point x="289" y="275" type="curve"/>
      <point x="378" y="328"/>
      <point x="404" y="337"/>
      <point x="435" y="354" type="curve"/>
      <point x="445" y="361"/>
      <point x="451" y="374"/>
      <point x="451" y="374" type="curve"/>
      <point x="451" y="385"/>
      <point x="433" y="384"/>
      <point x="422" y="397" type="curve"/>
      <point x="417" y="402"/>
      <point x="414" y="404"/>
      <point x="406" y="403" type="curve"/>
      <point x="400" y="404"/>
      <point x="385" y="394"/>
      <point x="376" y="387" type="curve"/>
      <point x="360" y="376"/>
      <point x="346" y="363"/>
      <point x="290" y="337" type="curve"/>
      <point x="210" y="292"/>
      <point x="185" y="277"/>
      <point x="163" y="259" type="curve"/>
      <point x="160" y="258"/>
      <point x="134" y="239"/>
      <point x="123" y="237" type="curve"/>
      <point x="130" y="207" type="line"/>
      <point x="167" y="163" type="line"/>
      <point x="197" y="129"/>
      <point x="224" y="107"/>
      <point x="273" y="91" type="curve"/>
      <point x="298" y="72"/>
      <point x="317" y="69"/>
    </contour>
  </outline>
</glyph>
<glyph name="question" format="2">
  <advance width="374"/>
  <unicode hex="003F"/>
  <outline>
    <contour>
      <point x="250" y="191" type="curve"/>
      <point x="268" y="191"/>
      <point x="268" y="191"/>
      <point x="283" y="223" type="curve"/>
      <point x="300" y="271"/>
      <point x="336" y="329"/>
      <point x="382" y="354" type="curve"/>
      <point x="403" y="378"/>
      <point x="454" y="421"/>
      <point x="466" y="433" type="curve"/>
      <point x="519" y="492"/>
      <point x="547" y="620"/>
      <point x="528" y="679" type="curve"/>
      <point x="514" y="695"/>
      <point x="484" y="711"/>
      <point x="460" y="718" type="curve"/>
      <point x="449" y="718"/>
      <point x="435" y="718"/>
      <point x="431" y="718" type="curve"/>
      <point x="431" y="724"/>
      <point x="418" y="721"/>
      <point x="410" y="722" type="curve"/>
      <point x="386" y="719"/>
      <point x="377" y="719"/>
      <point x="377" y="719" type="curve"/>
      <point x="377" y="719"/>
      <point x="355" y="707"/>
      <point x="327" y="695" type="curve"/>
      <point x="276" y="669"/>
      <point x="246" y="613"/>
      <point x="233" y="573" type="curve"/>
      <point x="233" y="553"/>
      <point x="230" y="546"/>
      <point x="238" y="535" type="curve"/>
      <point x="241" y="529"/>
      <point x="248" y="519"/>
      <point x="248" y="519" type="curve"/>
      <point x="261" y="513"/>
      <point x="293" y="513"/>
      <point x="302" y="515" type="curve"/>
      <point x="302" y="522"/>
      <point x="297" y="531"/>
      <point x="297" y="542" type="curve"/>
      <point x="293" y="555"/>
      <point x="293" y="558"/>
      <point x="301" y="581" type="curve"/>
      <point x="331" y="648"/>
      <point x="413" y="690"/>
      <point x="455" y="668" type="curve"/>
      <point x="471" y="656"/>
      <point x="468" y="645"/>
      <point x="467" y="599" type="curve"/>
      <point x="452" y="524"/>
      <point x="448" y="496"/>
      <point x="403" y="450" type="curve"/>
      <point x="393" y="441"/>
      <point x="370" y="425"/>
      <point x="370" y="425" type="curve"/>
      <point x="357" y="419"/>
      <point x="332" y="399"/>
      <point x="332" y="394" type="curve"/>
      <point x="332" y="394"/>
      <point x="327" y="391"/>
      <point x="315" y="382" type="curve"/>
      <point x="293" y="366"/>
      <point x="257" y="326"/>
      <point x="242" y="300" type="curve"/>
      <point x="233" y="276"/>
      <point x="223" y="258"/>
      <point x="223" y="250" type="curve"/>
      <point x="220" y="239"/>
      <point x="220" y="230"/>
      <point x="220" y="228" type="curve"/>
      <point x="220" y="212"/>
      <point x="229" y="193"/>
    </contour>
    <contour>
      <point x="222" y="10" type="curve"/>
      <point x="271" y="34"/>
      <point x="276" y="68"/>
      <point x="236" y="93" type="curve"/>
      <point x="212" y="103"/>
      <point x="207" y="103"/>
      <point x="183" y="88" type="curve"/>
      <point x="148" y="64"/>
      <point x="138" y="39"/>
      <point x="163" y="15" type="curve"/>
      <point x="183" y="0"/>
      <point x="197" y="0"/>
    </contour>
  </outline>
</glyph>
<glyph name="B" format="2">
  <advance width="520"/>
  <unicode hex="0042"/>
  <outline>
    <contour>
      <point x="205" y="-57" type="curve"/>
      <point x="240" y="-79"/>
      <point x="318" y="-79"/>
      <point x="374" y="-54" type="curve"/>
      <point x="412" y="-40"/>
      <point x="443" y="-14"/>
      <point x="463" y="3" type="curve"/>
      <point x="482" y="26"/>
      <point x="510" y="71"/>
      <point x="511" y="76" type="curve"/>
      <point x="511" y="76"/>
      <point x="517" y="89"/>
      <point x="526" y="98" type="curve"/>
      <point x="539" y="128"/>
      <point x="555" y="184"/>
      <point x="548" y="215" type="curve"/>
      <point x="533" y="276"/>
      <point x="492" y="307"/>
      <point x="431" y="330" type="curve"/>
      <point x="419" y="334"/>
      <point x="406" y="339"/>
      <point x="406" y="339" type="curve"/>
      <point x="406" y="339"/>
      <point x="443" y="365"/>
      <point x="469" y="388" type="curve"/>
      <point x="512" y="427"/>
      <point x="570" y="506"/>
      <point x="572" y="541" type="curve"/>
      <point x="573" y="615"/>
      <point x="521" y="660"/>
      <point x="432" y="668" type="curve"/>
      <point x="407" y="670"/>
      <point x="382" y="666"/>
      <point x="378" y="666" type="curve"/>
      <point x="378" y="660"/>
      <point x="365" y="661"/>
      <point x="359" y="661" type="curve"/>
      <point x="341" y="664"/>
      <point x="290" y="640"/>
      <point x="290" y="633" type="curve"/>
      <point x="289" y="627"/>
      <point x="295" y="621"/>
      <point x="295" y="615" type="curve"/>
      <point x="301" y="613"/>
      <point x="298" y="596"/>
      <point x="280" y="555" type="curve"/>
      <point x="232" y="446"/>
      <point x="124" y="177"/>
      <point x="107" y="127" type="curve"/>
      <point x="100" y="102"/>
      <point x="98" y="96"/>
      <point x="91" y="84" type="curve"/>
      <point x="77" y="60"/>
      <point x="82" y="43"/>
      <point x="93" y="25" type="curve"/>
      <point x="120" y="-14"/>
      <point x="129" y="-10"/>
      <point x="172" y="113" type="curve"/>
      <point x="230" y="276"/>
      <point x="223" y="263"/>
      <point x="242" y="269" type="curve"/>
      <point x="243" y="269"/>
      <point x="285" y="278"/>
      <point x="300" y="281" type="curve"/>
      <point x="380" y="302"/>
      <point x="440" y="282"/>
      <point x="474" y="235" type="curve"/>
      <point x="493" y="212"/>
      <point x="491" y="134"/>
      <point x="450" y="80" type="curve"/>
      <point x="413" y="34"/>
      <point x="373" y="3"/>
      <point x="317" y="-14" type="curve"/>
      <point x="267" y="-27"/>
      <point x="227" y="-21"/>
      <point x="201" y="3" type="curve"/>
      <point x="189" y="15"/>
      <point x="167" y="34"/>
      <point x="159" y="29" type="curve"/>
      <point x="123" y="6"/>
      <point x="147" y="-20"/>
    </contour>
    <contour>
      <point x="254" y="328" type="curve"/>
      <point x="254" y="335"/>
      <point x="268" y="372"/>
      <point x="292" y="429" type="curve"/>
      <point x="311" y="479"/>
      <point x="334" y="523"/>
      <point x="334" y="529" type="curve"/>
      <point x="334" y="529"/>
      <point x="341" y="537"/>
      <point x="343" y="547" type="curve"/>
      <point x="349" y="553"/>
      <point x="359" y="566"/>
      <point x="359" y="578" type="curve"/>
      <point x="359" y="593"/>
      <point x="368" y="599"/>
      <point x="386" y="604" type="curve"/>
      <point x="420" y="613"/>
      <point x="485" y="615"/>
      <point x="503" y="594" type="curve"/>
      <point x="520" y="577"/>
      <point x="519" y="558"/>
      <point x="489" y="510" type="curve"/>
      <point x="466" y="466"/>
      <point x="407" y="397"/>
      <point x="379" y="371" type="curve"/>
      <point x="365" y="357"/>
      <point x="352" y="352"/>
      <point x="345" y="348" type="curve"/>
      <point x="324" y="340"/>
      <point x="254" y="328"/>
    </contour>
  </outline>
</glyph>
<glyph name="E" format="2">
  <advance width="529"/>
  <unicode hex="0045"/>
  <anchor x="215" y="-110" name="bottom"/>
  <anchor x="436" y="40" name="ogonek"/>
  <anchor x="541" y="785" name="topUC"/>
  <outline>
    <contour>
      <point x="231" y="-24" type="curve"/>
      <point x="296" y="-23"/>
      <point x="386" y="-10"/>
      <point x="457" y="28" type="curve"/>
      <point x="523" y="65"/>
      <point x="553" y="113"/>
      <point x="542" y="133" type="curve"/>
      <point x="540" y="142"/>
      <point x="487" y="119"/>
      <point x="465" y="100" type="curve"/>
      <point x="452" y="86"/>
      <point x="443" y="79"/>
      <point x="447" y="86" type="curve"/>
      <point x="440" y="86"/>
      <point x="440" y="86"/>
      <point x="429" y="81" type="curve"/>
      <point x="422" y="76"/>
      <point x="375" y="58"/>
      <point x="297" y="45" type="curve"/>
      <point x="265" y="32"/>
      <point x="242" y="39"/>
      <point x="215" y="40" type="curve"/>
      <point x="170" y="53"/>
      <point x="158" y="69"/>
      <point x="147" y="100" type="curve"/>
      <point x="133" y="137"/>
      <point x="173" y="289"/>
      <point x="197" y="277" type="curve"/>
      <point x="194" y="250"/>
      <point x="254" y="258"/>
      <point x="328" y="279" type="curve"/>
      <point x="502" y="326"/>
      <point x="532" y="332"/>
      <point x="518" y="362" type="curve"/>
      <point x="507" y="382"/>
      <point x="488" y="394"/>
      <point x="469" y="380" type="curve"/>
      <point x="448" y="377"/>
      <point x="413" y="368"/>
      <point x="289" y="336" type="curve"/>
      <point x="277" y="333"/>
      <point x="254" y="332"/>
      <point x="241" y="325" type="curve"/>
      <point x="236" y="325"/>
      <point x="215" y="331"/>
      <point x="215" y="331" type="curve"/>
      <point x="209" y="338"/>
      <point x="242" y="380"/>
      <point x="280" y="432" type="curve"/>
      <point x="294" y="460"/>
      <point x="310" y="493"/>
      <point x="320" y="500" type="curve"/>
      <point x="349" y="546"/>
      <point x="365" y="556"/>
      <point x="416" y="566" type="curve"/>
      <point x="486" y="581"/>
      <point x="513" y="582"/>
      <point x="573" y="590" type="curve"/>
      <point x="628" y="596"/>
      <point x="639" y="607"/>
      <point x="630" y="631" type="curve"/>
      <point x="619" y="655"/>
      <point x="605" y="658"/>
      <point x="596" y="655" type="curve"/>
      <point x="596" y="655"/>
      <point x="566" y="651"/>
      <point x="541" y="653" type="curve"/>
      <point x="507" y="649"/>
      <point x="480" y="645"/>
      <point x="474" y="637" type="curve"/>
      <point x="449" y="633"/>
      <point x="408" y="621"/>
      <point x="408" y="628" type="curve"/>
      <point x="403" y="643"/>
      <point x="367" y="642"/>
      <point x="335" y="617" type="curve"/>
      <point x="289" y="591"/>
      <point x="255" y="561"/>
      <point x="260" y="554" type="curve"/>
      <point x="266" y="546"/>
      <point x="266" y="533"/>
      <point x="246" y="512" type="curve"/>
      <point x="235" y="491"/>
      <point x="217" y="457"/>
      <point x="217" y="450" type="curve"/>
      <point x="217" y="450"/>
      <point x="220" y="451"/>
      <point x="211" y="442" type="curve"/>
      <point x="188" y="406"/>
      <point x="137" y="327"/>
      <point x="114" y="272" type="curve"/>
      <point x="97" y="236"/>
      <point x="75" y="155"/>
      <point x="84" y="118" type="curve"/>
      <point x="92" y="75"/>
      <point x="104" y="53"/>
      <point x="127" y="30" type="curve"/>
      <point x="162" y="6"/>
      <point x="190" y="-21"/>
    </contour>
  </outline>
</glyph>
<glyph name="Q" format="2">
  <advance width="502"/>
  <unicode hex="0051"/>
  <outline>
    <contour>
      <point x="231" y="-71" type="curve"/>
      <point x="330" y="-83"/>
      <point x="433" y="12"/>
      <point x="498" y="192" type="curve"/>
      <point x="518" y="231"/>
      <point x="526" y="267"/>
      <point x="523" y="277" type="curve"/>
      <point x="523" y="283"/>
      <point x="529" y="283"/>
      <point x="529" y="283" type="curve"/>
      <point x="556" y="283"/>
      <point x="591" y="430"/>
      <point x="590" y="501" type="curve"/>
      <point x="585" y="539"/>
      <point x="588" y="562"/>
      <point x="562" y="592" type="curve"/>
      <point x="536" y="644"/>
      <point x="509" y="662"/>
      <point x="443" y="658" type="curve"/>
      <point x="421" y="656"/>
      <point x="386" y="642"/>
      <point x="375" y="635" type="curve"/>
      <point x="342" y="618"/>
      <point x="305" y="593"/>
      <point x="279" y="559" type="curve"/>
      <point x="245" y="529"/>
      <point x="193" y="442"/>
      <point x="193" y="429" type="curve"/>
      <point x="193" y="420"/>
      <point x="193" y="415"/>
      <point x="190" y="412" type="curve"/>
      <point x="184" y="412"/>
      <point x="142" y="285"/>
      <point x="130" y="239" type="curve"/>
      <point x="107" y="129"/>
      <point x="109" y="59"/>
      <point x="143" y="-9" type="curve"/>
      <point x="157" y="-38"/>
      <point x="200" y="-66"/>
    </contour>
    <contour>
      <point x="437" y="-126" type="curve"/>
      <point x="472" y="-127"/>
      <point x="472" y="-119"/>
      <point x="441" y="-71" type="curve"/>
      <point x="435" y="-52"/>
      <point x="418" y="-35"/>
      <point x="414" y="-20" type="curve"/>
      <point x="405" y="-8"/>
      <point x="397" y="13"/>
      <point x="390" y="28" type="curve"/>
      <point x="378" y="38"/>
      <point x="349" y="102"/>
      <point x="347" y="113" type="curve"/>
      <point x="334" y="145"/>
      <point x="320" y="161"/>
      <point x="305" y="161" type="curve"/>
      <point x="280" y="168"/>
      <point x="275" y="166"/>
      <point x="268" y="150" type="curve"/>
      <point x="261" y="142"/>
      <point x="262" y="134"/>
      <point x="266" y="130" type="curve"/>
      <point x="272" y="121"/>
      <point x="337" y="-2"/>
      <point x="355" y="-40" type="curve"/>
      <point x="359" y="-55"/>
      <point x="371" y="-68"/>
      <point x="376" y="-70" type="curve"/>
      <point x="378" y="-73"/>
      <point x="376" y="-81"/>
      <point x="385" y="-89" type="curve"/>
      <point x="390" y="-107"/>
      <point x="416" y="-127"/>
    </contour>
    <contour>
      <point x="239" y="-13" type="curve"/>
      <point x="206" y="-23"/>
      <point x="186" y="1"/>
      <point x="183" y="42" type="curve"/>
      <point x="163" y="132"/>
      <point x="194" y="247"/>
      <point x="276" y="422" type="curve"/>
      <point x="333" y="562"/>
      <point x="423" y="622"/>
      <point x="488" y="599" type="curve"/>
      <point x="520" y="584"/>
      <point x="532" y="561"/>
      <point x="524" y="502" type="curve"/>
      <point x="523" y="419"/>
      <point x="487" y="350"/>
      <point x="469" y="301" type="curve"/>
      <point x="408" y="130"/>
      <point x="323" y="-2"/>
    </contour>
  </outline>
</glyph>
<glyph name="R" format="2">
  <advance width="537"/>
  <unicode hex="0052"/>
  <anchor x="286" y="-110" name="bottom"/>
  <anchor x="551" y="785" name="topUC"/>
  <outline>
    <contour>
      <point x="140" y="-60" type="curve"/>
      <point x="183" y="53"/>
      <point x="217" y="155"/>
      <point x="231" y="203" type="curve"/>
      <point x="248" y="250" type="line"/>
      <point x="263" y="244"/>
      <point x="298" y="244"/>
      <point x="319" y="250" type="curve"/>
      <point x="357" y="262"/>
      <point x="394" y="273"/>
      <point x="427" y="289" type="curve"/>
      <point x="498" y="319"/>
      <point x="607" y="406"/>
      <point x="629" y="462" type="curve"/>
      <point x="651" y="518"/>
      <point x="646" y="577"/>
      <point x="551" y="633" type="curve"/>
      <point x="492" y="664"/>
      <point x="423" y="668"/>
      <point x="361" y="654" type="curve"/>
      <point x="309" y="633" type="line" smooth="yes"/>
      <point x="294" y="626"/>
      <point x="296" y="609"/>
      <point x="310" y="594" type="curve"/>
      <point x="333" y="594"/>
      <point x="327" y="575"/>
      <point x="322" y="562" type="curve"/>
      <point x="281" y="473"/>
      <point x="260" y="420"/>
      <point x="238" y="367" type="curve"/>
      <point x="218" y="318"/>
      <point x="149" y="155"/>
      <point x="139" y="119" type="curve"/>
      <point x="132" y="105"/>
      <point x="115" y="68"/>
      <point x="110" y="36" type="curve"/>
      <point x="75" y="-43"/>
      <point x="74" y="-35"/>
      <point x="98" y="-59" type="curve"/>
      <point x="120" y="-77"/>
      <point x="135" y="-74"/>
    </contour>
    <contour>
      <point x="537" y="-71" type="curve"/>
      <point x="544" y="-69"/>
      <point x="560" y="-39"/>
      <point x="548" y="-28" type="curve"/>
      <point x="491" y="0"/>
      <point x="406" y="78"/>
      <point x="370" y="120" type="curve"/>
      <point x="340" y="153"/>
      <point x="302" y="197"/>
      <point x="281" y="244" type="curve"/>
      <point x="245" y="280" type="line"/>
      <point x="218" y="265" type="line"/>
      <point x="232" y="211" type="line"/>
      <point x="253" y="160"/>
      <point x="270" y="139"/>
      <point x="298" y="106" type="curve"/>
      <point x="371" y="22"/>
      <point x="426" y="-22"/>
      <point x="485" y="-57" type="curve"/>
      <point x="516" y="-77"/>
      <point x="526" y="-75"/>
    </contour>
    <contour>
      <point x="279" y="301" type="curve"/>
      <point x="271" y="309"/>
      <point x="284" y="331"/>
      <point x="342" y="449" type="curve"/>
      <point x="363" y="505"/>
      <point x="392" y="558"/>
      <point x="392" y="564" type="curve"/>
      <point x="402" y="604"/>
      <point x="437" y="600"/>
      <point x="517" y="581" type="curve"/>
      <point x="543" y="573"/>
      <point x="578" y="540"/>
      <point x="578" y="514" type="curve"/>
      <point x="582" y="444"/>
      <point x="472" y="371"/>
      <point x="395" y="335" type="curve"/>
      <point x="354" y="318"/>
      <point x="309" y="303"/>
    </contour>
  </outline>
</glyph>
<glyph name="T" format="2">
  <advance width="458"/>
  <unicode hex="0054"/>
  <anchor x="189" y="-110" name="bottom"/>
  <anchor x="485" y="785" name="topUC"/>
  <outline>
    <contour>
      <point x="215" y="-44" type="curve"/>
      <point x="231" y="-46"/>
      <point x="226" y="-51"/>
      <point x="249" y="28" type="curve"/>
      <point x="258" y="62"/>
      <point x="276" y="113"/>
      <point x="287" y="134" type="curve"/>
      <point x="313" y="205"/>
      <point x="324" y="243"/>
      <point x="335" y="265" type="curve"/>
      <point x="341" y="281"/>
      <point x="392" y="443"/>
      <point x="399" y="451" type="curve"/>
      <point x="398" y="457"/>
      <point x="409" y="481"/>
      <point x="416" y="508" type="curve"/>
      <point x="436" y="546"/>
      <point x="438" y="568"/>
      <point x="441" y="584" type="curve"/>
      <point x="382" y="583" type="line"/>
      <point x="377" y="566" type="line"/>
      <point x="370" y="559"/>
      <point x="371" y="549"/>
      <point x="366" y="545" type="curve"/>
      <point x="366" y="540"/>
      <point x="359" y="536"/>
      <point x="359" y="530" type="curve"/>
      <point x="359" y="525"/>
      <point x="359" y="514"/>
      <point x="351" y="509" type="curve"/>
      <point x="349" y="503"/>
      <point x="344" y="487"/>
      <point x="334" y="471" type="curve"/>
      <point x="327" y="449"/>
      <point x="270" y="275"/>
      <point x="265" y="249" type="curve"/>
      <point x="260" y="227"/>
      <point x="249" y="200"/>
      <point x="245" y="195" type="curve"/>
      <point x="244" y="190"/>
      <point x="238" y="171"/>
      <point x="233" y="150" type="curve"/>
      <point x="217" y="114"/>
      <point x="190" y="26"/>
      <point x="188" y="-6" type="curve"/>
      <point x="187" y="-22"/>
      <point x="204" y="-44"/>
    </contour>
    <contour>
      <point x="223" y="552" type="curve"/>
      <point x="240" y="556"/>
      <point x="291" y="559"/>
      <point x="312" y="561" type="curve"/>
      <point x="361" y="566" type="line"/>
      <point x="420" y="569" type="line"/>
      <point x="420" y="575"/>
      <point x="453" y="573"/>
      <point x="490" y="577" type="curve"/>
      <point x="555" y="573"/>
      <point x="561" y="567"/>
      <point x="572" y="557" type="curve"/>
      <point x="590" y="550"/>
      <point x="600" y="550"/>
      <point x="631" y="559" type="curve"/>
      <point x="641" y="564"/>
      <point x="646" y="564"/>
      <point x="642" y="580" type="curve"/>
      <point x="636" y="602"/>
      <point x="624" y="613"/>
      <point x="594" y="620" type="curve"/>
      <point x="573" y="628"/>
      <point x="509" y="634"/>
      <point x="503" y="634" type="curve"/>
      <point x="503" y="634"/>
      <point x="471" y="631"/>
      <point x="433" y="629" type="curve"/>
      <point x="363" y="625"/>
      <point x="341" y="621"/>
      <point x="276" y="613" type="curve"/>
      <point x="254" y="609"/>
      <point x="228" y="605"/>
      <point x="214" y="602" type="curve"/>
      <point x="188" y="598"/>
      <point x="176" y="591"/>
      <point x="172" y="575" type="curve"/>
      <point x="167" y="554"/>
      <point x="185" y="550"/>
    </contour>
  </outline>
</glyph>
<glyph name="V" format="2">
  <advance width="490"/>
  <unicode hex="0056"/>
  <outline>
    <contour>
      <point x="260" y="-58" type="curve"/>
      <point x="274" y="-65"/>
      <point x="304" y="-50"/>
      <point x="319" y="-27" type="curve"/>
      <point x="320" y="-19"/>
      <point x="335" y="10"/>
      <point x="342" y="33" type="curve"/>
      <point x="367" y="90"/>
      <point x="367" y="90"/>
      <point x="415" y="201" type="curve"/>
      <point x="436" y="244"/>
      <point x="461" y="296"/>
      <point x="475" y="309" type="curve"/>
      <point x="485" y="322"/>
      <point x="489" y="339"/>
      <point x="496" y="354" type="curve"/>
      <point x="514" y="388"/>
      <point x="574" y="491"/>
      <point x="615" y="552" type="curve"/>
      <point x="666" y="626"/>
      <point x="668" y="640"/>
      <point x="653" y="663" type="curve"/>
      <point x="643" y="676"/>
      <point x="645" y="676"/>
      <point x="630" y="674" type="curve"/>
      <point x="609" y="674"/>
      <point x="592" y="654"/>
      <point x="553" y="590" type="curve"/>
      <point x="525" y="537"/>
      <point x="506" y="510"/>
      <point x="484" y="476" type="curve"/>
      <point x="465" y="441"/>
      <point x="441" y="394"/>
      <point x="433" y="373" type="curve"/>
      <point x="411" y="323"/>
      <point x="387" y="290"/>
      <point x="363" y="234" type="curve"/>
      <point x="350" y="198"/>
      <point x="330" y="156"/>
      <point x="313" y="123" type="curve"/>
      <point x="301" y="96"/>
      <point x="287" y="50"/>
      <point x="271" y="48" type="curve"/>
      <point x="264" y="48"/>
      <point x="258" y="93"/>
      <point x="258" y="100" type="curve"/>
      <point x="254" y="132"/>
      <point x="262" y="204"/>
      <point x="267" y="314" type="curve"/>
      <point x="270" y="369"/>
      <point x="275" y="426"/>
      <point x="286" y="481" type="curve"/>
      <point x="299" y="542"/>
      <point x="306" y="619"/>
      <point x="302" y="642" type="curve"/>
      <point x="303" y="656"/>
      <point x="299" y="669"/>
      <point x="289" y="675" type="curve"/>
      <point x="282" y="680"/>
      <point x="264" y="678"/>
      <point x="256" y="675" type="curve"/>
      <point x="240" y="668"/>
      <point x="235" y="642"/>
      <point x="238" y="616" type="curve"/>
      <point x="238" y="602"/>
      <point x="234" y="582"/>
      <point x="231" y="559" type="curve"/>
      <point x="222" y="529"/>
      <point x="222" y="487"/>
      <point x="213" y="458" type="curve"/>
      <point x="217" y="437"/>
      <point x="206" y="395"/>
      <point x="209" y="365" type="curve"/>
      <point x="196" y="270"/>
      <point x="196" y="250"/>
      <point x="190" y="156" type="curve"/>
      <point x="197" y="27"/>
      <point x="198" y="11"/>
      <point x="220" y="-11" type="curve"/>
      <point x="242" y="-16"/>
      <point x="249" y="-22"/>
      <point x="249" y="-36" type="curve"/>
      <point x="251" y="-52"/>
      <point x="253" y="-56"/>
    </contour>
  </outline>
</glyph>
<glyph name="bracketleft" format="2">
  <advance width="330"/>
  <unicode hex="005B"/>
  <outline>
    <contour>
      <point x="81" y="-129" type="curve"/>
      <point x="95" y="-141"/>
      <point x="101" y="-141"/>
      <point x="131" y="-129" type="curve"/>
      <point x="140" y="-124"/>
      <point x="170" y="-119"/>
      <point x="185" y="-111" type="curve"/>
      <point x="206" y="-111"/>
      <point x="218" y="-107"/>
      <point x="218" y="-102" type="curve"/>
      <point x="218" y="-102"/>
      <point x="234" y="-102"/>
      <point x="255" y="-102" type="curve"/>
      <point x="296" y="-96"/>
      <point x="361" y="-85"/>
      <point x="366" y="-79" type="curve"/>
      <point x="370" y="-75"/>
      <point x="366" y="-68"/>
      <point x="361" y="-57" type="curve"/>
      <point x="345" y="-40"/>
      <point x="345" y="-40"/>
      <point x="310" y="-47" type="curve"/>
      <point x="280" y="-47"/>
      <point x="206" y="-57"/>
      <point x="170" y="-62" type="curve"/>
      <point x="140" y="-68" type="line"/>
      <point x="145" y="-40" type="line" smooth="yes"/>
      <point x="145" y="-29"/>
      <point x="153" y="3"/>
      <point x="164" y="36" type="curve"/>
      <point x="176" y="65"/>
      <point x="180" y="92"/>
      <point x="185" y="98" type="curve"/>
      <point x="185" y="98"/>
      <point x="185" y="107"/>
      <point x="189" y="112" type="curve"/>
      <point x="194" y="127"/>
      <point x="194" y="134"/>
      <point x="194" y="138" type="curve"/>
      <point x="194" y="143"/>
      <point x="201" y="152"/>
      <point x="206" y="162" type="curve"/>
      <point x="210" y="177"/>
      <point x="218" y="197"/>
      <point x="224" y="207" type="curve"/>
      <point x="230" y="218"/>
      <point x="234" y="238"/>
      <point x="234" y="242" type="curve"/>
      <point x="242" y="259"/>
      <point x="255" y="308"/>
      <point x="264" y="329" type="curve"/>
      <point x="272" y="353"/>
      <point x="300" y="419"/>
      <point x="305" y="432" type="curve"/>
      <point x="310" y="455"/>
      <point x="355" y="546"/>
      <point x="361" y="552" type="curve"/>
      <point x="361" y="557"/>
      <point x="401" y="634"/>
      <point x="406" y="641" type="curve"/>
      <point x="410" y="646"/>
      <point x="429" y="651"/>
      <point x="455" y="658" type="curve"/>
      <point x="500" y="664"/>
      <point x="572" y="681"/>
      <point x="606" y="692" type="curve"/>
      <point x="635" y="704"/>
      <point x="635" y="709"/>
      <point x="617" y="731" type="curve"/>
      <point x="606" y="748"/>
      <point x="601" y="748"/>
      <point x="585" y="744" type="curve"/>
      <point x="580" y="744"/>
      <point x="556" y="731"/>
      <point x="536" y="727" type="curve"/>
      <point x="469" y="704"/>
      <point x="447" y="708"/>
      <point x="389" y="701" type="curve"/>
      <point x="350" y="701"/>
      <point x="340" y="690"/>
      <point x="340" y="664" type="curve"/>
      <point x="340" y="658"/>
      <point x="336" y="646"/>
      <point x="332" y="629" type="curve"/>
      <point x="300" y="580"/>
      <point x="218" y="378"/>
      <point x="176" y="242" type="curve"/>
      <point x="153" y="207"/>
      <point x="145" y="183"/>
      <point x="145" y="177" type="curve"/>
      <point x="135" y="162"/>
      <point x="81" y="-29"/>
      <point x="81" y="-53" type="curve"/>
      <point x="81" y="-62"/>
      <point x="74" y="-75"/>
      <point x="68" y="-79" type="curve"/>
      <point x="52" y="-102"/>
      <point x="58" y="-119"/>
    </contour>
  </outline>
</glyph>
<glyph name="backslash" format="2">
  <advance width="330"/>
  <unicode hex="005C"/>
  <outline>
    <contour>
      <point x="339" y="-104" type="curve"/>
      <point x="339" y="-104"/>
      <point x="344" y="-101"/>
      <point x="357" y="-92" type="curve"/>
      <point x="371" y="-83"/>
      <point x="373" y="-72"/>
      <point x="372" y="-57" type="curve"/>
      <point x="378" y="-37"/>
      <point x="362" y="-25"/>
      <point x="346" y="19" type="curve"/>
      <point x="340" y="48"/>
      <point x="328" y="75"/>
      <point x="329" y="79" type="curve"/>
      <point x="330" y="84"/>
      <point x="326" y="97"/>
      <point x="326" y="115" type="curve"/>
      <point x="315" y="137"/>
      <point x="295" y="214"/>
      <point x="296" y="219" type="curve"/>
      <point x="296" y="223"/>
      <point x="295" y="229"/>
      <point x="290" y="234" type="curve"/>
      <point x="285" y="236"/>
      <point x="287" y="246"/>
      <point x="287" y="246" type="curve"/>
      <point x="289" y="250"/>
      <point x="288" y="273"/>
      <point x="279" y="302" type="curve"/>
      <point x="270" y="378"/>
      <point x="227" y="637"/>
      <point x="229" y="674" type="curve"/>
      <point x="234" y="704"/>
      <point x="233" y="711"/>
      <point x="226" y="718" type="curve"/>
      <point x="190" y="734"/>
      <point x="169" y="687"/>
      <point x="173" y="611" type="curve"/>
      <point x="175" y="595"/>
      <point x="181" y="580"/>
      <point x="179" y="569" type="curve"/>
      <point x="178" y="541"/>
      <point x="230" y="255"/>
      <point x="233" y="242" type="curve"/>
      <point x="238" y="242"/>
      <point x="241" y="228"/>
      <point x="242" y="218" type="curve"/>
      <point x="241" y="208"/>
      <point x="241" y="192"/>
      <point x="247" y="188" type="curve"/>
      <point x="245" y="181"/>
      <point x="250" y="171"/>
      <point x="252" y="166" type="curve"/>
      <point x="250" y="160"/>
      <point x="253" y="155"/>
      <point x="253" y="149" type="curve"/>
      <point x="269" y="104"/>
      <point x="311" y="-64"/>
      <point x="312" y="-80" type="curve"/>
      <point x="309" y="-91"/>
      <point x="316" y="-96"/>
      <point x="326" y="-98" type="curve"/>
      <point x="327" y="-102"/>
      <point x="334" y="-104"/>
    </contour>
  </outline>
</glyph>
<glyph name="asciicircum" format="2">
  <advance width="446"/>
  <unicode hex="005E"/>
  <outline>
    <contour>
      <point x="134" y="302" type="curve"/>
      <point x="154" y="291"/>
      <point x="170" y="305"/>
      <point x="185" y="349" type="curve"/>
      <point x="226" y="440"/>
      <point x="270" y="484"/>
      <point x="296" y="493" type="curve"/>
      <point x="315" y="499"/>
      <point x="321" y="464"/>
      <point x="353" y="411" type="curve"/>
      <point x="391" y="329"/>
      <point x="391" y="330"/>
      <point x="401" y="301" type="curve"/>
      <point x="408" y="269"/>
      <point x="454" y="298"/>
      <point x="440" y="329" type="curve"/>
      <point x="416" y="385"/>
      <point x="351" y="552"/>
      <point x="321" y="555" type="curve"/>
      <point x="280" y="559"/>
      <point x="210" y="495"/>
      <point x="186" y="453" type="curve"/>
      <point x="171" y="436"/>
      <point x="166" y="419"/>
      <point x="143" y="374" type="curve"/>
      <point x="128" y="335"/>
      <point x="123" y="309"/>
    </contour>
  </outline>
</glyph>
<glyph name="b" format="2">
  <advance width="435"/>
  <unicode hex="0062"/>
  <outline>
    <contour>
      <point x="211" y="17" type="curve"/>
      <point x="221" y="20"/>
      <point x="246" y="23"/>
      <point x="257" y="25" type="curve"/>
      <point x="292" y="37"/>
      <point x="359" y="78"/>
      <point x="396" y="116" type="curve"/>
      <point x="419" y="141"/>
      <point x="447" y="176"/>
      <point x="448" y="185" type="curve"/>
      <point x="448" y="190"/>
      <point x="456" y="201"/>
      <point x="463" y="206" type="curve"/>
      <point x="481" y="236"/>
      <point x="485" y="275"/>
      <point x="470" y="303" type="curve"/>
      <point x="453" y="332"/>
      <point x="437" y="345"/>
      <point x="408" y="345" type="curve"/>
      <point x="385" y="345"/>
      <point x="368" y="341"/>
      <point x="364" y="340" type="curve"/>
      <point x="352" y="338"/>
      <point x="313" y="321"/>
      <point x="297" y="310" type="curve"/>
      <point x="278" y="294"/>
      <point x="252" y="270"/>
      <point x="232" y="255" type="curve"/>
      <point x="207" y="231" type="line"/>
      <point x="212" y="253" type="line"/>
      <point x="232" y="305"/>
      <point x="254" y="385"/>
      <point x="310" y="505" type="curve"/>
      <point x="368" y="628"/>
      <point x="367" y="620"/>
      <point x="358" y="634" type="curve"/>
      <point x="348" y="649"/>
      <point x="327" y="654"/>
      <point x="318" y="652" type="curve"/>
      <point x="309" y="648"/>
      <point x="302" y="626"/>
      <point x="286" y="603" type="curve"/>
      <point x="267" y="551"/>
      <point x="225" y="463"/>
      <point x="224" y="454" type="curve"/>
      <point x="208" y="409"/>
      <point x="197" y="379"/>
      <point x="192" y="375" type="curve"/>
      <point x="192" y="370"/>
      <point x="184" y="357"/>
      <point x="181" y="341" type="curve"/>
      <point x="181" y="325"/>
      <point x="173" y="311"/>
      <point x="173" y="311" type="curve"/>
      <point x="167" y="306"/>
      <point x="146" y="239"/>
      <point x="135" y="187" type="curve"/>
      <point x="125" y="150"/>
      <point x="120" y="135"/>
      <point x="121" y="127" type="curve" smooth="yes"/>
      <point x="122" y="121"/>
      <point x="126" y="118"/>
      <point x="135" y="112" type="curve"/>
      <point x="137" y="100"/>
      <point x="149" y="92"/>
      <point x="154" y="90" type="curve"/>
      <point x="165" y="90"/>
      <point x="185" y="101"/>
      <point x="185" y="106" type="curve"/>
      <point x="185" y="106"/>
      <point x="202" y="143"/>
      <point x="218" y="164" type="curve"/>
      <point x="247" y="203"/>
      <point x="277" y="230"/>
      <point x="335" y="266" type="curve"/>
      <point x="376" y="293"/>
      <point x="414" y="292"/>
      <point x="420" y="281" type="curve"/>
      <point x="429" y="262"/>
      <point x="423" y="241"/>
      <point x="371" y="174" type="curve"/>
      <point x="305" y="113"/>
      <point x="228" y="66"/>
      <point x="191" y="69" type="curve"/>
      <point x="186" y="70"/>
      <point x="180" y="69"/>
      <point x="180" y="65" type="curve"/>
      <point x="178" y="61"/>
      <point x="172" y="61"/>
      <point x="166" y="61" type="curve"/>
      <point x="165" y="55"/>
      <point x="165" y="50"/>
      <point x="176" y="38" type="curve"/>
      <point x="184" y="20"/>
      <point x="184" y="20"/>
    </contour>
  </outline>
</glyph>
<glyph name="c" format="2">
  <advance width="355"/>
  <unicode hex="0063"/>
  <anchor x="169" y="-110" name="bottom"/>
  <anchor x="379" y="560" name="top"/>
  <outline>
    <contour>
      <point x="209" y="11" type="curve"/>
      <point x="236" y="17"/>
      <point x="289" y="43"/>
      <point x="289" y="48" type="curve"/>
      <point x="289" y="54"/>
      <point x="294" y="54"/>
      <point x="299" y="54" type="curve"/>
      <point x="315" y="54"/>
      <point x="390" y="123"/>
      <point x="385" y="134" type="curve"/>
      <point x="385" y="134"/>
      <point x="385" y="139"/>
      <point x="390" y="139" type="curve"/>
      <point x="401" y="144"/>
      <point x="385" y="155"/>
      <point x="369" y="160" type="curve"/>
      <point x="353" y="160"/>
      <point x="347" y="160"/>
      <point x="337" y="144" type="curve"/>
      <point x="326" y="139"/>
      <point x="316" y="127"/>
      <point x="310" y="123" type="curve"/>
      <point x="290" y="108"/>
      <point x="260" y="88"/>
      <point x="239" y="77" type="curve"/>
      <point x="224" y="69"/>
      <point x="184" y="65"/>
      <point x="166" y="70" type="curve"/>
      <point x="162" y="71"/>
      <point x="158" y="97"/>
      <point x="166" y="128" type="curve"/>
      <point x="196" y="245"/>
      <point x="239" y="302"/>
      <point x="289" y="330" type="curve"/>
      <point x="315" y="341"/>
      <point x="325" y="330"/>
      <point x="317" y="293" type="curve"/>
      <point x="311" y="267"/>
      <point x="305" y="251"/>
      <point x="305" y="245" type="curve"/>
      <point x="310" y="229"/>
      <point x="331" y="219"/>
      <point x="331" y="229" type="curve"/>
      <point x="331" y="235"/>
      <point x="337" y="235"/>
      <point x="342" y="235" type="curve"/>
      <point x="353" y="235"/>
      <point x="369" y="256"/>
      <point x="374" y="282" type="curve"/>
      <point x="385" y="304"/>
      <point x="374" y="352"/>
      <point x="363" y="352" type="curve"/>
      <point x="363" y="352"/>
      <point x="358" y="357"/>
      <point x="358" y="357" type="curve"/>
      <point x="358" y="373"/>
      <point x="326" y="389"/>
      <point x="305" y="394" type="curve"/>
      <point x="294" y="394"/>
      <point x="277" y="393"/>
      <point x="258" y="385" type="curve"/>
      <point x="236" y="376"/>
      <point x="209" y="346"/>
      <point x="182" y="314" type="curve"/>
      <point x="135" y="256"/>
      <point x="97" y="155"/>
      <point x="103" y="96" type="curve"/>
      <point x="103" y="32"/>
      <point x="151" y="1"/>
    </contour>
  </outline>
</glyph>
<glyph name="v" format="2">
  <advance width="331"/>
  <unicode hex="0076"/>
  <outline>
    <contour>
      <point x="183" y="61" type="curve"/>
      <point x="199" y="45"/>
      <point x="215" y="51"/>
      <point x="247" y="82" type="curve"/>
      <point x="263" y="104"/>
      <point x="285" y="120"/>
      <point x="290" y="125" type="curve"/>
      <point x="301" y="136"/>
      <point x="354" y="205"/>
      <point x="370" y="237" type="curve"/>
      <point x="375" y="242"/>
      <point x="380" y="258"/>
      <point x="391" y="274" type="curve"/>
      <point x="418" y="311"/>
      <point x="415" y="331"/>
      <point x="383" y="326" type="curve"/>
      <point x="367" y="321"/>
      <point x="345" y="288"/>
      <point x="331" y="269" type="curve"/>
      <point x="310" y="242"/>
      <point x="297" y="222"/>
      <point x="269" y="185" type="curve"/>
      <point x="253" y="164"/>
      <point x="233" y="142"/>
      <point x="228" y="137" type="curve"/>
      <point x="217" y="126"/>
      <point x="210" y="141"/>
      <point x="205" y="152" type="curve"/>
      <point x="205" y="157"/>
      <point x="194" y="189"/>
      <point x="189" y="231" type="curve"/>
      <point x="178" y="301"/>
      <point x="165" y="347"/>
      <point x="149" y="353" type="curve"/>
      <point x="143" y="354"/>
      <point x="131" y="352"/>
      <point x="125" y="348" type="curve"/>
      <point x="109" y="338"/>
      <point x="107" y="323"/>
      <point x="114" y="299" type="curve"/>
      <point x="118" y="287"/>
      <point x="125" y="268"/>
      <point x="130" y="242" type="curve"/>
      <point x="141" y="173"/>
      <point x="168" y="72"/>
    </contour>
  </outline>
</glyph>
<glyph name="y" format="2">
  <advance width="341"/>
  <unicode hex="0079"/>
  <anchor x="339" y="560" name="top"/>
  <outline>
    <contour>
      <point x="79" y="-199" type="curve"/>
      <point x="106" y="-192"/>
      <point x="144" y="-160"/>
      <point x="164" y="-142" type="curve"/>
      <point x="196" y="-103"/>
      <point x="223" y="-58"/>
      <point x="254" y="-9" type="curve"/>
      <point x="276" y="46"/>
      <point x="292" y="71"/>
      <point x="329" y="151" type="curve"/>
      <point x="336" y="167"/>
      <point x="345" y="188"/>
      <point x="352" y="204" type="curve"/>
      <point x="359" y="212"/>
      <point x="373" y="241"/>
      <point x="384" y="273" type="curve"/>
      <point x="413" y="328"/>
      <point x="416" y="344"/>
      <point x="392" y="369" type="curve"/>
      <point x="377" y="377"/>
      <point x="377" y="377"/>
      <point x="365" y="368" type="curve"/>
      <point x="365" y="368" type="line" smooth="yes"/>
      <point x="365" y="368" type="line"/>
      <point x="353" y="364"/>
      <point x="345" y="344"/>
      <point x="329" y="313" type="curve"/>
      <point x="316" y="289"/>
      <point x="301" y="242"/>
      <point x="294" y="222" type="curve"/>
      <point x="285" y="202"/>
      <point x="271" y="178"/>
      <point x="270" y="172" type="curve"/>
      <point x="269" y="167"/>
      <point x="262" y="151"/>
      <point x="254" y="135" type="curve"/>
      <point x="246" y="125"/>
      <point x="241" y="109"/>
      <point x="237" y="98" type="curve"/>
      <point x="209" y="34"/>
      <point x="152" y="-59"/>
      <point x="136" y="-83" type="curve"/>
      <point x="117" y="-109"/>
      <point x="84" y="-145"/>
      <point x="54" y="-151" type="curve"/>
      <point x="19" y="-158"/>
      <point x="-12" y="-143"/>
      <point x="-22" y="-136" type="curve"/>
      <point x="-32" y="-124"/>
      <point x="-51" y="-143"/>
      <point x="-48" y="-155" type="curve"/>
      <point x="-42" y="-188"/>
      <point x="31" y="-214"/>
    </contour>
    <contour>
      <point x="214" y="41" type="curve"/>
      <point x="230" y="39"/>
      <point x="252" y="71"/>
      <point x="234" y="82" type="curve"/>
      <point x="199" y="103"/>
      <point x="191" y="193"/>
      <point x="196" y="273" type="curve"/>
      <point x="202" y="369"/>
      <point x="191" y="402"/>
      <point x="154" y="386" type="curve"/>
      <point x="154" y="386" type="line" smooth="yes"/>
      <point x="154" y="386" type="line"/>
      <point x="148" y="382"/>
      <point x="142" y="377"/>
      <point x="143" y="356" type="curve"/>
      <point x="142" y="340"/>
      <point x="143" y="308"/>
      <point x="138" y="286" type="curve"/>
      <point x="133" y="223"/>
      <point x="140" y="130"/>
      <point x="156" y="130" type="curve"/>
      <point x="156" y="130"/>
      <point x="156" y="125"/>
      <point x="156" y="119" type="curve"/>
      <point x="152" y="103"/>
      <point x="183" y="45"/>
    </contour>
  </outline>
</glyph>
<glyph name="braceright" format="2">
  <advance width="330"/>
  <unicode hex="007D"/>
  <outline>
    <contour>
      <point x="141" y="-111" type="curve"/>
      <point x="191" y="-109"/>
      <point x="238" y="-87"/>
      <point x="238" y="-59" type="curve"/>
      <point x="236" y="-55"/>
      <point x="241" y="-55"/>
      <point x="241" y="-55" type="curve"/>
      <point x="247" y="-55"/>
      <point x="255" y="-25"/>
      <point x="264" y="15" type="curve"/>
      <point x="269" y="27"/>
      <point x="273" y="84"/>
      <point x="271" y="127" type="curve"/>
      <point x="269" y="226"/>
      <point x="271" y="230"/>
      <point x="298" y="244" type="curve"/>
      <point x="303" y="244"/>
      <point x="303" y="248"/>
      <point x="303" y="258" type="curve"/>
      <point x="298" y="269"/>
      <point x="291" y="277"/>
      <point x="289" y="289" type="curve"/>
      <point x="280" y="310"/>
      <point x="280" y="318"/>
      <point x="289" y="324" type="curve"/>
      <point x="296" y="328"/>
      <point x="296" y="328"/>
      <point x="296" y="328" type="curve"/>
      <point x="296" y="328"/>
      <point x="301" y="341"/>
      <point x="307" y="347" type="curve"/>
      <point x="324" y="365"/>
      <point x="357" y="419"/>
      <point x="357" y="428" type="curve"/>
      <point x="357" y="433"/>
      <point x="362" y="433"/>
      <point x="368" y="437" type="curve"/>
      <point x="374" y="444"/>
      <point x="391" y="487"/>
      <point x="410" y="549" type="curve"/>
      <point x="424" y="589"/>
      <point x="424" y="594"/>
      <point x="418" y="619" type="curve"/>
      <point x="416" y="635"/>
      <point x="411" y="657"/>
      <point x="406" y="661" type="curve"/>
      <point x="395" y="681"/>
      <point x="358" y="716"/>
      <point x="352" y="716" type="curve"/>
      <point x="347" y="716"/>
      <point x="341" y="720"/>
      <point x="337" y="724" type="curve"/>
      <point x="328" y="734"/>
      <point x="295" y="738"/>
      <point x="287" y="722" type="curve"/>
      <point x="275" y="708"/>
      <point x="275" y="692"/>
      <point x="296" y="688" type="curve"/>
      <point x="330" y="678"/>
      <point x="343" y="670"/>
      <point x="354" y="649" type="curve"/>
      <point x="368" y="629"/>
      <point x="373" y="609"/>
      <point x="368" y="597" type="curve"/>
      <point x="368" y="597"/>
      <point x="368" y="592"/>
      <point x="368" y="587" type="curve"/>
      <point x="358" y="547"/>
      <point x="331" y="489"/>
      <point x="297" y="435" type="curve"/>
      <point x="278" y="399"/>
      <point x="267" y="390"/>
      <point x="233" y="353" type="curve"/>
      <point x="222" y="345"/>
      <point x="218" y="320"/>
      <point x="229" y="294" type="curve"/>
      <point x="231" y="281"/>
      <point x="231" y="271"/>
      <point x="220" y="261" type="curve"/>
      <point x="209" y="240"/>
      <point x="209" y="235"/>
      <point x="213" y="147" type="curve"/>
      <point x="215" y="95"/>
      <point x="212" y="50"/>
      <point x="212" y="46" type="curve"/>
      <point x="212" y="40"/>
      <point x="208" y="25"/>
      <point x="204" y="9" type="curve"/>
      <point x="194" y="-41"/>
      <point x="185" y="-53"/>
      <point x="128" y="-63" type="curve"/>
      <point x="105" y="-72"/>
      <point x="91" y="-76"/>
      <point x="91" y="-76" type="curve"/>
      <point x="91" y="-81"/>
      <point x="91" y="-81"/>
      <point x="84" y="-76" type="curve"/>
      <point x="84" y="-76"/>
      <point x="78" y="-81"/>
      <point x="78" y="-87" type="curve"/>
      <point x="78" y="-102"/>
      <point x="105" y="-113"/>
    </contour>
  </outline>
</glyph>
<glyph name="currency" format="2">
  <advance width="450"/>
  <unicode hex="00A4"/>
  <outline>
    <contour>
      <point x="141" y="26" type="curve"/>
      <point x="144" y="16"/>
      <point x="170" y="31"/>
      <point x="174" y="35" type="curve"/>
      <point x="171" y="43"/>
      <point x="185" y="51"/>
      <point x="195" y="74" type="curve"/>
      <point x="207" y="85"/>
      <point x="231" y="116"/>
      <point x="233" y="124" type="curve"/>
      <point x="246" y="137"/>
      <point x="246" y="137"/>
      <point x="261" y="131" type="curve"/>
      <point x="283" y="127"/>
      <point x="329" y="140"/>
      <point x="365" y="156" type="curve"/>
      <point x="373" y="162"/>
      <point x="386" y="168"/>
      <point x="383" y="156" type="curve"/>
      <point x="388" y="146"/>
      <point x="413" y="105"/>
      <point x="441" y="84" type="curve"/>
      <point x="462" y="60"/>
      <point x="471" y="57"/>
      <point x="479" y="68" type="curve"/>
      <point x="485" y="77"/>
      <point x="477" y="118"/>
      <point x="470" y="119" type="curve"/>
      <point x="459" y="119"/>
      <point x="424" y="153"/>
      <point x="415" y="170" type="curve"/>
      <point x="402" y="184" type="line"/>
      <point x="426" y="209" type="line" smooth="yes"/>
      <point x="459" y="247"/>
      <point x="486" y="305"/>
      <point x="482" y="314" type="curve"/>
      <point x="485" y="323"/>
      <point x="485" y="323"/>
      <point x="486" y="325" type="curve"/>
      <point x="489" y="328"/>
      <point x="485" y="365"/>
      <point x="473" y="374" type="curve"/>
      <point x="470" y="398"/>
      <point x="457" y="410"/>
      <point x="449" y="413" type="curve"/>
      <point x="438" y="422"/>
      <point x="434" y="430"/>
      <point x="434" y="430" type="curve"/>
      <point x="438" y="436"/>
      <point x="435" y="446"/>
      <point x="451" y="450" type="curve"/>
      <point x="455" y="459"/>
      <point x="467" y="479"/>
      <point x="474" y="493" type="curve"/>
      <point x="479" y="500"/>
      <point x="485" y="514"/>
      <point x="486" y="512" type="curve"/>
      <point x="490" y="518"/>
      <point x="488" y="536"/>
      <point x="478" y="539" type="curve"/>
      <point x="468" y="557"/>
      <point x="460" y="554"/>
      <point x="417" y="499" type="curve"/>
      <point x="375" y="444" type="line"/>
      <point x="347" y="446" type="line" smooth="yes"/>
      <point x="322" y="443"/>
      <point x="316" y="445"/>
      <point x="298" y="435" type="curve"/>
      <point x="285" y="427"/>
      <point x="278" y="418"/>
      <point x="275" y="421" type="curve"/>
      <point x="275" y="424"/>
      <point x="260" y="432"/>
      <point x="243" y="456" type="curve"/>
      <point x="233" y="464"/>
      <point x="228" y="485"/>
      <point x="222" y="484" type="curve"/>
      <point x="216" y="492"/>
      <point x="210" y="498"/>
      <point x="205" y="506" type="curve"/>
      <point x="198" y="520"/>
      <point x="191" y="518"/>
      <point x="193" y="518" type="curve"/>
      <point x="185" y="528"/>
      <point x="172" y="499"/>
      <point x="182" y="485" type="curve"/>
      <point x="185" y="480"/>
      <point x="187" y="477"/>
      <point x="189" y="474" type="curve"/>
      <point x="184" y="459"/>
      <point x="209" y="424"/>
      <point x="235" y="404" type="curve"/>
      <point x="240" y="388"/>
      <point x="240" y="388"/>
      <point x="228" y="357" type="curve"/>
      <point x="219" y="343"/>
      <point x="215" y="335"/>
      <point x="215" y="335" type="curve"/>
      <point x="215" y="328"/>
      <point x="211" y="328"/>
      <point x="210" y="325" type="curve"/>
      <point x="206" y="324"/>
      <point x="197" y="314"/>
      <point x="199" y="309" type="curve"/>
      <point x="191" y="301"/>
      <point x="191" y="277"/>
      <point x="187" y="277" type="curve"/>
      <point x="180" y="256"/>
      <point x="182" y="221"/>
      <point x="185" y="194" type="curve"/>
      <point x="191" y="190"/>
      <point x="199" y="173"/>
      <point x="201" y="171" type="curve"/>
      <point x="207" y="174"/>
      <point x="205" y="163"/>
      <point x="199" y="156" type="curve"/>
      <point x="191" y="151"/>
      <point x="183" y="150"/>
      <point x="183" y="132" type="curve"/>
      <point x="175" y="132"/>
      <point x="166" y="129"/>
      <point x="160" y="125" type="curve"/>
      <point x="159" y="114"/>
      <point x="152" y="113"/>
      <point x="153" y="108" type="curve"/>
      <point x="143" y="99"/>
      <point x="126" y="75"/>
      <point x="136" y="64" type="curve"/>
      <point x="133" y="64"/>
      <point x="124" y="66"/>
      <point x="130" y="60" type="curve"/>
      <point x="121" y="52"/>
      <point x="130" y="17"/>
    </contour>
    <contour>
      <point x="313" y="189" type="curve"/>
      <point x="281" y="186"/>
      <point x="253" y="192"/>
      <point x="243" y="206" type="curve"/>
      <point x="220" y="219"/>
      <point x="231" y="266"/>
      <point x="262" y="311" type="curve"/>
      <point x="284" y="352"/>
      <point x="292" y="367"/>
      <point x="323" y="381" type="curve"/>
      <point x="344" y="390"/>
      <point x="350" y="395"/>
      <point x="377" y="392" type="curve"/>
      <point x="400" y="389"/>
      <point x="413" y="382"/>
      <point x="423" y="369" type="curve"/>
      <point x="435" y="354"/>
      <point x="432" y="316"/>
      <point x="419" y="289" type="curve"/>
      <point x="398" y="243"/>
      <point x="354" y="210"/>
    </contour>
  </outline>
</glyph>
<glyph name="plusminus" format="2">
  <advance width="446"/>
  <unicode hex="00B1"/>
  <outline>
    <contour>
      <point x="178" y="248" type="curve"/>
      <point x="216" y="248"/>
      <point x="371" y="252"/>
      <point x="386" y="253" type="curve"/>
      <point x="410" y="255"/>
      <point x="439" y="257"/>
      <point x="449" y="258" type="curve"/>
      <point x="479" y="253"/>
      <point x="485" y="276"/>
      <point x="465" y="296" type="curve"/>
      <point x="450" y="310"/>
      <point x="444" y="311"/>
      <point x="410" y="311" type="curve"/>
      <point x="356" y="311"/>
      <point x="203" y="307"/>
      <point x="158" y="297" type="curve"/>
      <point x="109" y="292"/>
      <point x="99" y="287"/>
      <point x="114" y="267" type="curve"/>
      <point x="119" y="258"/>
      <point x="123" y="253"/>
      <point x="143" y="253" type="curve"/>
      <point x="158" y="248"/>
      <point x="170" y="248"/>
    </contour>
    <contour>
      <point x="178" y="18" type="curve"/>
      <point x="216" y="18"/>
      <point x="371" y="22"/>
      <point x="386" y="23" type="curve"/>
      <point x="410" y="25"/>
      <point x="439" y="27"/>
      <point x="449" y="28" type="curve"/>
      <point x="479" y="23"/>
      <point x="485" y="46"/>
      <point x="465" y="66" type="curve"/>
      <point x="450" y="80"/>
      <point x="444" y="81"/>
      <point x="410" y="81" type="curve"/>
      <point x="356" y="81"/>
      <point x="203" y="77"/>
      <point x="158" y="67" type="curve"/>
      <point x="109" y="62"/>
      <point x="99" y="57"/>
      <point x="114" y="37" type="curve"/>
      <point x="119" y="28"/>
      <point x="123" y="23"/>
      <point x="143" y="23" type="curve"/>
      <point x="158" y="18"/>
      <point x="170" y="18"/>
    </contour>
    <contour>
      <point x="304" y="137" type="curve"/>
      <point x="313" y="141"/>
      <point x="318" y="144"/>
      <point x="318" y="160" type="curve"/>
      <point x="323" y="172"/>
      <point x="323" y="181"/>
      <point x="323" y="188" type="curve"/>
      <point x="323" y="218"/>
      <point x="319" y="342"/>
      <point x="318" y="354" type="curve"/>
      <point x="316" y="373"/>
      <point x="314" y="397"/>
      <point x="313" y="405" type="curve"/>
      <point x="318" y="429"/>
      <point x="295" y="433"/>
      <point x="275" y="417" type="curve"/>
      <point x="261" y="405"/>
      <point x="260" y="401"/>
      <point x="260" y="373" type="curve"/>
      <point x="260" y="330"/>
      <point x="264" y="208"/>
      <point x="274" y="172" type="curve"/>
      <point x="279" y="133"/>
      <point x="284" y="125"/>
    </contour>
  </outline>
</glyph>
<glyph name="threesuperior" format="2">
  <advance width="320"/>
  <unicode hex="00B3"/>
  <outline>
    <contour>
      <point x="294" y="310" type="curve"/>
      <point x="328" y="312"/>
      <point x="370" y="325"/>
      <point x="397" y="342" type="curve"/>
      <point x="437" y="370"/>
      <point x="457" y="400"/>
      <point x="457" y="437" type="curve"/>
      <point x="457" y="451"/>
      <point x="453" y="465"/>
      <point x="447" y="481" type="curve"/>
      <point x="436" y="497"/>
      <point x="407" y="529"/>
      <point x="380" y="542" type="curve"/>
      <point x="363" y="555" type="line"/>
      <point x="376" y="565" type="line"/>
      <point x="383" y="570" type="line"/>
      <point x="391" y="577" type="line"/>
      <point x="398" y="582" type="line"/>
      <point x="409" y="589" type="line"/>
      <point x="425" y="599"/>
      <point x="440" y="610"/>
      <point x="451" y="618" type="curve"/>
      <point x="461" y="625" type="line"/>
      <point x="465" y="629" type="line"/>
      <point x="494" y="660"/>
      <point x="498" y="670"/>
      <point x="494" y="691" type="curve"/>
      <point x="488" y="727"/>
      <point x="460" y="752"/>
      <point x="413" y="757" type="curve"/>
      <point x="412" y="757" type="line"/>
      <point x="393" y="758"/>
      <point x="333" y="756"/>
      <point x="311" y="750" type="curve"/>
      <point x="294" y="742"/>
      <point x="268" y="726"/>
      <point x="263" y="718" type="curve"/>
      <point x="263" y="707"/>
      <point x="277" y="680"/>
      <point x="286" y="678" type="curve"/>
      <point x="290" y="677"/>
      <point x="324" y="688"/>
      <point x="326" y="692" type="curve"/>
      <point x="327" y="696"/>
      <point x="370" y="705"/>
      <point x="378" y="702" type="curve"/>
      <point x="383" y="708"/>
      <point x="408" y="706"/>
      <point x="431" y="704" type="curve"/>
      <point x="447" y="699"/>
      <point x="445" y="692"/>
      <point x="432" y="673" type="curve"/>
      <point x="433" y="673" type="line"/>
      <point x="419" y="660"/>
      <point x="393" y="642"/>
      <point x="337" y="607" type="curve"/>
      <point x="331" y="603" type="line"/>
      <point x="332" y="603" type="line"/>
      <point x="327" y="601" type="line"/>
      <point x="268" y="565"/>
      <point x="256" y="557"/>
      <point x="257" y="547" type="curve"/>
      <point x="261" y="541" type="line"/>
      <point x="263" y="537"/>
      <point x="268" y="528"/>
      <point x="274" y="522" type="curve"/>
      <point x="289" y="512"/>
      <point x="294" y="512"/>
      <point x="304" y="515" type="curve"/>
      <point x="326" y="513"/>
      <point x="371" y="500"/>
      <point x="387" y="486" type="curve"/>
      <point x="401" y="477"/>
      <point x="408" y="462"/>
      <point x="408" y="449" type="curve"/>
      <point x="408" y="436"/>
      <point x="402" y="421"/>
      <point x="391" y="409" type="curve"/>
      <point x="364" y="378"/>
      <point x="297" y="353"/>
      <point x="247" y="365" type="curve"/>
      <point x="219" y="368"/>
      <point x="214" y="369"/>
      <point x="213" y="349" type="curve"/>
      <point x="211" y="326"/>
      <point x="253" y="310"/>
    </contour>
  </outline>
</glyph>
<glyph name="onesuperior" format="2">
  <advance width="320"/>
  <unicode hex="00B9"/>
  <outline>
    <contour>
      <point x="359" y="310" type="curve"/>
      <point x="364" y="315"/>
      <point x="368" y="326"/>
      <point x="372" y="340" type="curve"/>
      <point x="374" y="347"/>
      <point x="377" y="353"/>
      <point x="379" y="360" type="curve"/>
      <point x="383" y="383"/>
      <point x="393" y="422"/>
      <point x="404" y="449" type="curve"/>
      <point x="409" y="475"/>
      <point x="413" y="487"/>
      <point x="418" y="500" type="curve"/>
      <point x="418" y="501"/>
      <point x="419" y="506"/>
      <point x="420" y="507" type="curve"/>
      <point x="424" y="518"/>
      <point x="428" y="534"/>
      <point x="433" y="552" type="curve"/>
      <point x="446" y="597"/>
      <point x="476" y="693"/>
      <point x="484" y="716" type="curve"/>
      <point x="488" y="725"/>
      <point x="490" y="737"/>
      <point x="489" y="743" type="curve"/>
      <point x="485" y="755"/>
      <point x="467" y="766"/>
      <point x="465" y="767" type="curve"/>
      <point x="458" y="768"/>
      <point x="426" y="752"/>
      <point x="389" y="726" type="curve"/>
      <point x="384" y="722"/>
      <point x="378" y="717"/>
      <point x="373" y="713" type="curve"/>
      <point x="367" y="708"/>
      <point x="361" y="704"/>
      <point x="356" y="699" type="curve"/>
      <point x="332" y="681"/>
      <point x="321" y="672.0"/>
      <point x="313" y="664" type="curve"/>
      <point x="303" y="656"/>
      <point x="296" y="651"/>
      <point x="288" y="645" type="curve"/>
      <point x="284" y="643"/>
      <point x="280" y="639"/>
      <point x="270" y="631" type="curve"/>
      <point x="255" y="619"/>
      <point x="235" y="605"/>
      <point x="232" y="604" type="curve"/>
      <point x="225" y="591"/>
      <point x="231" y="575"/>
      <point x="247" y="561" type="curve"/>
      <point x="260" y="552"/>
      <point x="263" y="554"/>
      <point x="291" y="579" type="curve"/>
      <point x="302" y="586"/>
      <point x="312" y="594"/>
      <point x="321" y="602" type="curve"/>
      <point x="333" y="612"/>
      <point x="345" y="622"/>
      <point x="356" y="629" type="curve"/>
      <point x="378" y="647"/>
      <point x="399" y="663"/>
      <point x="411" y="671" type="curve"/>
      <point x="406.005" y="652.685"/>
      <point x="402" y="634"/>
      <point x="396" y="616" type="curve"/>
      <point x="392" y="599"/>
      <point x="387" y="583"/>
      <point x="383" y="566" type="curve"/>
      <point x="379.004" y="552.014"/>
      <point x="374" y="535"/>
      <point x="371" y="524" type="curve"/>
      <point x="359" y="481"/>
      <point x="349" y="447"/>
      <point x="344" y="444" type="curve"/>
      <point x="344" y="444"/>
      <point x="336" y="423"/>
      <point x="330" y="386" type="curve"/>
      <point x="329" y="380"/>
      <point x="327" y="373"/>
      <point x="326" y="367" type="curve"/>
      <point x="320" y="341"/>
      <point x="321" y="329"/>
      <point x="326" y="323" type="curve"/>
      <point x="337" y="311"/>
      <point x="351" y="302"/>
    </contour>
  </outline>
</glyph>
<glyph name="guillemotright" format="2">
  <advance width="708"/>
  <unicode hex="00BB"/>
  <outline>
    <contour>
      <point x="436" y="0" type="curve"/>
      <point x="442" y="0"/>
      <point x="454" y="13"/>
      <point x="462" y="22" type="curve"/>
      <point x="475" y="35"/>
      <point x="487" y="51"/>
      <point x="536" y="87" type="curve"/>
      <point x="606" y="147"/>
      <point x="628" y="167"/>
      <point x="646" y="189" type="curve"/>
      <point x="648" y="190"/>
      <point x="666" y="208"/>
      <point x="677" y="210" type="curve"/>
      <point x="670" y="240" type="line"/>
      <point x="646" y="282" type="line" smooth="yes"/>
      <point x="624" y="322"/>
      <point x="603" y="349"/>
      <point x="558" y="375" type="curve"/>
      <point x="538" y="399"/>
      <point x="520" y="406"/>
      <point x="472" y="431" type="curve"/>
      <point x="430" y="450"/>
      <point x="405" y="446"/>
      <point x="394" y="445" type="curve"/>
      <point x="363" y="437"/>
      <point x="398" y="402"/>
      <point x="447" y="378" type="curve"/>
      <point x="540" y="326"/>
      <point x="586" y="269"/>
      <point x="598" y="242" type="curve"/>
      <point x="602" y="216"/>
      <point x="572" y="191"/>
      <point x="525" y="148" type="curve"/>
      <point x="448" y="79"/>
      <point x="425" y="65"/>
      <point x="398" y="42" type="curve"/>
      <point x="389" y="34"/>
      <point x="386" y="20"/>
      <point x="386" y="20" type="curve"/>
      <point x="388" y="9"/>
      <point x="405" y="13"/>
      <point x="419" y="3" type="curve"/>
      <point x="425" y="-1"/>
      <point x="428" y="-3"/>
    </contour>
    <contour>
      <point x="236" y="0" type="curve"/>
      <point x="242" y="0"/>
      <point x="254" y="13"/>
      <point x="262" y="22" type="curve"/>
      <point x="275" y="35"/>
      <point x="287" y="51"/>
      <point x="336" y="87" type="curve"/>
      <point x="406" y="147"/>
      <point x="428" y="167"/>
      <point x="446" y="189" type="curve"/>
      <point x="448" y="190"/>
      <point x="466" y="208"/>
      <point x="477" y="210" type="curve"/>
      <point x="470" y="240" type="line"/>
      <point x="446" y="282" type="line" smooth="yes"/>
      <point x="424" y="322"/>
      <point x="403" y="349"/>
      <point x="358" y="375" type="curve"/>
      <point x="338" y="399"/>
      <point x="320" y="406"/>
      <point x="272" y="431" type="curve"/>
      <point x="230" y="450"/>
      <point x="205" y="446"/>
      <point x="194" y="445" type="curve"/>
      <point x="163" y="437"/>
      <point x="198" y="402"/>
      <point x="247" y="378" type="curve"/>
      <point x="340" y="326"/>
      <point x="386" y="269"/>
      <point x="398" y="242" type="curve"/>
      <point x="402" y="216"/>
      <point x="372" y="191"/>
      <point x="325" y="148" type="curve"/>
      <point x="248" y="79"/>
      <point x="225" y="65"/>
      <point x="198" y="42" type="curve"/>
      <point x="189" y="34"/>
      <point x="186" y="20"/>
      <point x="186" y="20" type="curve"/>
      <point x="188" y="9"/>
      <point x="205" y="13"/>
      <point x="219" y="3" type="curve"/>
      <point x="225" y="-1"/>
      <point x="228" y="-3"/>
    </contour>
  </outline>
</glyph>
<glyph name="onequarter" format="2">
  <advance width="800"/>
  <unicode hex="00BC"/>
  <outline>
    <contour>
      <point x="267" y="-14" type="curve"/>
      <point x="276" y="-13"/>
      <point x="280" y="-8"/>
      <point x="291" y="18" type="curve"/>
      <point x="307" y="50"/>
      <point x="425" y="195"/>
      <point x="470" y="249" type="curve"/>
      <point x="492" y="268"/>
      <point x="504" y="285"/>
      <point x="504" y="290" type="curve"/>
      <point x="504" y="290"/>
      <point x="507" y="296"/>
      <point x="508" y="295" type="curve"/>
      <point x="516" y="298"/>
      <point x="521" y="300"/>
      <point x="524" y="304" type="curve"/>
      <point x="525" y="309"/>
      <point x="580" y="361"/>
      <point x="597" y="378" type="curve"/>
      <point x="604" y="392"/>
      <point x="611" y="397"/>
      <point x="617" y="398" type="curve"/>
      <point x="619" y="403"/>
      <point x="727" y="504"/>
      <point x="746" y="525" type="curve"/>
      <point x="805" y="579"/>
      <point x="812" y="582"/>
      <point x="823" y="605" type="curve"/>
      <point x="831" y="618"/>
      <point x="833" y="627"/>
      <point x="826" y="640" type="curve"/>
      <point x="820" y="653"/>
      <point x="819" y="659"/>
      <point x="819" y="659" type="curve"/>
      <point x="814" y="661"/>
      <point x="807" y="661"/>
      <point x="803" y="659" type="curve"/>
      <point x="795" y="663"/>
      <point x="789" y="662"/>
      <point x="784" y="652" type="curve"/>
      <point x="777" y="638"/>
      <point x="556" y="412"/>
      <point x="521" y="382" type="curve"/>
      <point x="520" y="376"/>
      <point x="513" y="373"/>
      <point x="512" y="368" type="curve"/>
      <point x="510" y="362"/>
      <point x="506" y="359"/>
      <point x="503" y="353" type="curve"/>
      <point x="494" y="351"/>
      <point x="483" y="342"/>
      <point x="479" y="331" type="curve"/>
      <point x="476" y="321"/>
      <point x="468" y="312"/>
      <point x="463" y="314" type="curve"/>
      <point x="458" y="304"/>
      <point x="315" y="149"/>
      <point x="300" y="125" type="curve"/>
      <point x="297" y="116"/>
      <point x="287" y="107"/>
      <point x="275" y="97" type="curve"/>
      <point x="232" y="36"/>
      <point x="231" y="-8"/>
    </contour>
    <component base="one.numerator" xOffset="-10"/>
    <component base="four.denominator" xOffset="450"/>
  </outline>
</glyph>
<glyph name="threequarters" format="2">
  <advance width="800"/>
  <unicode hex="00BE"/>
  <outline>
    <contour>
      <point x="281" y="-14" type="curve"/>
      <point x="290" y="-13"/>
      <point x="294" y="-8"/>
      <point x="305" y="18" type="curve"/>
      <point x="321" y="50"/>
      <point x="439" y="195"/>
      <point x="484" y="249" type="curve"/>
      <point x="506" y="268"/>
      <point x="518" y="285"/>
      <point x="518" y="290" type="curve"/>
      <point x="518" y="290"/>
      <point x="521" y="296"/>
      <point x="522" y="295" type="curve"/>
      <point x="530" y="298"/>
      <point x="535" y="300"/>
      <point x="538" y="304" type="curve"/>
      <point x="539" y="309"/>
      <point x="594" y="361"/>
      <point x="611" y="378" type="curve"/>
      <point x="618" y="392"/>
      <point x="625" y="397"/>
      <point x="631" y="398" type="curve"/>
      <point x="633" y="403"/>
      <point x="741" y="504"/>
      <point x="760" y="525" type="curve"/>
      <point x="819" y="579"/>
      <point x="826" y="582"/>
      <point x="837" y="605" type="curve"/>
      <point x="845" y="618"/>
      <point x="847" y="627"/>
      <point x="840" y="640" type="curve"/>
      <point x="834" y="653"/>
      <point x="833" y="659"/>
      <point x="833" y="659" type="curve"/>
      <point x="828" y="661"/>
      <point x="821" y="661"/>
      <point x="817" y="659" type="curve"/>
      <point x="809" y="663"/>
      <point x="803" y="662"/>
      <point x="798" y="652" type="curve"/>
      <point x="791" y="638"/>
      <point x="570" y="412"/>
      <point x="535" y="382" type="curve"/>
      <point x="534" y="376"/>
      <point x="527" y="373"/>
      <point x="526" y="368" type="curve"/>
      <point x="524" y="362"/>
      <point x="520" y="359"/>
      <point x="517" y="353" type="curve"/>
      <point x="508" y="351"/>
      <point x="497" y="342"/>
      <point x="493" y="331" type="curve"/>
      <point x="490" y="321"/>
      <point x="482" y="312"/>
      <point x="477" y="314" type="curve"/>
      <point x="472" y="304"/>
      <point x="329" y="149"/>
      <point x="314" y="125" type="curve"/>
      <point x="311" y="116"/>
      <point x="301" y="107"/>
      <point x="289" y="97" type="curve"/>
      <point x="246" y="36"/>
      <point x="245" y="-8"/>
    </contour>
    <component base="three.numerator" xOffset="-10"/>
    <component base="four.denominator" xOffset="450"/>
  </outline>
</glyph>
<glyph name="questiondown" format="2">
  <advance width="374"/>
  <unicode hex="00BF"/>
  <outline>
    <contour>
      <point x="145" y="-217" type="curve"/>
      <point x="169" y="-214"/>
      <point x="178" y="-214"/>
      <point x="178" y="-214" type="curve"/>
      <point x="178" y="-214"/>
      <point x="200" y="-202"/>
      <point x="228" y="-190" type="curve"/>
      <point x="279" y="-164"/>
      <point x="309" y="-108"/>
      <point x="322" y="-68" type="curve"/>
      <point x="322" y="-48"/>
      <point x="325" y="-41"/>
      <point x="317" y="-30" type="curve"/>
      <point x="314" y="-24"/>
      <point x="307" y="-14"/>
      <point x="307" y="-14" type="curve"/>
      <point x="294" y="-8"/>
      <point x="262" y="-8"/>
      <point x="253" y="-10" type="curve"/>
      <point x="253" y="-17"/>
      <point x="258" y="-26"/>
      <point x="258" y="-37" type="curve"/>
      <point x="262" y="-50"/>
      <point x="262" y="-53"/>
      <point x="254" y="-76" type="curve"/>
      <point x="224" y="-143"/>
      <point x="142" y="-185"/>
      <point x="100" y="-163" type="curve"/>
      <point x="84" y="-151"/>
      <point x="87" y="-140"/>
      <point x="88" y="-94" type="curve"/>
      <point x="103" y="-19"/>
      <point x="107" y="9"/>
      <point x="152" y="55" type="curve"/>
      <point x="162" y="64"/>
      <point x="185" y="80"/>
      <point x="185" y="80" type="curve"/>
      <point x="198" y="86"/>
      <point x="223" y="106"/>
      <point x="223" y="111" type="curve"/>
      <point x="223" y="111"/>
      <point x="228" y="114"/>
      <point x="240" y="123" type="curve"/>
      <point x="262" y="139"/>
      <point x="298" y="179"/>
      <point x="313" y="205" type="curve"/>
      <point x="322" y="229"/>
      <point x="332" y="247"/>
      <point x="332" y="255" type="curve"/>
      <point x="335" y="266"/>
      <point x="335" y="275"/>
      <point x="335" y="277" type="curve"/>
      <point x="335" y="293"/>
      <point x="326" y="312"/>
      <point x="305" y="314" type="curve"/>
      <point x="287" y="314"/>
      <point x="287" y="314"/>
      <point x="272" y="282" type="curve"/>
      <point x="255" y="234"/>
      <point x="219" y="176"/>
      <point x="173" y="151" type="curve"/>
      <point x="152" y="127"/>
      <point x="101" y="84"/>
      <point x="89" y="72" type="curve"/>
      <point x="36" y="13"/>
      <point x="8" y="-115"/>
      <point x="27" y="-174" type="curve"/>
      <point x="41" y="-190"/>
      <point x="71" y="-206"/>
      <point x="95" y="-213" type="curve"/>
      <point x="106" y="-213"/>
      <point x="120" y="-213"/>
      <point x="124" y="-213" type="curve"/>
      <point x="124" y="-219"/>
      <point x="137" y="-216"/>
    </contour>
    <contour>
      <point x="319" y="412" type="curve"/>
      <point x="343" y="402"/>
      <point x="348" y="402"/>
      <point x="372" y="417" type="curve"/>
      <point x="407" y="441"/>
      <point x="417" y="466"/>
      <point x="392" y="490" type="curve"/>
      <point x="372" y="505"/>
      <point x="358" y="505"/>
      <point x="333" y="495" type="curve"/>
      <point x="284" y="471"/>
      <point x="279" y="437"/>
    </contour>
  </outline>
</glyph>
<glyph name="multiply" format="2">
  <advance width="446"/>
  <unicode hex="00D7"/>
  <outline>
    <contour>
      <point x="440" y="77" type="curve"/>
      <point x="443" y="87"/>
      <point x="444" y="94"/>
      <point x="430" y="108" type="curve"/>
      <point x="423" y="122"/>
      <point x="414" y="131"/>
      <point x="409" y="136" type="curve"/>
      <point x="382" y="163"/>
      <point x="241" y="298"/>
      <point x="230" y="308" type="curve"/>
      <point x="211" y="324"/>
      <point x="189" y="343"/>
      <point x="182" y="349" type="curve"/>
      <point x="164" y="374"/>
      <point x="144" y="362"/>
      <point x="144" y="333" type="curve"/>
      <point x="144" y="313"/>
      <point x="148" y="308"/>
      <point x="172" y="284" type="curve"/>
      <point x="210" y="246"/>
      <point x="349" y="112"/>
      <point x="388" y="87" type="curve"/>
      <point x="426" y="56"/>
      <point x="437" y="53"/>
    </contour>
    <contour>
      <point x="160" y="61" type="curve"/>
      <point x="170" y="58"/>
      <point x="177" y="57"/>
      <point x="191" y="71" type="curve"/>
      <point x="205" y="78"/>
      <point x="214" y="87"/>
      <point x="219" y="92" type="curve"/>
      <point x="246" y="119"/>
      <point x="381" y="260"/>
      <point x="391" y="271" type="curve"/>
      <point x="407" y="290"/>
      <point x="426" y="312"/>
      <point x="432" y="319" type="curve"/>
      <point x="457" y="337"/>
      <point x="445" y="357"/>
      <point x="416" y="357" type="curve"/>
      <point x="396" y="357"/>
      <point x="391" y="353"/>
      <point x="367" y="329" type="curve"/>
      <point x="329" y="291"/>
      <point x="195" y="152"/>
      <point x="170" y="113" type="curve"/>
      <point x="139" y="75"/>
      <point x="136" y="64"/>
    </contour>
  </outline>
</glyph>
<glyph name="Thorn" format="2">
  <advance width="472"/>
  <unicode hex="00DE"/>
  <outline>
    <contour>
      <point x="117" y="-64" type="curve"/>
      <point x="127" y="-72"/>
      <point x="138" y="-63"/>
      <point x="144" y="-27" type="curve"/>
      <point x="153" y="13"/>
      <point x="165" y="43"/>
      <point x="174" y="84" type="curve"/>
      <point x="195" y="141" type="line"/>
      <point x="229" y="136" type="line"/>
      <point x="242" y="136"/>
      <point x="258" y="136"/>
      <point x="265" y="142" type="curve"/>
      <point x="293" y="147"/>
      <point x="321" y="158"/>
      <point x="352" y="177" type="curve"/>
      <point x="360" y="181"/>
      <point x="378" y="202"/>
      <point x="378" y="187" type="curve"/>
      <point x="388" y="203"/>
      <point x="409" y="215"/>
      <point x="425" y="225" type="curve"/>
      <point x="442" y="234"/>
      <point x="452" y="257"/>
      <point x="452" y="257" type="curve"/>
      <point x="466" y="261"/>
      <point x="509" y="308"/>
      <point x="499" y="307" type="curve"/>
      <point x="523" y="326"/>
      <point x="559" y="433"/>
      <point x="555" y="466" type="curve"/>
      <point x="551" y="497"/>
      <point x="526" y="535"/>
      <point x="478" y="558" type="curve"/>
      <point x="460" y="562"/>
      <point x="425" y="565"/>
      <point x="406" y="565" type="curve"/>
      <point x="406" y="565"/>
      <point x="391" y="562"/>
      <point x="373" y="559" type="curve"/>
      <point x="406" y="629"/>
      <point x="412" y="636"/>
      <point x="412" y="661" type="curve"/>
      <point x="412" y="677"/>
      <point x="412" y="688"/>
      <point x="401" y="698" type="curve"/>
      <point x="385" y="714" type="line"/>
      <point x="380" y="714"/>
      <point x="373" y="713"/>
      <point x="369" y="709" type="curve"/>
      <point x="358" y="709"/>
      <point x="346" y="704"/>
      <point x="346" y="693" type="curve"/>
      <point x="346" y="683"/>
      <point x="320" y="610"/>
      <point x="294" y="542" type="curve"/>
      <point x="292" y="541"/>
      <point x="291" y="539"/>
      <point x="290" y="537" type="curve"/>
      <point x="285" y="527"/>
      <point x="281" y="520"/>
      <point x="276" y="520" type="curve"/>
      <point x="259" y="519"/>
      <point x="254" y="510"/>
      <point x="260" y="493" type="curve"/>
      <point x="265" y="490"/>
      <point x="263" y="485"/>
      <point x="258" y="465" type="curve"/>
      <point x="247" y="457"/>
      <point x="247" y="439"/>
      <point x="247" y="439" type="curve"/>
      <point x="234" y="421"/>
      <point x="234" y="414"/>
      <point x="234" y="414" type="curve"/>
      <point x="230" y="414"/>
      <point x="197" y="342"/>
      <point x="197" y="327" type="curve"/>
      <point x="184" y="316"/>
      <point x="170" y="274"/>
      <point x="168" y="257" type="curve"/>
      <point x="163" y="251"/>
      <point x="153" y="222"/>
      <point x="152" y="216" type="curve"/>
      <point x="148" y="225"/>
      <point x="91" y="24"/>
      <point x="88" y="15" type="curve"/>
      <point x="75" y="-34"/>
      <point x="75" y="-34"/>
      <point x="78" y="-39" type="curve"/>
      <point x="79" y="-57"/>
      <point x="106" y="-59"/>
    </contour>
    <contour>
      <point x="218" y="194" type="curve"/>
      <point x="211" y="217"/>
      <point x="327" y="480"/>
      <point x="349" y="489" type="curve"/>
      <point x="388" y="511"/>
      <point x="453" y="523"/>
      <point x="479" y="486" type="curve"/>
      <point x="490" y="465"/>
      <point x="484" y="396"/>
      <point x="453" y="352" type="curve"/>
      <point x="431" y="322"/>
      <point x="390" y="275"/>
      <point x="375" y="260" type="curve"/>
      <point x="334" y="221"/>
      <point x="292" y="193"/>
    </contour>
  </outline>
</glyph>
<glyph name="divide" format="2">
  <advance width="446"/>
  <unicode hex="00F7"/>
  <outline>
    <contour>
      <point x="178" y="178" type="curve"/>
      <point x="216" y="178"/>
      <point x="371" y="182"/>
      <point x="386" y="183" type="curve"/>
      <point x="410" y="185"/>
      <point x="439" y="187"/>
      <point x="449" y="188" type="curve"/>
      <point x="479" y="183"/>
      <point x="485" y="206"/>
      <point x="465" y="226" type="curve"/>
      <point x="450" y="240"/>
      <point x="444" y="241"/>
      <point x="410" y="241" type="curve"/>
      <point x="356" y="241"/>
      <point x="203" y="237"/>
      <point x="158" y="227" type="curve"/>
      <point x="109" y="222"/>
      <point x="99" y="217"/>
      <point x="114" y="197" type="curve"/>
      <point x="119" y="188"/>
      <point x="123" y="183"/>
      <point x="143" y="183" type="curve"/>
      <point x="158" y="178"/>
      <point x="170" y="178"/>
    </contour>
    <contour>
      <point x="218" y="8" type="curve"/>
      <point x="236" y="-7"/>
      <point x="252" y="-6"/>
      <point x="272" y="21" type="curve"/>
      <point x="296" y="50"/>
      <point x="301" y="61"/>
      <point x="289" y="87" type="curve"/>
      <point x="276" y="108"/>
      <point x="260" y="117"/>
      <point x="244" y="106" type="curve"/>
      <point x="239" y="105"/>
      <point x="234" y="99"/>
      <point x="234" y="94" type="curve"/>
      <point x="236" y="78"/>
      <point x="216" y="50"/>
      <point x="206" y="49" type="curve"/>
      <point x="200" y="49"/>
      <point x="208" y="17"/>
    </contour>
    <contour>
      <point x="308" y="328" type="curve"/>
      <point x="326" y="313"/>
      <point x="342" y="314"/>
      <point x="362" y="341" type="curve"/>
      <point x="386" y="370"/>
      <point x="391" y="381"/>
      <point x="379" y="407" type="curve"/>
      <point x="366" y="428"/>
      <point x="350" y="437"/>
      <point x="334" y="426" type="curve"/>
      <point x="329" y="425"/>
      <point x="324" y="419"/>
      <point x="324" y="414" type="curve"/>
      <point x="326" y="398"/>
      <point x="306" y="370"/>
      <point x="296" y="369" type="curve"/>
      <point x="290" y="369"/>
      <point x="298" y="337"/>
    </contour>
  </outline>
</glyph>
<glyph name="Eng" format="2">
  <advance width="566"/>
  <unicode hex="014A"/>
  <outline>
    <contour>
      <point x="357" y="-156" type="curve"/>
      <point x="375" y="-143"/>
      <point x="414" y="-95"/>
      <point x="425" y="-71" type="curve"/>
      <point x="448" y="-32"/>
      <point x="460" y="2"/>
      <point x="460" y="6" type="curve"/>
      <point x="460" y="10"/>
      <point x="465" y="15"/>
      <point x="467" y="20" type="curve"/>
      <point x="472" y="28"/>
      <point x="492" y="78"/>
      <point x="500" y="92" type="curve"/>
      <point x="502" y="100"/>
      <point x="503" y="109"/>
      <point x="505" y="117" type="curve"/>
      <point x="509" y="122"/>
      <point x="514" y="130"/>
      <point x="516" y="136" type="curve"/>
      <point x="524" y="148"/>
      <point x="533" y="160"/>
      <point x="533" y="160" type="curve"/>
      <point x="533" y="160"/>
      <point x="543" y="178"/>
      <point x="547" y="196" type="curve"/>
      <point x="567" y="236" type="line"/>
      <point x="580" y="257"/>
      <point x="635" y="401"/>
      <point x="655" y="470" type="curve"/>
      <point x="689" y="568" type="line"/>
      <point x="692" y="587"/>
      <point x="692" y="587"/>
      <point x="684" y="604" type="curve"/>
      <point x="667" y="620"/>
      <point x="657" y="630"/>
      <point x="650" y="630" type="curve" smooth="yes"/>
      <point x="640" y="630"/>
      <point x="634" y="609"/>
      <point x="619" y="552" type="curve"/>
      <point x="612" y="532"/>
      <point x="603" y="507"/>
      <point x="605" y="495" type="curve"/>
      <point x="597" y="482"/>
      <point x="594" y="462"/>
      <point x="588" y="456" type="curve"/>
      <point x="588" y="443"/>
      <point x="547" y="340"/>
      <point x="544" y="334" type="curve"/>
      <point x="539" y="321"/>
      <point x="527" y="305"/>
      <point x="523" y="284" type="curve"/>
      <point x="512" y="262"/>
      <point x="484" y="201"/>
      <point x="475" y="193" type="curve"/>
      <point x="475" y="193"/>
      <point x="468" y="171"/>
      <point x="455" y="159" type="curve"/>
      <point x="445" y="144"/>
      <point x="433" y="131"/>
      <point x="433" y="131" type="curve"/>
      <point x="429" y="131"/>
      <point x="431" y="141"/>
      <point x="423" y="154" type="curve"/>
      <point x="423" y="166"/>
      <point x="413" y="193"/>
      <point x="416" y="197" type="curve"/>
      <point x="416" y="203"/>
      <point x="409" y="296"/>
      <point x="405" y="390" type="curve"/>
      <point x="401" y="572"/>
      <point x="401" y="578"/>
      <point x="387" y="602" type="curve"/>
      <point x="374" y="623"/>
      <point x="365" y="634"/>
      <point x="348" y="631" type="curve"/>
      <point x="340" y="631"/>
      <point x="335" y="624"/>
      <point x="336" y="617" type="curve"/>
      <point x="333" y="614"/>
      <point x="329" y="607"/>
      <point x="323" y="606" type="curve"/>
      <point x="317" y="604"/>
      <point x="309" y="596"/>
      <point x="303" y="595" type="curve"/>
      <point x="303" y="590"/>
      <point x="270" y="503"/>
      <point x="229" y="407" type="curve"/>
      <point x="167" y="252"/>
      <point x="105" y="66"/>
      <point x="96" y="14" type="curve"/>
      <point x="98" y="4"/>
      <point x="120" y="-26"/>
      <point x="138" y="-23" type="curve"/>
      <point x="149" y="-22"/>
      <point x="163" y="-1"/>
      <point x="161" y="16" type="curve"/>
      <point x="164" y="31"/>
      <point x="179" y="78"/>
      <point x="209" y="155" type="curve"/>
      <point x="226" y="206"/>
      <point x="331" y="489"/>
      <point x="337" y="490" type="curve"/>
      <point x="338" y="484"/>
      <point x="338" y="422"/>
      <point x="343" y="340" type="curve"/>
      <point x="347" y="236"/>
      <point x="352" y="196"/>
      <point x="361" y="153" type="curve"/>
      <point x="372" y="101"/>
      <point x="396" y="63"/>
      <point x="419" y="45" type="curve"/>
      <point x="397" y="-1"/>
      <point x="363" y="-76"/>
      <point x="346" y="-95" type="curve"/>
      <point x="329" y="-120"/>
      <point x="291" y="-118"/>
      <point x="276" y="-114" type="curve"/>
      <point x="252" y="-101"/>
      <point x="232" y="-113"/>
      <point x="243" y="-142" type="curve"/>
      <point x="272" y="-179"/>
      <point x="326" y="-182"/>
    </contour>
  </outline>
</glyph>
<glyph name="eng" format="2">
  <advance width="450"/>
  <unicode hex="014B"/>
  <outline>
    <contour>
      <point x="201" y="-158" type="curve"/>
      <point x="238" y="-190"/>
      <point x="292" y="-186"/>
      <point x="315" y="-156" type="curve"/>
      <point x="333" y="-143"/>
      <point x="364" y="-87"/>
      <point x="375" y="-63" type="curve"/>
      <point x="390" y="-24"/>
      <point x="394" y="17"/>
      <point x="394" y="21" type="curve"/>
      <point x="394" y="26"/>
      <point x="399" y="31"/>
      <point x="401" y="36" type="curve"/>
      <point x="404" y="41"/>
      <point x="410" y="64"/>
      <point x="416" y="84" type="curve"/>
      <point x="431" y="133" type="line"/>
      <point x="436" y="158"/>
      <point x="446" y="189"/>
      <point x="446" y="209" type="curve"/>
      <point x="456" y="240"/>
      <point x="451" y="282"/>
      <point x="441" y="282" type="curve"/>
      <point x="441" y="282"/>
      <point x="436" y="286"/>
      <point x="436" y="291" type="curve"/>
      <point x="436" y="311"/>
      <point x="395" y="328"/>
      <point x="380" y="316" type="curve"/>
      <point x="375" y="311"/>
      <point x="368" y="311"/>
      <point x="368" y="311" type="curve"/>
      <point x="368" y="311"/>
      <point x="364" y="311"/>
      <point x="359" y="306" type="curve"/>
      <point x="354" y="301"/>
      <point x="344" y="296"/>
      <point x="339" y="296" type="curve"/>
      <point x="334" y="296"/>
      <point x="313" y="277"/>
      <point x="283" y="255" type="curve"/>
      <point x="257" y="240"/>
      <point x="237" y="226"/>
      <point x="232" y="226" type="curve"/>
      <point x="232" y="226"/>
      <point x="237" y="240"/>
      <point x="247" y="260" type="curve"/>
      <point x="262" y="301"/>
      <point x="262" y="328"/>
      <point x="242" y="347" type="curve"/>
      <point x="232" y="362"/>
      <point x="216" y="367"/>
      <point x="211" y="357" type="curve"/>
      <point x="206" y="352"/>
      <point x="201" y="337"/>
      <point x="201" y="328" type="curve"/>
      <point x="201" y="311"/>
      <point x="196" y="291"/>
      <point x="191" y="282" type="curve"/>
      <point x="155" y="204"/>
      <point x="130" y="133"/>
      <point x="130" y="114" type="curve"/>
      <point x="130" y="97"/>
      <point x="145" y="82"/>
      <point x="160" y="78" type="curve"/>
      <point x="171" y="73"/>
      <point x="181" y="78"/>
      <point x="186" y="87" type="curve"/>
      <point x="206" y="107"/>
      <point x="262" y="158"/>
      <point x="288" y="179" type="curve"/>
      <point x="303" y="189"/>
      <point x="317" y="204"/>
      <point x="324" y="209" type="curve"/>
      <point x="334" y="221"/>
      <point x="349" y="230"/>
      <point x="368" y="240" type="curve"/>
      <point x="400" y="260"/>
      <point x="400" y="255"/>
      <point x="390" y="221" type="curve"/>
      <point x="382" y="191"/>
      <point x="375" y="160"/>
      <point x="370" y="134" type="curve"/>
      <point x="357" y="79" type="line"/>
      <point x="348" y="42"/>
      <point x="317" y="-72"/>
      <point x="296" y="-95" type="curve"/>
      <point x="287" y="-124"/>
      <point x="249" y="-126"/>
      <point x="234" y="-124" type="curve"/>
      <point x="204" y="-117"/>
      <point x="189" y="-129"/>
    </contour>
  </outline>
</glyph>
<glyph name="florin" format="2">
  <advance width="291"/>
  <unicode hex="0192"/>
  <outline>
    <contour>
      <point x="110" y="-206" type="curve"/>
      <point x="117" y="-199"/>
      <point x="118" y="-187"/>
      <point x="120" y="-169" type="curve"/>
      <point x="123" y="-140" type="line"/>
      <point x="123" y="-119"/>
      <point x="126" y="-94"/>
      <point x="127" y="-81" type="curve"/>
      <point x="128" y="-77"/>
      <point x="128" y="-72"/>
      <point x="128" y="-71" type="curve"/>
      <point x="128" y="-66"/>
      <point x="128" y="-57"/>
      <point x="134" y="-46" type="curve"/>
      <point x="134" y="-35"/>
      <point x="134" y="-20"/>
      <point x="142" y="-10" type="curve"/>
      <point x="142" y="7"/>
      <point x="179" y="201"/>
      <point x="185" y="218" type="curve"/>
      <point x="188" y="223"/>
      <point x="189" y="229"/>
      <point x="189" y="239" type="curve"/>
      <point x="189" y="243"/>
      <point x="193" y="251"/>
      <point x="199" y="251" type="curve"/>
      <point x="199" y="257"/>
      <point x="272" y="267"/>
      <point x="308" y="276" type="curve"/>
      <point x="336" y="281"/>
      <point x="370" y="292"/>
      <point x="372" y="298" type="curve"/>
      <point x="377" y="305"/>
      <point x="367" y="333"/>
      <point x="351" y="343" type="curve"/>
      <point x="331" y="348"/>
      <point x="331" y="348"/>
      <point x="312" y="343" type="curve"/>
      <point x="280" y="334"/>
      <point x="227" y="328"/>
      <point x="227" y="336" type="curve"/>
      <point x="227" y="340"/>
      <point x="246" y="390"/>
      <point x="246" y="390" type="curve"/>
      <point x="245" y="390" type="line"/>
      <point x="250" y="395"/>
      <point x="260" y="412"/>
      <point x="265" y="425" type="curve"/>
      <point x="275" y="443"/>
      <point x="279" y="457"/>
      <point x="279" y="457" type="curve"/>
      <point x="285" y="457"/>
      <point x="285" y="464"/>
      <point x="285" y="470" type="curve"/>
      <point x="285" y="473"/>
      <point x="293" y="487"/>
      <point x="303" y="501" type="curve"/>
      <point x="317" y="518"/>
      <point x="322" y="531"/>
      <point x="322" y="531" type="curve"/>
      <point x="322" y="540"/>
      <point x="393" y="598"/>
      <point x="402" y="603" type="curve"/>
      <point x="416" y="607"/>
      <point x="419" y="599"/>
      <point x="413" y="586" type="curve"/>
      <point x="407" y="577"/>
      <point x="406" y="565"/>
      <point x="406" y="561" type="curve"/>
      <point x="406" y="561"/>
      <point x="413" y="550"/>
      <point x="413" y="541" type="curve"/>
      <point x="413" y="521"/>
      <point x="420" y="512"/>
      <point x="436" y="517" type="curve"/>
      <point x="447" y="518"/>
      <point x="475" y="579"/>
      <point x="480" y="605" type="curve"/>
      <point x="480" y="624"/>
      <point x="480" y="624"/>
      <point x="462" y="644" type="curve"/>
      <point x="445" y="660"/>
      <point x="442" y="665"/>
      <point x="417" y="665" type="curve"/>
      <point x="389" y="665"/>
      <point x="377" y="661"/>
      <point x="348" y="646" type="curve"/>
      <point x="324" y="626"/>
      <point x="265" y="569"/>
      <point x="255" y="543" type="curve"/>
      <point x="244" y="530"/>
      <point x="234" y="502"/>
      <point x="226" y="480" type="curve"/>
      <point x="207" y="447"/>
      <point x="193" y="407"/>
      <point x="166" y="331" type="curve"/>
      <point x="161" y="322"/>
      <point x="152" y="305"/>
      <point x="151" y="298" type="curve"/>
      <point x="142" y="293"/>
      <point x="137" y="283"/>
      <point x="137" y="272" type="curve"/>
      <point x="137" y="260"/>
      <point x="128" y="222"/>
      <point x="118" y="189" type="curve"/>
      <point x="114" y="159"/>
      <point x="109" y="140"/>
      <point x="106" y="128" type="curve"/>
      <point x="105" y="124"/>
      <point x="103" y="117"/>
      <point x="103" y="116" type="curve"/>
      <point x="97" y="90"/>
      <point x="72" y="-85"/>
      <point x="72" y="-96" type="curve"/>
      <point x="72" y="-101"/>
      <point x="72" y="-116"/>
      <point x="67" y="-131" type="curve"/>
      <point x="63" y="-165"/>
      <point x="65" y="-171"/>
      <point x="75" y="-182" type="curve"/>
      <point x="94" y="-204"/>
      <point x="102" y="-211"/>
    </contour>
  </outline>
</glyph>
<glyph name="caron" format="2">
  <advance width="353"/>
  <unicode hex="02C7"/>
  <anchor x="379" y="560" name="_top"/>
  <outline>
    <contour>
      <point x="361" y="448" type="curve"/>
      <point x="389" y="463"/>
      <point x="462" y="518"/>
      <point x="466" y="530" type="curve"/>
      <point x="473" y="548"/>
      <point x="467" y="584"/>
      <point x="420" y="548" type="curve"/>
      <point x="406" y="536"/>
      <point x="372" y="513"/>
      <point x="348" y="499" type="curve"/>
      <point x="327" y="517"/>
      <point x="301" y="537"/>
      <point x="292" y="550" type="curve"/>
      <point x="259" y="588"/>
      <point x="243" y="548"/>
      <point x="250" y="529" type="curve"/>
      <point x="254" y="523"/>
      <point x="306" y="471"/>
      <point x="331" y="450" type="curve"/>
      <point x="339" y="440"/>
      <point x="350" y="440"/>
    </contour>
  </outline>
</glyph>
<glyph name="ring" format="2">
  <advance width="353"/>
  <unicode hex="02DA"/>
  <anchor x="378" y="560" name="_top"/>
  <outline>
    <contour>
      <point x="363" y="412" type="curve"/>
      <point x="412" y="412"/>
      <point x="441" y="470"/>
      <point x="441" y="519" type="curve"/>
      <point x="441" y="558"/>
      <point x="408" y="577"/>
      <point x="365" y="577" type="curve"/>
      <point x="322" y="577"/>
      <point x="296" y="519"/>
      <point x="296" y="482" type="curve"/>
      <point x="300" y="443"/>
      <point x="318" y="412"/>
    </contour>
    <contour>
      <point x="359" y="452" type="curve"/>
      <point x="348" y="452"/>
      <point x="334" y="472"/>
      <point x="334" y="486" type="curve"/>
      <point x="334" y="520"/>
      <point x="346" y="536"/>
      <point x="372" y="536" type="curve"/>
      <point x="394" y="536"/>
      <point x="397" y="516"/>
      <point x="398" y="499" type="curve"/>
      <point x="399" y="467"/>
      <point x="383" y="452"/>
    </contour>
  </outline>
</glyph>
<glyph name="Dzhe-cy" format="2">
  <advance width="551"/>
  <unicode hex="040F"/>
  <outline>
    <contour>
      <point x="684" y="649" type="curve"/>
      <point x="676" y="650"/>
      <point x="670" y="655"/>
      <point x="664" y="658" type="curve"/>
      <point x="654" y="653"/>
      <point x="648" y="646"/>
      <point x="645" y="636" type="curve"/>
      <point x="607" y="528" type="line" smooth="yes"/>
      <point x="598" y="501"/>
      <point x="586" y="476"/>
      <point x="581" y="449" type="curve"/>
      <point x="570" y="432"/>
      <point x="567" y="413"/>
      <point x="562" y="395" type="curve"/>
      <point x="554" y="368"/>
      <point x="545" y="342"/>
      <point x="536" y="316" type="curve"/>
      <point x="514" y="268"/>
      <point x="519" y="272"/>
      <point x="500" y="216" type="curve"/>
      <point x="495" y="202"/>
      <point x="489" y="188"/>
      <point x="486" y="173" type="curve"/>
      <point x="479" y="132"/>
      <point x="459" y="93"/>
      <point x="452" y="52" type="curve"/>
      <point x="447" y="34"/>
      <point x="415" y="46"/>
      <point x="395" y="40" type="curve"/>
      <point x="313" y="34" type="line"/>
      <point x="290" y="27"/>
      <point x="227" y="26"/>
      <point x="204" y="40" type="curve"/>
      <point x="208" y="60"/>
      <point x="202" y="82"/>
      <point x="212" y="104" type="curve"/>
      <point x="196" y="99"/>
      <point x="259" y="296"/>
      <point x="259" y="297" type="curve"/>
      <point x="270" y="334"/>
      <point x="284" y="370"/>
      <point x="298" y="405" type="curve"/>
      <point x="314" y="446"/>
      <point x="294" y="398"/>
      <point x="365" y="561" type="curve"/>
      <point x="385" y="604"/>
      <point x="380" y="616"/>
      <point x="341" y="633" type="curve"/>
      <point x="333" y="636"/>
      <point x="321" y="632"/>
      <point x="319" y="625" type="curve"/>
      <point x="313" y="605"/>
      <point x="300" y="589"/>
      <point x="295" y="569" type="curve"/>
      <point x="291" y="559"/>
      <point x="286" y="548"/>
      <point x="281" y="538" type="curve"/>
      <point x="258" y="485"/>
      <point x="265" y="495"/>
      <point x="261" y="487" type="curve"/>
      <point x="253" y="471"/>
      <point x="247" y="453"/>
      <point x="240" y="436" type="curve"/>
      <point x="196" y="312" type="line"/>
      <point x="186" y="288"/>
      <point x="157" y="200"/>
      <point x="156" y="172" type="curve"/>
      <point x="149" y="162"/>
      <point x="153" y="149"/>
      <point x="150" y="139" type="curve"/>
      <point x="144" y="127"/>
      <point x="144" y="115"/>
      <point x="142" y="102" type="curve"/>
      <point x="142" y="91"/>
      <point x="137" y="69"/>
      <point x="136" y="34" type="curve"/>
      <point x="136" y="22"/>
      <point x="141" y="12"/>
      <point x="151" y="5" type="curve"/>
      <point x="164" y="-4"/>
      <point x="177" y="-13"/>
      <point x="195" y="-11" type="curve"/>
      <point x="201" y="-10"/>
      <point x="206" y="-12"/>
      <point x="211" y="-15" type="curve"/>
      <point x="227" y="-24"/>
      <point x="263" y="-16"/>
      <point x="285" y="-19" type="curve"/>
      <point x="285" y="-30"/>
      <point x="283" y="-52"/>
      <point x="278" y="-59" type="curve"/>
      <point x="273" y="-68"/>
      <point x="274" y="-79"/>
      <point x="267" y="-86" type="curve"/>
      <point x="258" y="-94"/>
      <point x="260" y="-105"/>
      <point x="257" y="-114" type="curve"/>
      <point x="253" y="-124"/>
      <point x="241" y="-133"/>
      <point x="246" y="-146" type="curve"/>
      <point x="251" y="-159"/>
      <point x="282" y="-177"/>
      <point x="297" y="-165" type="curve"/>
      <point x="323" y="-136"/>
      <point x="350" y="-61"/>
      <point x="349" y="-72" type="curve"/>
      <point x="363" y="-22" type="line"/>
      <point x="385" y="-13"/>
      <point x="422" y="-7"/>
      <point x="451" y="-10" type="curve"/>
      <point x="464" y="-12"/>
      <point x="478" y="-6"/>
      <point x="491" y="-4" type="curve"/>
      <point x="500" y="-2"/>
      <point x="507" y="6"/>
      <point x="508" y="16" type="curve"/>
      <point x="512" y="35"/>
      <point x="525" y="52"/>
      <point x="523" y="71" type="curve"/>
      <point x="532" y="84"/>
      <point x="534" y="98"/>
      <point x="537" y="112" type="curve"/>
      <point x="539" y="124"/>
      <point x="557" y="172"/>
      <point x="561" y="185" type="curve"/>
      <point x="566" y="197"/>
      <point x="566" y="209"/>
      <point x="571" y="220" type="curve"/>
      <point x="582" y="250"/>
      <point x="593" y="279"/>
      <point x="602" y="309" type="curve"/>
      <point x="612" y="341"/>
      <point x="657" y="473"/>
      <point x="667" y="502" type="curve"/>
      <point x="683" y="541"/>
      <point x="699" y="580"/>
      <point x="713" y="617" type="curve"/>
      <point x="709" y="635"/>
      <point x="700" y="645"/>
    </contour>
  </outline>
</glyph>
<glyph name="Be-cy" format="2">
  <advance width="509"/>
  <unicode hex="0411"/>
  <outline>
    <contour>
      <point x="200" y="-1" type="curve"/>
      <point x="211" y="0"/>
      <point x="221" y="-1"/>
      <point x="232" y="-1" type="curve"/>
      <point x="251" y="-1"/>
      <point x="270" y="-1"/>
      <point x="287" y="9" type="curve"/>
      <point x="286" y="9"/>
      <point x="331" y="20"/>
      <point x="330" y="20" type="curve"/>
      <point x="358" y="25"/>
      <point x="361" y="27"/>
      <point x="397" y="45" type="curve"/>
      <point x="428" y="60"/>
      <point x="457" y="76"/>
      <point x="479" y="103" type="curve"/>
      <point x="494" y="120"/>
      <point x="513" y="144"/>
      <point x="529" y="171" type="curve"/>
      <point x="538" y="187"/>
      <point x="547" y="236"/>
      <point x="547" y="247" type="curve"/>
      <point x="550" y="278"/>
      <point x="538" y="305"/>
      <point x="525" y="332" type="curve"/>
      <point x="511" y="359"/>
      <point x="488" y="375"/>
      <point x="458" y="394" type="curve"/>
      <point x="443" y="404"/>
      <point x="368" y="429"/>
      <point x="354" y="426" type="curve"/>
      <point x="343" y="424"/>
      <point x="332" y="432"/>
      <point x="321" y="432" type="curve"/>
      <point x="309" y="432"/>
      <point x="284" y="432"/>
      <point x="295" y="447" type="curve"/>
      <point x="294" y="445"/>
      <point x="350" y="569"/>
      <point x="359" y="585" type="curve"/>
      <point x="367" y="599"/>
      <point x="375" y="613"/>
      <point x="389" y="621" type="curve"/>
      <point x="461" y="630"/>
      <point x="604" y="641"/>
      <point x="614" y="638" type="curve"/>
      <point x="629" y="632"/>
      <point x="640" y="637"/>
      <point x="647" y="647" type="curve"/>
      <point x="652" y="648"/>
      <point x="643" y="660"/>
      <point x="639" y="671" type="curve"/>
      <point x="633" y="681"/>
      <point x="626" y="698"/>
      <point x="598" y="692" type="curve"/>
      <point x="593" y="690"/>
      <point x="493" y="683"/>
      <point x="496" y="683" type="curve"/>
      <point x="489" y="683"/>
      <point x="403" y="677"/>
      <point x="394" y="677" type="curve"/>
      <point x="384" y="672"/>
      <point x="371" y="670"/>
      <point x="359" y="674" type="curve"/>
      <point x="347" y="677"/>
      <point x="347" y="671"/>
      <point x="335" y="672" type="curve"/>
      <point x="319" y="674"/>
      <point x="303" y="672"/>
      <point x="288" y="672" type="curve"/>
      <point x="279" y="668"/>
      <point x="275" y="666"/>
      <point x="276" y="658" type="curve"/>
      <point x="276" y="642"/>
      <point x="288" y="619"/>
      <point x="302" y="612" type="curve"/>
      <point x="243" y="478" type="line"/>
      <point x="219" y="424"/>
      <point x="222" y="443"/>
      <point x="201" y="375" type="curve"/>
      <point x="193" y="355"/>
      <point x="182" y="335"/>
      <point x="177" y="315" type="curve"/>
      <point x="173" y="301"/>
      <point x="141" y="214"/>
      <point x="143" y="202" type="curve"/>
      <point x="137" y="190"/>
      <point x="139" y="176"/>
      <point x="133" y="164" type="curve"/>
      <point x="121" y="81" type="line"/>
      <point x="120" y="76"/>
      <point x="129" y="38"/>
      <point x="144" y="18" type="curve"/>
      <point x="153" y="9"/>
      <point x="186" y="-2"/>
    </contour>
    <contour>
      <point x="191" y="52" type="curve"/>
      <point x="177" y="64"/>
      <point x="186" y="130"/>
      <point x="195" y="164" type="curve"/>
      <point x="205" y="204"/>
      <point x="218" y="243"/>
      <point x="231" y="282" type="curve"/>
      <point x="243" y="317"/>
      <point x="260" y="358"/>
      <point x="274" y="391" type="curve"/>
      <point x="298" y="391"/>
      <point x="374" y="378"/>
      <point x="358" y="380" type="curve"/>
      <point x="370" y="379"/>
      <point x="411" y="374"/>
      <point x="428" y="360" type="curve"/>
      <point x="444" y="352"/>
      <point x="459" y="357"/>
      <point x="477" y="316" type="curve"/>
      <point x="481" y="291"/>
      <point x="489" y="275"/>
      <point x="484" y="254" type="curve"/>
      <point x="475" y="211"/>
      <point x="460" y="181"/>
      <point x="427" y="143" type="curve"/>
      <point x="379" y="89"/>
      <point x="320" y="75"/>
      <point x="254" y="57" type="curve"/>
      <point x="232" y="51"/>
      <point x="211" y="53"/>
    </contour>
  </outline>
</glyph>
<glyph name="Che-cy" format="2">
  <advance width="524"/>
  <unicode hex="0427"/>
  <outline>
    <contour>
      <point x="396" y="-75" type="curve"/>
      <point x="417" y="-86"/>
      <point x="441" y="-67"/>
      <point x="440" y="-55" type="curve"/>
      <point x="440" y="-37"/>
      <point x="451" y="-24"/>
      <point x="450" y="-7" type="curve"/>
      <point x="463" y="33"/>
      <point x="483" y="136"/>
      <point x="499" y="175" type="curve"/>
      <point x="527" y="252"/>
      <point x="542" y="300"/>
      <point x="559" y="337" type="curve"/>
      <point x="574" y="374"/>
      <point x="583" y="412"/>
      <point x="596" y="450" type="curve"/>
      <point x="613" y="504" type="line"/>
      <point x="649" y="584" type="line"/>
      <point x="656" y="607"/>
      <point x="650" y="616"/>
      <point x="641" y="626" type="curve"/>
      <point x="626" y="645"/>
      <point x="584" y="636"/>
      <point x="584" y="620" type="curve"/>
      <point x="586" y="598"/>
      <point x="564" y="564"/>
      <point x="557" y="524" type="curve"/>
      <point x="480" y="300" type="line"/>
      <point x="429" y="163" type="line"/>
      <point x="418" y="144"/>
      <point x="400" y="42"/>
      <point x="393" y="18" type="curve"/>
      <point x="377" y="-43"/>
      <point x="361" y="-61"/>
    </contour>
    <contour>
      <point x="291" y="204" type="curve"/>
      <point x="358" y="204"/>
      <point x="529" y="354"/>
      <point x="549" y="387" type="curve"/>
      <point x="531" y="428" type="line"/>
      <point x="485" y="377"/>
      <point x="360" y="267"/>
      <point x="285" y="267" type="curve"/>
      <point x="259" y="267"/>
      <point x="242" y="268"/>
      <point x="230" y="297" type="curve"/>
      <point x="220" y="318"/>
      <point x="241" y="356"/>
      <point x="244" y="373" type="curve"/>
      <point x="256" y="397"/>
      <point x="263" y="442"/>
      <point x="273" y="468" type="curve"/>
      <point x="307" y="552" type="line"/>
      <point x="322" y="581"/>
      <point x="345" y="637"/>
      <point x="362" y="667" type="curve"/>
      <point x="375" y="687"/>
      <point x="339" y="720"/>
      <point x="312" y="720" type="curve"/>
      <point x="305" y="720"/>
      <point x="302" y="719"/>
      <point x="301" y="712" type="curve"/>
      <point x="292" y="680"/>
      <point x="282" y="640"/>
      <point x="241" y="558" type="curve"/>
      <point x="237" y="550"/>
      <point x="202" y="442"/>
      <point x="199" y="430" type="curve"/>
      <point x="191" y="399"/>
      <point x="171" y="323"/>
      <point x="175" y="282" type="curve"/>
      <point x="182" y="236"/>
      <point x="229" y="201"/>
    </contour>
  </outline>
</glyph>
<glyph name="Ereversed-cy" format="2">
  <advance width="484"/>
  <unicode hex="042D"/>
  <outline>
    <contour>
      <point x="520" y="624" type="curve"/>
      <point x="471" y="679"/>
      <point x="444" y="670"/>
      <point x="384" y="689" type="curve"/>
      <point x="379" y="684"/>
      <point x="372" y="692"/>
      <point x="367" y="686" type="curve"/>
      <point x="362" y="681"/>
      <point x="342" y="678"/>
      <point x="340" y="677" type="curve"/>
      <point x="309" y="659"/>
      <point x="281" y="636"/>
      <point x="259" y="608" type="curve"/>
      <point x="241" y="587"/>
      <point x="256" y="580"/>
      <point x="259" y="558" type="curve"/>
      <point x="263" y="544"/>
      <point x="282" y="544"/>
      <point x="290" y="552" type="curve"/>
      <point x="296" y="560"/>
      <point x="304" y="564"/>
      <point x="314" y="566" type="curve"/>
      <point x="319" y="567"/>
      <point x="318" y="574"/>
      <point x="311" y="579" type="curve"/>
      <point x="330" y="597"/>
      <point x="377" y="636"/>
      <point x="404" y="624" type="curve"/>
      <point x="404" y="624"/>
      <point x="443" y="615"/>
      <point x="461" y="608" type="curve"/>
      <point x="483" y="599"/>
      <point x="490" y="567"/>
      <point x="490" y="547" type="curve"/>
      <point x="486" y="505"/>
      <point x="489" y="498"/>
      <point x="484" y="444" type="curve"/>
      <point x="486" y="417"/>
      <point x="475" y="392"/>
      <point x="471" y="366" type="curve"/>
      <point x="470" y="360"/>
      <point x="463" y="356"/>
      <point x="458" y="358" type="curve"/>
      <point x="426" y="369"/>
      <point x="383" y="361"/>
      <point x="341" y="357" type="curve"/>
      <point x="265" y="357" type="line"/>
      <point x="252" y="351"/>
      <point x="251" y="340"/>
      <point x="254" y="330" type="curve"/>
      <point x="258" y="313"/>
      <point x="263" y="296"/>
      <point x="280" y="289" type="curve"/>
      <point x="318" y="282"/>
      <point x="410" y="308"/>
      <point x="443" y="297" type="curve"/>
      <point x="443" y="281"/>
      <point x="432" y="268"/>
      <point x="421" y="245" type="curve"/>
      <point x="384" y="177"/>
      <point x="400" y="195"/>
      <point x="359" y="137" type="curve"/>
      <point x="337" y="106"/>
      <point x="277" y="41"/>
      <point x="227" y="39" type="curve"/>
      <point x="224" y="39"/>
      <point x="189" y="41"/>
      <point x="184" y="46" type="curve"/>
      <point x="162" y="55"/>
      <point x="137" y="78"/>
      <point x="137" y="100" type="curve"/>
      <point x="127" y="105"/>
      <point x="119" y="110"/>
      <point x="110" y="115" type="curve"/>
      <point x="104" y="113"/>
      <point x="83" y="87"/>
      <point x="87" y="80" type="curve"/>
      <point x="91" y="73"/>
      <point x="86" y="64"/>
      <point x="94" y="58" type="curve"/>
      <point x="93" y="58"/>
      <point x="142" y="10"/>
      <point x="143" y="10" type="curve"/>
      <point x="148" y="5"/>
      <point x="202" y="-20"/>
      <point x="225" y="-18" type="curve"/>
      <point x="240" y="-17"/>
      <point x="254" y="-16"/>
      <point x="269" y="-18" type="curve"/>
      <point x="285" y="-20"/>
      <point x="323" y="3"/>
      <point x="345" y="20" type="curve"/>
      <point x="396" y="61"/>
      <point x="446" y="131"/>
      <point x="475" y="195" type="curve"/>
      <point x="477" y="200"/>
      <point x="517" y="291"/>
      <point x="517" y="288" type="curve"/>
      <point x="521" y="314"/>
      <point x="536" y="336"/>
      <point x="538" y="362" type="curve"/>
      <point x="545" y="375"/>
      <point x="550" y="467"/>
      <point x="552" y="474" type="curve"/>
      <point x="560" y="518"/>
      <point x="549" y="593"/>
    </contour>
  </outline>
</glyph>
<glyph name="Ia-cy" format="2">
  <advance width="548"/>
  <unicode hex="042F"/>
  <outline>
    <contour>
      <point x="601" y="428" type="curve"/>
      <point x="634" y="526"/>
      <point x="644" y="550"/>
      <point x="684" y="648" type="curve"/>
      <point x="679" y="677"/>
      <point x="651" y="686"/>
      <point x="636" y="694" type="curve"/>
      <point x="617" y="678" type="line"/>
      <point x="604" y="686"/>
      <point x="611" y="686"/>
      <point x="588" y="695" type="curve"/>
      <point x="584" y="695"/>
      <point x="492" y="689"/>
      <point x="492" y="688" type="curve"/>
      <point x="433" y="666"/>
      <point x="372" y="652"/>
      <point x="324" y="602" type="curve"/>
      <point x="294" y="566"/>
      <point x="275" y="564"/>
      <point x="255" y="509" type="curve"/>
      <point x="235" y="462"/>
      <point x="216" y="368"/>
      <point x="275" y="302" type="curve"/>
      <point x="288" y="287"/>
      <point x="327" y="269"/>
      <point x="357" y="261" type="curve"/>
      <point x="325" y="219"/>
      <point x="329" y="226"/>
      <point x="287" y="184" type="curve"/>
      <point x="235" y="132" type="line" smooth="yes"/>
      <point x="222" y="119"/>
      <point x="130" y="37"/>
      <point x="109" y="24" type="curve"/>
      <point x="103" y="20"/>
      <point x="98" y="13"/>
      <point x="94" y="8" type="curve"/>
      <point x="101" y="-17"/>
      <point x="100" y="-17"/>
      <point x="126" y="-37" type="curve"/>
      <point x="147" y="-33"/>
      <point x="164" y="-25"/>
      <point x="177" y="-11" type="curve"/>
      <point x="210" y="21"/>
      <point x="365" y="164"/>
      <point x="379" y="185" type="curve"/>
      <point x="396" y="214"/>
      <point x="430" y="246"/>
      <point x="452" y="284" type="curve"/>
      <point x="458" y="286"/>
      <point x="473" y="293"/>
      <point x="485" y="301" type="curve"/>
      <point x="488" y="303"/>
      <point x="492" y="304"/>
      <point x="495" y="300" type="curve"/>
      <point x="493" y="294"/>
      <point x="471" y="201"/>
      <point x="467" y="199" type="curve"/>
      <point x="455" y="144" type="line" smooth="yes"/>
      <point x="453" y="136"/>
      <point x="445" y="128"/>
      <point x="439" y="125" type="curve"/>
      <point x="441" y="94"/>
      <point x="427" y="38"/>
      <point x="427" y="40" type="curve"/>
      <point x="427" y="26"/>
      <point x="417" y="-11"/>
      <point x="415" y="-40" type="curve"/>
      <point x="426" y="-50"/>
      <point x="437" y="-61"/>
      <point x="446" y="-70" type="curve"/>
      <point x="469" y="-70"/>
      <point x="485" y="-75"/>
      <point x="485" y="-44" type="curve"/>
      <point x="483" y="-36"/>
      <point x="490" y="-20"/>
      <point x="494" y="-11" type="curve"/>
      <point x="487" y="-3"/>
      <point x="495" y="5"/>
      <point x="495" y="13" type="curve"/>
      <point x="497" y="32"/>
      <point x="525" y="159"/>
      <point x="531" y="182" type="curve"/>
      <point x="538" y="205"/>
      <point x="556" y="262"/>
      <point x="553" y="281" type="curve"/>
      <point x="557" y="289"/>
      <point x="565" y="294"/>
      <point x="565" y="304" type="curve"/>
      <point x="564" y="317"/>
      <point x="610" y="449"/>
    </contour>
    <contour>
      <point x="518" y="376" type="curve"/>
      <point x="516" y="369"/>
      <point x="514" y="363"/>
      <point x="509" y="350" type="curve"/>
      <point x="494" y="364"/>
      <point x="473" y="364"/>
      <point x="456" y="355" type="curve"/>
      <point x="425" y="335"/>
      <point x="393" y="328"/>
      <point x="362" y="318" type="curve"/>
      <point x="342" y="312"/>
      <point x="316" y="320"/>
      <point x="313" y="330" type="curve"/>
      <point x="307" y="352"/>
      <point x="295" y="363"/>
      <point x="295" y="398" type="curve"/>
      <point x="293" y="428"/>
      <point x="302" y="454"/>
      <point x="313" y="481" type="curve"/>
      <point x="347" y="561"/>
      <point x="451" y="619"/>
      <point x="526" y="633" type="curve"/>
      <point x="557" y="639"/>
      <point x="594" y="644"/>
      <point x="604" y="629" type="curve"/>
      <point x="585" y="562"/>
      <point x="577" y="553"/>
      <point x="567" y="517" type="curve"/>
      <point x="572" y="536"/>
      <point x="525" y="396"/>
    </contour>
  </outline>
</glyph>
<glyph name="be-cy" format="2">
  <advance width="308"/>
  <unicode hex="0431"/>
  <outline>
    <contour>
      <point x="168" y="5" type="curve"/>
      <point x="186" y="10"/>
      <point x="199" y="11"/>
      <point x="208" y="17" type="curve"/>
      <point x="257" y="50"/>
      <point x="285" y="99"/>
      <point x="316" y="162" type="curve"/>
      <point x="329" y="188"/>
      <point x="326" y="217"/>
      <point x="329" y="226" type="curve"/>
      <point x="337" y="241"/>
      <point x="337" y="272"/>
      <point x="330" y="303" type="curve"/>
      <point x="338" y="312"/>
      <point x="330" y="319"/>
      <point x="328" y="331" type="curve"/>
      <point x="328" y="378"/>
      <point x="316" y="412"/>
      <point x="311" y="461" type="curve"/>
      <point x="311" y="513"/>
      <point x="339" y="530"/>
      <point x="387" y="544" type="curve"/>
      <point x="404" y="540"/>
      <point x="420" y="546"/>
      <point x="435" y="546" type="curve"/>
      <point x="445" y="546"/>
      <point x="450" y="541"/>
      <point x="458" y="544" type="curve"/>
      <point x="467" y="547"/>
      <point x="477" y="545"/>
      <point x="485" y="545" type="curve"/>
      <point x="534" y="550"/>
      <point x="548" y="566"/>
      <point x="549" y="604" type="curve"/>
      <point x="522" y="627" type="line"/>
      <point x="517" y="629"/>
      <point x="515" y="628"/>
      <point x="509" y="624" type="curve"/>
      <point x="483" y="609"/>
      <point x="477" y="609"/>
      <point x="466" y="607" type="curve"/>
      <point x="450" y="605"/>
      <point x="395" y="603"/>
      <point x="398" y="605" type="curve"/>
      <point x="370" y="607"/>
      <point x="324" y="595"/>
      <point x="301" y="575" type="curve"/>
      <point x="287" y="562"/>
      <point x="268" y="531"/>
      <point x="267" y="527" type="curve"/>
      <point x="260" y="491"/>
      <point x="259" y="452"/>
      <point x="264" y="373" type="curve"/>
      <point x="271" y="363"/>
      <point x="276" y="325"/>
      <point x="268" y="318" type="curve"/>
      <point x="279" y="309"/>
      <point x="271" y="298"/>
      <point x="273" y="292" type="curve"/>
      <point x="279" y="275"/>
      <point x="265" y="202"/>
      <point x="246" y="168" type="curve"/>
      <point x="228" y="134"/>
      <point x="230" y="115"/>
      <point x="190" y="82" type="curve"/>
      <point x="176" y="69"/>
      <point x="171" y="72"/>
      <point x="160" y="77" type="curve"/>
      <point x="160" y="98"/>
      <point x="156" y="118"/>
      <point x="165" y="139" type="curve"/>
      <point x="168" y="149"/>
      <point x="171" y="158"/>
      <point x="171" y="168" type="curve"/>
      <point x="172" y="181"/>
      <point x="186" y="186"/>
      <point x="186" y="198" type="curve"/>
      <point x="200" y="224"/>
      <point x="211" y="252"/>
      <point x="234" y="273" type="curve"/>
      <point x="239" y="280"/>
      <point x="242" y="289"/>
      <point x="245" y="298" type="curve"/>
      <point x="249" y="310"/>
      <point x="247" y="316"/>
      <point x="242" y="322" type="curve"/>
      <point x="219" y="339" type="line"/>
      <point x="211" y="336"/>
      <point x="204" y="329"/>
      <point x="196" y="323" type="curve"/>
      <point x="156" y="278"/>
      <point x="141" y="250"/>
      <point x="117" y="203" type="curve"/>
      <point x="112" y="192"/>
      <point x="105" y="182"/>
      <point x="106" y="172" type="curve"/>
      <point x="107" y="157"/>
      <point x="72" y="80"/>
      <point x="128" y="29" type="curve"/>
      <point x="138" y="20"/>
      <point x="154" y="13"/>
    </contour>
  </outline>
</glyph>
<glyph name="em-cy" format="2">
  <advance width="522"/>
  <unicode hex="043C"/>
  <outline>
    <contour>
      <point x="498" y="3" type="curve"/>
      <point x="521" y="8"/>
      <point x="524" y="13"/>
      <point x="514" y="55" type="curve"/>
      <point x="508" y="85"/>
      <point x="511" y="114"/>
      <point x="513" y="141" type="curve"/>
      <point x="515" y="175"/>
      <point x="541" y="283"/>
      <point x="553" y="310" type="curve"/>
      <point x="558" y="318"/>
      <point x="556" y="327"/>
      <point x="550" y="335" type="curve"/>
      <point x="535" y="350"/>
      <point x="533" y="351"/>
      <point x="510" y="363" type="curve"/>
      <point x="503" y="367"/>
      <point x="495" y="366"/>
      <point x="492" y="360" type="curve"/>
      <point x="485" y="350"/>
      <point x="397" y="268"/>
      <point x="355" y="215" type="curve"/>
      <point x="336" y="195"/>
      <point x="328" y="207"/>
      <point x="328" y="224" type="curve"/>
      <point x="333" y="239"/>
      <point x="323" y="257"/>
      <point x="327" y="273" type="curve"/>
      <point x="318" y="304"/>
      <point x="318" y="314"/>
      <point x="320" y="328" type="curve"/>
      <point x="305" y="339"/>
      <point x="292" y="349"/>
      <point x="281" y="358" type="curve"/>
      <point x="262" y="361"/>
      <point x="254" y="355"/>
      <point x="251" y="343" type="curve"/>
      <point x="247" y="335"/>
      <point x="244" y="327"/>
      <point x="238" y="323" type="curve"/>
      <point x="229" y="318"/>
      <point x="197" y="276"/>
      <point x="195" y="271" type="curve"/>
      <point x="185" y="258"/>
      <point x="175" y="246"/>
      <point x="168" y="233" type="curve"/>
      <point x="164" y="226"/>
      <point x="137" y="190"/>
      <point x="79" y="103" type="curve"/>
      <point x="76" y="96"/>
      <point x="74" y="96"/>
      <point x="63" y="90" type="curve"/>
      <point x="64" y="77"/>
      <point x="68" y="67"/>
      <point x="73" y="58" type="curve"/>
      <point x="81" y="52"/>
      <point x="93" y="45"/>
      <point x="104" y="39" type="curve"/>
      <point x="111" y="32"/>
      <point x="119" y="37"/>
      <point x="126" y="53" type="curve"/>
      <point x="131" y="66"/>
      <point x="137" y="78"/>
      <point x="146" y="89" type="curve"/>
      <point x="142" y="87"/>
      <point x="247" y="241"/>
      <point x="243" y="237" type="curve"/>
      <point x="251" y="250"/>
      <point x="253" y="251"/>
      <point x="268" y="252" type="curve"/>
      <point x="276" y="232"/>
      <point x="271" y="151"/>
      <point x="272" y="121" type="curve"/>
      <point x="269" y="109"/>
      <point x="274" y="98"/>
      <point x="288" y="85" type="curve"/>
      <point x="302" y="71"/>
      <point x="302" y="73"/>
      <point x="320" y="66" type="curve"/>
      <point x="326" y="71"/>
      <point x="334" y="76"/>
      <point x="337" y="86" type="curve"/>
      <point x="345" y="109"/>
      <point x="362" y="125"/>
      <point x="368" y="136" type="curve"/>
      <point x="404" y="184" type="line"/>
      <point x="404" y="193"/>
      <point x="413" y="197"/>
      <point x="418" y="202" type="curve"/>
      <point x="431" y="217"/>
      <point x="442" y="230"/>
      <point x="456" y="243" type="curve"/>
      <point x="461" y="248"/>
      <point x="464" y="246"/>
      <point x="468" y="241" type="curve"/>
      <point x="463" y="221"/>
      <point x="448" y="148"/>
      <point x="452" y="117" type="curve"/>
      <point x="447" y="107"/>
      <point x="455" y="94"/>
      <point x="454" y="83" type="curve"/>
      <point x="452" y="64"/>
      <point x="461" y="45"/>
      <point x="466" y="26" type="curve"/>
      <point x="482" y="17"/>
      <point x="485" y="10"/>
    </contour>
  </outline>
</glyph>
<glyph name="iu-cy" format="2">
  <advance width="527"/>
  <unicode hex="044E"/>
  <outline>
    <contour>
      <point x="120" y="4" type="curve"/>
      <point x="132" y="0"/>
      <point x="139" y="4"/>
      <point x="147" y="9" type="curve"/>
      <point x="152" y="12"/>
      <point x="160" y="33"/>
      <point x="160" y="40" type="curve"/>
      <point x="162" y="52"/>
      <point x="178" y="100"/>
      <point x="179" y="108" type="curve"/>
      <point x="180" y="118"/>
      <point x="184" y="128"/>
      <point x="191" y="135" type="curve"/>
      <point x="195" y="140"/>
      <point x="211" y="148"/>
      <point x="224" y="152" type="curve"/>
      <point x="236" y="155"/>
      <point x="260" y="159"/>
      <point x="277" y="168" type="curve"/>
      <point x="286" y="167"/>
      <point x="288" y="177"/>
      <point x="305" y="171" type="curve"/>
      <point x="305" y="114" type="line" smooth="yes"/>
      <point x="305" y="104"/>
      <point x="310" y="94"/>
      <point x="307" y="83" type="curve"/>
      <point x="314" y="73"/>
      <point x="317" y="66"/>
      <point x="317" y="56" type="curve"/>
      <point x="340" y="33"/>
      <point x="323" y="36"/>
      <point x="366" y="14" type="curve"/>
      <point x="408" y="14"/>
      <point x="424" y="12"/>
      <point x="459" y="37" type="curve"/>
      <point x="475" y="47"/>
      <point x="491" y="61"/>
      <point x="506" y="78" type="curve"/>
      <point x="511" y="81"/>
      <point x="515" y="82"/>
      <point x="516" y="85" type="curve"/>
      <point x="522" y="105"/>
      <point x="538" y="118"/>
      <point x="542" y="138" type="curve"/>
      <point x="544" y="148"/>
      <point x="561" y="184"/>
      <point x="558" y="194" type="curve"/>
      <point x="556" y="212"/>
      <point x="563" y="229"/>
      <point x="554" y="245" type="curve"/>
      <point x="550" y="253"/>
      <point x="557" y="260"/>
      <point x="557" y="267" type="curve"/>
      <point x="552" y="277"/>
      <point x="548" y="288"/>
      <point x="543" y="297" type="curve"/>
      <point x="569" y="320" type="line"/>
      <point x="571" y="323"/>
      <point x="571" y="330"/>
      <point x="568" y="334" type="curve"/>
      <point x="553" y="354"/>
      <point x="535" y="355"/>
      <point x="500" y="351" type="curve"/>
      <point x="487" y="363"/>
      <point x="475" y="374"/>
      <point x="464" y="385" type="curve"/>
      <point x="448" y="385"/>
      <point x="429" y="381"/>
      <point x="415" y="367" type="curve"/>
      <point x="400" y="357"/>
      <point x="390" y="348"/>
      <point x="377" y="330" type="curve"/>
      <point x="357" y="303"/>
      <point x="336" y="258"/>
      <point x="316" y="220" type="curve"/>
      <point x="307" y="222"/>
      <point x="298" y="227"/>
      <point x="292" y="226" type="curve"/>
      <point x="215" y="214" type="line"/>
      <point x="213" y="222"/>
      <point x="216" y="229"/>
      <point x="218" y="236" type="curve"/>
      <point x="226" y="264"/>
      <point x="232" y="294"/>
      <point x="242" y="323" type="curve"/>
      <point x="247" y="335"/>
      <point x="249" y="355"/>
      <point x="249" y="360" type="curve"/>
      <point x="228" y="383"/>
      <point x="231" y="380"/>
      <point x="204" y="389" type="curve"/>
      <point x="190" y="386"/>
      <point x="182" y="377"/>
      <point x="182" y="363" type="curve"/>
      <point x="182" y="352"/>
      <point x="177" y="343"/>
      <point x="178" y="333" type="curve"/>
      <point x="162" y="262"/>
      <point x="159" y="250"/>
      <point x="150" y="215" type="curve"/>
      <point x="145" y="195"/>
      <point x="137" y="184"/>
      <point x="121" y="175" type="curve"/>
      <point x="105" y="165"/>
      <point x="96" y="149"/>
      <point x="98" y="129" type="curve"/>
      <point x="99" y="108"/>
      <point x="98" y="87"/>
      <point x="98" y="66" type="curve"/>
      <point x="98" y="53"/>
      <point x="99" y="47"/>
      <point x="94" y="39" type="curve"/>
      <point x="98" y="26"/>
      <point x="107" y="16"/>
    </contour>
    <contour>
      <point x="403" y="77" type="curve"/>
      <point x="391" y="72"/>
      <point x="372" y="72"/>
      <point x="370" y="83" type="curve"/>
      <point x="368" y="97"/>
      <point x="363" y="105"/>
      <point x="363" y="133" type="curve"/>
      <point x="359" y="181"/>
      <point x="380" y="208"/>
      <point x="397" y="246" type="curve"/>
      <point x="419" y="292"/>
      <point x="441" y="304"/>
      <point x="461" y="330" type="curve"/>
      <point x="478" y="305"/>
      <point x="500" y="283"/>
      <point x="502" y="245" type="curve"/>
      <point x="502" y="199"/>
      <point x="503" y="197"/>
      <point x="481" y="154" type="curve"/>
      <point x="447" y="104"/>
      <point x="425" y="87"/>
    </contour>
  </outline>
</glyph>
<glyph name="ia-cy" format="2">
  <advance width="363"/>
  <unicode hex="044F"/>
  <outline>
    <contour>
      <point x="116" y="5" type="curve"/>
      <point x="129" y="5"/>
      <point x="143" y="11"/>
      <point x="157" y="21" type="curve"/>
      <point x="177" y="38"/>
      <point x="193" y="55"/>
      <point x="210" y="73" type="curve"/>
      <point x="227" y="90"/>
      <point x="238" y="111"/>
      <point x="253" y="127" type="curve"/>
      <point x="258" y="142"/>
      <point x="269" y="145"/>
      <point x="276" y="151" type="curve"/>
      <point x="288" y="149"/>
      <point x="298" y="147"/>
      <point x="306" y="146" type="curve"/>
      <point x="313" y="146" type="line"/>
      <point x="313" y="143"/>
      <point x="311" y="137"/>
      <point x="309" y="135" type="curve"/>
      <point x="299" y="115"/>
      <point x="292" y="93"/>
      <point x="282" y="72" type="curve"/>
      <point x="278" y="65"/>
      <point x="275" y="58"/>
      <point x="273" y="50" type="curve"/>
      <point x="270" y="39"/>
      <point x="277" y="32"/>
      <point x="280" y="23" type="curve"/>
      <point x="283" y="15"/>
      <point x="289" y="10"/>
      <point x="299" y="8" type="curve"/>
      <point x="316" y="8"/>
      <point x="307" y="-3"/>
      <point x="326" y="16" type="curve"/>
      <point x="332" y="28"/>
      <point x="335" y="52"/>
      <point x="341" y="65" type="curve"/>
      <point x="355" y="95"/>
      <point x="372" y="125"/>
      <point x="387" y="155" type="curve"/>
      <point x="391" y="161"/>
      <point x="392" y="166"/>
      <point x="391" y="172" type="curve"/>
      <point x="378" y="182"/>
      <point x="368" y="192"/>
      <point x="353" y="196" type="curve"/>
      <point x="352" y="196"/>
      <point x="322" y="200"/>
      <point x="308" y="203" type="curve"/>
      <point x="306" y="209" type="line"/>
      <point x="325" y="233"/>
      <point x="335" y="261"/>
      <point x="349" y="287" type="curve"/>
      <point x="364" y="313"/>
      <point x="369" y="341"/>
      <point x="376" y="369" type="curve"/>
      <point x="368" y="401"/>
      <point x="340" y="409"/>
      <point x="307" y="416" type="curve"/>
      <point x="304" y="417"/>
      <point x="299" y="416"/>
      <point x="294" y="417" type="curve"/>
      <point x="281" y="422"/>
      <point x="268" y="410"/>
      <point x="253" y="415" type="curve"/>
      <point x="239" y="415"/>
      <point x="194" y="388"/>
      <point x="173" y="360" type="curve"/>
      <point x="144" y="323"/>
      <point x="152" y="307"/>
      <point x="135" y="267" type="curve"/>
      <point x="137" y="264"/>
      <point x="140" y="226"/>
      <point x="153" y="205" type="curve"/>
      <point x="162" y="189"/>
      <point x="187" y="172"/>
      <point x="210" y="166" type="curve"/>
      <point x="180" y="121"/>
      <point x="153" y="82"/>
      <point x="104" y="60" type="curve"/>
      <point x="100" y="62"/>
      <point x="97" y="66"/>
      <point x="95" y="66" type="curve"/>
      <point x="79" y="75"/>
      <point x="70" y="59"/>
      <point x="67" y="49" type="curve"/>
      <point x="71" y="37"/>
      <point x="76" y="27"/>
      <point x="82" y="18" type="curve"/>
      <point x="89" y="10"/>
      <point x="100" y="5"/>
    </contour>
    <contour>
      <point x="236" y="213" type="curve"/>
      <point x="199" y="200"/>
      <point x="180" y="237"/>
      <point x="191" y="282" type="curve"/>
      <point x="205" y="331"/>
      <point x="238" y="362"/>
      <point x="287" y="376" type="curve"/>
      <point x="302" y="381"/>
      <point x="309" y="383"/>
      <point x="327" y="371" type="curve"/>
      <point x="326" y="367"/>
      <point x="297" y="289"/>
      <point x="298" y="294" type="curve"/>
      <point x="295" y="286"/>
      <point x="249" y="216"/>
    </contour>
  </outline>
</glyph>
<glyph name="Yat-cy" format="2">
  <advance width="497"/>
  <unicode hex="0462"/>
  <outline>
    <contour>
      <point x="263" y="528" type="curve"/>
      <point x="360" y="540"/>
      <point x="483" y="548"/>
      <point x="495" y="549" type="curve"/>
      <point x="518" y="551"/>
      <point x="544" y="555"/>
      <point x="554" y="557" type="curve"/>
      <point x="583" y="556"/>
      <point x="586" y="577"/>
      <point x="567" y="596" type="curve"/>
      <point x="554" y="609"/>
      <point x="545" y="606"/>
      <point x="514" y="604" type="curve"/>
      <point x="404" y="597"/>
      <point x="337" y="587"/>
      <point x="240" y="572" type="curve"/>
      <point x="195" y="564"/>
      <point x="188" y="558"/>
      <point x="201" y="539" type="curve"/>
      <point x="207" y="531"/>
      <point x="211" y="528"/>
      <point x="231" y="530" type="curve"/>
      <point x="244" y="526"/>
      <point x="255" y="527"/>
    </contour>
    <component base="Softsign-cy" xOffset="41"/>
  </outline>
</glyph>
<glyph name="Izhitsa-cy" format="2">
  <advance width="535"/>
  <unicode hex="0474"/>
  <outline>
    <contour>
      <point x="267" y="-9" type="curve"/>
      <point x="278" y="-10"/>
      <point x="288" y="-11"/>
      <point x="300" y="-9" type="curve"/>
      <point x="306" y="7"/>
      <point x="311" y="18"/>
      <point x="313" y="25" type="curve"/>
      <point x="319" y="46"/>
      <point x="335" y="92"/>
      <point x="357" y="149" type="curve"/>
      <point x="366" y="172"/>
      <point x="372" y="196"/>
      <point x="385" y="216" type="curve"/>
      <point x="399" y="259"/>
      <point x="426" y="295"/>
      <point x="440" y="338" type="curve"/>
      <point x="454" y="357"/>
      <point x="484" y="426"/>
      <point x="500" y="448" type="curve"/>
      <point x="505" y="468"/>
      <point x="554" y="548"/>
      <point x="565" y="567" type="curve"/>
      <point x="583" y="597"/>
      <point x="610" y="631"/>
      <point x="624" y="635" type="curve"/>
      <point x="654" y="646"/>
      <point x="663" y="646"/>
      <point x="700" y="646" type="curve"/>
      <point x="708" y="651"/>
      <point x="711" y="665"/>
      <point x="716" y="680" type="curve"/>
      <point x="713" y="688"/>
      <point x="705" y="689"/>
      <point x="701" y="695" type="curve"/>
      <point x="697" y="701"/>
      <point x="688" y="704"/>
      <point x="680" y="704" type="curve"/>
      <point x="641" y="702"/>
      <point x="659" y="709"/>
      <point x="603" y="693" type="curve"/>
      <point x="572" y="686"/>
      <point x="549" y="669"/>
      <point x="531" y="644" type="curve"/>
      <point x="524" y="634"/>
      <point x="473" y="553"/>
      <point x="464" y="526" type="curve"/>
      <point x="453" y="513"/>
      <point x="336" y="281"/>
      <point x="323" y="249" type="curve"/>
      <point x="319" y="240"/>
      <point x="291" y="147"/>
      <point x="290" y="140" type="curve"/>
      <point x="287" y="119"/>
      <point x="274" y="102"/>
      <point x="270" y="77" type="curve"/>
      <point x="268" y="90"/>
      <point x="268" y="98"/>
      <point x="265" y="105" type="curve"/>
      <point x="262" y="114"/>
      <point x="263" y="123"/>
      <point x="263" y="131" type="curve"/>
      <point x="261" y="148"/>
      <point x="266" y="259"/>
      <point x="260" y="284" type="curve"/>
      <point x="258" y="290"/>
      <point x="261" y="296"/>
      <point x="261" y="302" type="curve"/>
      <point x="264" y="338" type="line"/>
      <point x="264" y="381"/>
      <point x="264" y="424"/>
      <point x="265" y="467" type="curve"/>
      <point x="265" y="473"/>
      <point x="263" y="480"/>
      <point x="265" y="485" type="curve"/>
      <point x="271" y="503"/>
      <point x="269" y="522"/>
      <point x="270" y="540" type="curve"/>
      <point x="270" y="545"/>
      <point x="269" y="550"/>
      <point x="271" y="553" type="curve"/>
      <point x="278" y="565"/>
      <point x="273" y="605"/>
      <point x="279" y="623" type="curve"/>
      <point x="282" y="633"/>
      <point x="280" y="652"/>
      <point x="276" y="662" type="curve"/>
      <point x="272" y="673"/>
      <point x="257" y="680"/>
      <point x="237" y="679" type="curve"/>
      <point x="216" y="678"/>
      <point x="207" y="650"/>
      <point x="212" y="637" type="curve"/>
      <point x="215" y="629"/>
      <point x="211" y="622"/>
      <point x="211" y="615" type="curve"/>
      <point x="211" y="591"/>
      <point x="203" y="568"/>
      <point x="205" y="545" type="curve"/>
      <point x="206" y="542"/>
      <point x="205" y="539"/>
      <point x="204" y="537" type="curve"/>
      <point x="200" y="530"/>
      <point x="199" y="481"/>
      <point x="199" y="478" type="curve"/>
      <point x="194" y="472"/>
      <point x="196" y="464"/>
      <point x="196" y="458" type="curve"/>
      <point x="196" y="459"/>
      <point x="195" y="336"/>
      <point x="194" y="334" type="curve"/>
      <point x="192" y="325"/>
      <point x="198" y="308"/>
      <point x="193" y="298" type="curve"/>
      <point x="189" y="288"/>
      <point x="189" y="277"/>
      <point x="192" y="267" type="curve"/>
      <point x="194" y="261"/>
      <point x="189" y="256"/>
      <point x="192" y="250" type="curve"/>
      <point x="198" y="237"/>
      <point x="192" y="171"/>
      <point x="200" y="146" type="curve"/>
      <point x="203" y="134"/>
      <point x="202" y="121"/>
      <point x="201" y="109" type="curve"/>
      <point x="200" y="96"/>
      <point x="207" y="85"/>
      <point x="206" y="73" type="curve"/>
      <point x="205" y="57"/>
      <point x="213" y="43"/>
      <point x="217" y="28" type="curve"/>
      <point x="220" y="15"/>
      <point x="237" y="13"/>
      <point x="240" y="9" type="curve"/>
      <point x="250" y="-3"/>
      <point x="262" y="-9"/>
    </contour>
  </outline>
</glyph>
<glyph name="izhitsa-cy" format="2">
  <advance width="357"/>
  <unicode hex="0475"/>
  <outline>
    <contour>
      <point x="193" y="7" type="curve"/>
      <point x="196" y="8"/>
      <point x="201" y="7"/>
      <point x="203" y="7" type="curve"/>
      <point x="216" y="5"/>
      <point x="222" y="16"/>
      <point x="231" y="30" type="curve"/>
      <point x="241" y="48"/>
      <point x="253" y="65"/>
      <point x="263" y="86" type="curve"/>
      <point x="271" y="102"/>
      <point x="282" y="118"/>
      <point x="289" y="137" type="curve"/>
      <point x="292" y="143"/>
      <point x="298" y="147"/>
      <point x="302" y="153" type="curve"/>
      <point x="304" y="158"/>
      <point x="303" y="166"/>
      <point x="308" y="173" type="curve"/>
      <point x="317" y="188"/>
      <point x="332" y="228"/>
      <point x="347" y="246" type="curve"/>
      <point x="356" y="257"/>
      <point x="361" y="271"/>
      <point x="378" y="279" type="curve"/>
      <point x="392" y="286"/>
      <point x="407" y="289"/>
      <point x="422" y="281" type="curve"/>
      <point x="433" y="275"/>
      <point x="441" y="275"/>
      <point x="450" y="286" type="curve"/>
      <point x="453" y="295"/>
      <point x="452" y="310"/>
      <point x="449" y="319" type="curve"/>
      <point x="434" y="333"/>
      <point x="416" y="338"/>
      <point x="387" y="341" type="curve"/>
      <point x="371" y="343"/>
      <point x="358" y="336"/>
      <point x="342" y="331" type="curve"/>
      <point x="328" y="327"/>
      <point x="300" y="294"/>
      <point x="281" y="258" type="curve"/>
      <point x="245" y="185"/>
      <point x="231" y="161"/>
      <point x="196" y="82" type="curve"/>
      <point x="184" y="95"/>
      <point x="171" y="143"/>
      <point x="171" y="165" type="curve"/>
      <point x="171" y="223" type="line"/>
      <point x="174" y="255"/>
      <point x="178" y="279"/>
      <point x="181" y="303" type="curve"/>
      <point x="184" y="321"/>
      <point x="181" y="339"/>
      <point x="182" y="349" type="curve"/>
      <point x="178" y="359"/>
      <point x="174" y="367"/>
      <point x="147" y="372" type="curve"/>
      <point x="138" y="375"/>
      <point x="131" y="371"/>
      <point x="123" y="363" type="curve"/>
      <point x="119" y="359"/>
      <point x="120" y="296"/>
      <point x="119" y="293" type="curve"/>
      <point x="113" y="285"/>
      <point x="116" y="273"/>
      <point x="115" y="263" type="curve"/>
      <point x="114" y="254"/>
      <point x="117" y="246"/>
      <point x="114" y="236" type="curve"/>
      <point x="108" y="221"/>
      <point x="111" y="202"/>
      <point x="110" y="185" type="curve"/>
      <point x="109" y="175"/>
      <point x="119" y="166"/>
      <point x="112" y="156" type="curve"/>
      <point x="120" y="130"/>
      <point x="120" y="97"/>
      <point x="132" y="76" type="curve"/>
      <point x="136" y="70"/>
      <point x="131" y="63"/>
      <point x="135" y="61" type="curve"/>
      <point x="139" y="59"/>
      <point x="141" y="55"/>
      <point x="141" y="50" type="curve"/>
      <point x="142" y="39"/>
      <point x="155" y="15"/>
      <point x="155" y="15" type="curve"/>
      <point x="171" y="9"/>
      <point x="179" y="-4"/>
    </contour>
  </outline>
</glyph>
<glyph name="Semisoftsign-cy" format="2">
  <advance width="467"/>
  <unicode hex="048C"/>
  <outline>
    <contour>
      <point x="233" y="528" type="curve"/>
      <point x="330" y="540"/>
      <point x="453" y="548"/>
      <point x="465" y="549" type="curve"/>
      <point x="488" y="551"/>
      <point x="514" y="555"/>
      <point x="524" y="557" type="curve"/>
      <point x="553" y="556"/>
      <point x="556" y="577"/>
      <point x="537" y="596" type="curve"/>
      <point x="524" y="609"/>
      <point x="515" y="606"/>
      <point x="484" y="604" type="curve"/>
      <point x="374" y="597"/>
      <point x="307" y="587"/>
      <point x="210" y="572" type="curve"/>
      <point x="165" y="564"/>
      <point x="158" y="558"/>
      <point x="171" y="539" type="curve"/>
      <point x="177" y="531"/>
      <point x="181" y="528"/>
      <point x="201" y="530" type="curve"/>
      <point x="214" y="526"/>
      <point x="225" y="527"/>
    </contour>
    <component base="Softsign-cy" xOffset="11"/>
  </outline>
</glyph>
<glyph name="semisoftsign-cy" format="2">
  <advance width="328"/>
  <unicode hex="048D"/>
  <outline>
    <contour>
      <point x="100" y="85" type="curve"/>
      <point x="101" y="75"/>
      <point x="104" y="66"/>
      <point x="110" y="58" type="curve"/>
      <point x="125" y="39"/>
      <point x="133" y="22"/>
      <point x="160" y="22" type="curve"/>
      <point x="167" y="17"/>
      <point x="172" y="23"/>
      <point x="179" y="23" type="curve"/>
      <point x="223" y="21"/>
      <point x="266" y="35"/>
      <point x="310" y="61" type="curve"/>
      <point x="339" y="79"/>
      <point x="345" y="92"/>
      <point x="365" y="120" type="curve"/>
      <point x="365" y="126"/>
      <point x="366" y="133"/>
      <point x="368" y="139" type="curve"/>
      <point x="373" y="153"/>
      <point x="369" y="182"/>
      <point x="365" y="189" type="curve"/>
      <point x="359" y="207"/>
      <point x="329" y="243"/>
      <point x="306" y="251" type="curve"/>
      <point x="290" y="255"/>
      <point x="275" y="266"/>
      <point x="257" y="265" type="curve"/>
      <point x="250" y="265"/>
      <point x="223" y="265"/>
      <point x="216" y="268" type="curve"/>
      <point x="221" y="287"/>
      <point x="236" y="324"/>
      <point x="252" y="365" type="curve"/>
      <point x="288" y="367"/>
      <point x="314" y="369"/>
      <point x="321" y="369" type="curve"/>
      <point x="345" y="369"/>
      <point x="371" y="371"/>
      <point x="381" y="372" type="curve"/>
      <point x="410" y="369"/>
      <point x="414" y="390"/>
      <point x="397" y="410" type="curve"/>
      <point x="385" y="424"/>
      <point x="376" y="422"/>
      <point x="345" y="422" type="curve"/>
      <point x="325" y="422"/>
      <point x="302" y="421"/>
      <point x="276" y="420" type="curve"/>
      <point x="301" y="476"/>
      <point x="325" y="527"/>
      <point x="335" y="539" type="curve"/>
      <point x="343" y="550"/>
      <point x="354" y="561"/>
      <point x="354" y="573" type="curve"/>
      <point x="350" y="588"/>
      <point x="339" y="593"/>
      <point x="333" y="602" type="curve"/>
      <point x="323" y="613"/>
      <point x="328" y="613"/>
      <point x="317" y="618" type="curve"/>
      <point x="315" y="615"/>
      <point x="313" y="613"/>
      <point x="311" y="610" type="curve" smooth="yes"/>
      <point x="304" y="601"/>
      <point x="297" y="592"/>
      <point x="295" y="580" type="curve"/>
      <point x="287" y="571"/>
      <point x="252" y="492"/>
      <point x="219" y="416" type="curve"/>
      <point x="193" y="414"/>
      <point x="166" y="411"/>
      <point x="138" y="408" type="curve"/>
      <point x="121" y="406"/>
      <point x="110" y="404"/>
      <point x="102" y="402" type="curve" smooth="yes"/>
      <point x="89" y="397"/>
      <point x="89" y="391"/>
      <point x="97" y="378" type="curve"/>
      <point x="102" y="369"/>
      <point x="106" y="366"/>
      <point x="126" y="366" type="curve"/>
      <point x="138" y="362"/>
      <point x="150" y="362"/>
      <point x="158" y="362" type="curve"/>
      <point x="171" y="362"/>
      <point x="184" y="362"/>
      <point x="196" y="363" type="curve"/>
      <point x="176" y="314"/>
      <point x="160" y="274"/>
      <point x="158" y="268" type="curve"/>
      <point x="153" y="253"/>
      <point x="141" y="243"/>
      <point x="140" y="227" type="curve"/>
      <point x="123" y="194"/>
      <point x="97" y="124"/>
    </contour>
    <contour>
      <point x="157" y="77" type="curve"/>
      <point x="157" y="85"/>
      <point x="151" y="96"/>
      <point x="153" y="101" type="curve"/>
      <point x="159" y="118"/>
      <point x="180" y="183"/>
      <point x="185" y="188" type="curve"/>
      <point x="187" y="190"/>
      <point x="190" y="193"/>
      <point x="190" y="195" type="curve"/>
      <point x="189" y="212"/>
      <point x="202" y="213"/>
      <point x="214" y="217" type="curve"/>
      <point x="224" y="220"/>
      <point x="234" y="220"/>
      <point x="245" y="217" type="curve"/>
      <point x="249" y="216"/>
      <point x="254" y="213"/>
      <point x="258" y="214" type="curve"/>
      <point x="276" y="215"/>
      <point x="289" y="203"/>
      <point x="302" y="194" type="curve"/>
      <point x="311" y="188"/>
      <point x="314" y="173"/>
      <point x="310" y="162" type="curve"/>
      <point x="300" y="130"/>
      <point x="257" y="86"/>
      <point x="224" y="81" type="curve"/>
      <point x="204" y="77"/>
      <point x="181" y="74"/>
    </contour>
  </outline>
</glyph>
<glyph name="ertick-cy" format="2">
  <advance width="378"/>
  <unicode hex="048F"/>
  <outline>
    <contour>
      <point x="244" y="120" type="curve"/>
      <point x="249" y="103"/>
      <point x="262" y="70"/>
      <point x="265" y="59" type="curve"/>
      <point x="271" y="36"/>
      <point x="280" y="11"/>
      <point x="284" y="2" type="curve"/>
      <point x="288" y="-27"/>
      <point x="310" y="-26"/>
      <point x="325" y="-4" type="curve"/>
      <point x="335" y="11"/>
      <point x="331" y="19"/>
      <point x="323" y="49" type="curve"/>
      <point x="310" y="99"/>
      <point x="302" y="110"/>
      <point x="284" y="151" type="curve"/>
      <point x="267" y="194"/>
      <point x="260" y="200"/>
      <point x="244" y="183" type="curve"/>
      <point x="237" y="176"/>
      <point x="235" y="171"/>
      <point x="240" y="152" type="curve"/>
      <point x="239" y="139"/>
      <point x="242" y="127"/>
    </contour>
    <component base="er-cy"/>
  </outline>
</glyph>
<glyph name="gheupturn-cy" format="2">
  <advance width="312"/>
  <unicode hex="0491"/>
  <outline>
    <contour>
      <point x="61" y="2" type="curve"/>
      <point x="85" y="-16"/>
      <point x="112" y="-5"/>
      <point x="125" y="16" type="curve"/>
      <point x="162" y="85"/>
      <point x="169" y="129"/>
      <point x="192" y="229" type="curve"/>
      <point x="198" y="259"/>
      <point x="208" y="293"/>
      <point x="221" y="321" type="curve"/>
      <point x="258" y="324"/>
      <point x="289" y="341"/>
      <point x="320" y="324" type="curve"/>
      <point x="336" y="325"/>
      <point x="351" y="327"/>
      <point x="364" y="327" type="curve"/>
      <point x="383" y="342"/>
      <point x="409" y="383"/>
      <point x="409" y="391" type="curve"/>
      <point x="418" y="413"/>
      <point x="442" y="452"/>
      <point x="428" y="481" type="curve"/>
      <point x="419" y="486"/>
      <point x="409" y="491"/>
      <point x="398" y="495" type="curve"/>
      <point x="390" y="501"/>
      <point x="380" y="490"/>
      <point x="382" y="478" type="curve"/>
      <point x="384" y="461"/>
      <point x="367" y="430"/>
      <point x="362" y="423" type="curve"/>
      <point x="352" y="409"/>
      <point x="347" y="392"/>
      <point x="333" y="382" type="curve"/>
      <point x="328" y="382"/>
      <point x="299" y="380"/>
      <point x="287" y="385" type="curve"/>
      <point x="276" y="388"/>
      <point x="269" y="382"/>
      <point x="259" y="382" type="curve"/>
      <point x="239" y="383"/>
      <point x="218" y="374"/>
      <point x="197" y="382" type="curve"/>
      <point x="191" y="385"/>
      <point x="182" y="381"/>
      <point x="176" y="380" type="curve"/>
      <point x="171" y="372"/>
      <point x="167" y="365"/>
      <point x="163" y="358" type="curve"/>
      <point x="165" y="339"/>
      <point x="132" y="225"/>
      <point x="129" y="213" type="curve"/>
      <point x="120" y="182"/>
      <point x="107" y="131"/>
      <point x="90" y="92" type="curve"/>
      <point x="85" y="79"/>
      <point x="80" y="65"/>
      <point x="69" y="57" type="curve"/>
      <point x="60" y="59"/>
      <point x="52" y="61"/>
      <point x="43" y="63" type="curve"/>
      <point x="23" y="56"/>
      <point x="28" y="35"/>
      <point x="33" y="26" type="curve"/>
      <point x="42" y="18"/>
      <point x="52" y="10"/>
    </contour>
  </outline>
</glyph>
<glyph name="Ghemiddlehook-cy" format="2">
  <advance width="502"/>
  <unicode hex="0494"/>
  <outline>
    <contour>
      <point x="194" y="-230" type="curve"/>
      <point x="218" y="-235" type="line"/>
      <point x="225" y="-235"/>
      <point x="227" y="-230"/>
      <point x="236" y="-229" type="curve"/>
      <point x="270" y="-219"/>
      <point x="354" y="-129"/>
      <point x="393" y="-74" type="curve"/>
      <point x="428" y="-23"/>
      <point x="446" y="22"/>
      <point x="466" y="66" type="curve"/>
      <point x="482" y="100"/>
      <point x="508" y="171"/>
      <point x="513" y="188" type="curve"/>
      <point x="520" y="209"/>
      <point x="524" y="225"/>
      <point x="526" y="241" type="curve"/>
      <point x="528" y="252"/>
      <point x="526" y="263"/>
      <point x="532" y="273" type="curve"/>
      <point x="535" y="317"/>
      <point x="541" y="362"/>
      <point x="528" y="393" type="curve"/>
      <point x="525" y="404"/>
      <point x="499" y="419"/>
      <point x="485" y="429" type="curve"/>
      <point x="467" y="441"/>
      <point x="452" y="437"/>
      <point x="427" y="445" type="curve"/>
      <point x="422" y="441"/>
      <point x="379" y="438"/>
      <point x="366" y="438" type="curve"/>
      <point x="361" y="437"/>
      <point x="315" y="428"/>
      <point x="289" y="410" type="curve"/>
      <point x="280" y="405" type="line"/>
      <point x="302" y="474"/>
      <point x="347" y="566"/>
      <point x="376" y="628" type="curve"/>
      <point x="387" y="636"/>
      <point x="398" y="640"/>
      <point x="411" y="640" type="curve"/>
      <point x="420" y="639"/>
      <point x="425" y="639"/>
      <point x="429" y="641" type="curve"/>
      <point x="443" y="647"/>
      <point x="483" y="645"/>
      <point x="502" y="646" type="curve"/>
      <point x="512" y="646"/>
      <point x="520" y="646"/>
      <point x="528" y="649" type="curve"/>
      <point x="535" y="652"/>
      <point x="546" y="652"/>
      <point x="555" y="649" type="curve"/>
      <point x="565" y="644"/>
      <point x="579" y="652"/>
      <point x="603" y="637" type="curve"/>
      <point x="609" y="631"/>
      <point x="609" y="631"/>
      <point x="615" y="627" type="curve"/>
      <point x="623" y="630"/>
      <point x="630" y="633"/>
      <point x="637" y="637" type="curve"/>
      <point x="639" y="638"/>
      <point x="643" y="647"/>
      <point x="642" y="661" type="curve"/>
      <point x="628" y="680"/>
      <point x="620" y="687"/>
      <point x="607" y="692" type="curve"/>
      <point x="585" y="700"/>
      <point x="581" y="705"/>
      <point x="560" y="705" type="curve"/>
      <point x="494" y="705" type="line" smooth="yes"/>
      <point x="461" y="705"/>
      <point x="412" y="700"/>
      <point x="402" y="695" type="curve"/>
      <point x="394" y="691"/>
      <point x="383" y="694"/>
      <point x="375" y="693" type="curve"/>
      <point x="368" y="692"/>
      <point x="349" y="696"/>
      <point x="340" y="691" type="curve"/>
      <point x="332" y="686"/>
      <point x="324" y="677"/>
      <point x="317" y="662" type="curve"/>
      <point x="296" y="605" type="line"/>
      <point x="292" y="596"/>
      <point x="289" y="585"/>
      <point x="285" y="573" type="curve"/>
      <point x="263" y="522"/>
      <point x="277" y="558"/>
      <point x="258" y="505" type="curve"/>
      <point x="229" y="423"/>
      <point x="218" y="396"/>
      <point x="204" y="347" type="curve"/>
      <point x="197" y="327"/>
      <point x="193" y="305"/>
      <point x="185" y="284" type="curve"/>
      <point x="175" y="263"/>
      <point x="171" y="230"/>
      <point x="167" y="219" type="curve"/>
      <point x="155" y="186"/>
      <point x="149" y="150"/>
      <point x="141" y="116" type="curve"/>
      <point x="112" y="11" type="line"/>
      <point x="114" y="9"/>
      <point x="132" y="-5"/>
      <point x="139" y="-5" type="curve"/>
      <point x="154" y="-8"/>
      <point x="169" y="2"/>
      <point x="175" y="18" type="curve"/>
      <point x="185" y="45"/>
      <point x="213" y="168"/>
      <point x="216" y="189" type="curve"/>
      <point x="218" y="204"/>
      <point x="225" y="216"/>
      <point x="228" y="231" type="curve"/>
      <point x="233" y="256"/>
      <point x="244" y="298"/>
      <point x="258" y="313" type="curve"/>
      <point x="290" y="347"/>
      <point x="338" y="373"/>
      <point x="378" y="378" type="curve"/>
      <point x="399" y="381"/>
      <point x="417" y="388"/>
      <point x="440" y="387" type="curve"/>
      <point x="460" y="386"/>
      <point x="469" y="380"/>
      <point x="478" y="370" type="curve"/>
      <point x="482" y="318"/>
      <point x="475" y="281"/>
      <point x="461" y="240" type="curve"/>
      <point x="437" y="154" type="line"/>
      <point x="413" y="88"/>
      <point x="406" y="70"/>
      <point x="379" y="20" type="curve"/>
      <point x="378" y="11"/>
      <point x="330" y="-63"/>
      <point x="306" y="-92" type="curve"/>
      <point x="286" y="-115"/>
      <point x="273" y="-136"/>
      <point x="241" y="-161" type="curve"/>
      <point x="223" y="-175"/>
      <point x="204" y="-193"/>
      <point x="179" y="-199" type="curve"/>
      <point x="175" y="-200"/>
      <point x="172" y="-202"/>
      <point x="171" y="-205" type="curve"/>
      <point x="173" y="-217"/>
      <point x="180" y="-225"/>
    </contour>
  </outline>
</glyph>
<glyph name="ghemiddlehook-cy" format="2">
  <advance width="333"/>
  <unicode hex="0495"/>
  <outline>
    <contour>
      <point x="135" y="-230" type="curve"/>
      <point x="159" y="-242"/>
      <point x="193" y="-229"/>
      <point x="217" y="-200" type="curve"/>
      <point x="225" y="-198"/>
      <point x="258" y="-156"/>
      <point x="261" y="-153" type="curve"/>
      <point x="276" y="-132"/>
      <point x="285" y="-107"/>
      <point x="297" y="-83" type="curve"/>
      <point x="307" y="-63"/>
      <point x="315" y="-44"/>
      <point x="321" y="-26" type="curve"/>
      <point x="333" y="10"/>
      <point x="337" y="32"/>
      <point x="339" y="53" type="curve"/>
      <point x="356" y="134" type="line"/>
      <point x="361" y="176"/>
      <point x="361" y="196"/>
      <point x="316" y="212" type="curve"/>
      <point x="313" y="208"/>
      <point x="299" y="212"/>
      <point x="297" y="212" type="curve"/>
      <point x="274" y="212"/>
      <point x="254" y="198"/>
      <point x="234" y="187" type="curve"/>
      <point x="227" y="184"/>
      <point x="187" y="147"/>
      <point x="162" y="105" type="curve"/>
      <point x="151" y="51" type="line"/>
      <point x="205" y="125"/>
      <point x="251" y="126"/>
      <point x="270" y="142" type="curve"/>
      <point x="276" y="148"/>
      <point x="284" y="150"/>
      <point x="292" y="139" type="curve"/>
      <point x="292" y="118"/>
      <point x="290" y="96"/>
      <point x="286" y="76" type="curve"/>
      <point x="286" y="73"/>
      <point x="275" y="19"/>
      <point x="267" y="-1" type="curve"/>
      <point x="257" y="-29"/>
      <point x="248" y="-59"/>
      <point x="234" y="-85" type="curve"/>
      <point x="231" y="-108"/>
      <point x="190" y="-157"/>
      <point x="147" y="-188" type="curve"/>
      <point x="122" y="-206"/>
      <point x="112" y="-178"/>
      <point x="108" y="-175" type="curve"/>
      <point x="102" y="-194"/>
      <point x="115" y="-220"/>
    </contour>
    <component base="ge-cy" xOffset="12"/>
  </outline>
</glyph>
<glyph name="ustraitstroke-cy" format="2">
  <advance width="449"/>
  <unicode hex="04B1"/>
  <outline>
    <contour>
      <point x="172" y="16" type="curve"/>
      <point x="206" y="12"/>
      <point x="241" y="8"/>
      <point x="253" y="7" type="curve"/>
      <point x="307" y="3"/>
      <point x="333" y="1"/>
      <point x="343" y="0" type="curve"/>
      <point x="371" y="-7"/>
      <point x="379" y="13"/>
      <point x="365" y="35" type="curve"/>
      <point x="355" y="51"/>
      <point x="346" y="51"/>
      <point x="315" y="55" type="curve"/>
      <point x="265" y="61"/>
      <point x="205" y="64"/>
      <point x="159" y="65" type="curve"/>
      <point x="113" y="67"/>
      <point x="105" y="63"/>
      <point x="114" y="42" type="curve"/>
      <point x="117" y="32"/>
      <point x="121" y="28"/>
      <point x="141" y="25" type="curve"/>
      <point x="152" y="19"/>
      <point x="164" y="17"/>
    </contour>
    <component base="ustrait-cy" xOffset="78"/>
  </outline>
</glyph>
<glyph name="Cheabkhasian-cy" format="2">
  <advance width="674"/>
  <unicode hex="04BC"/>
  <outline>
    <contour>
      <point x="331" y="331" type="curve"/>
      <point x="328" y="385" type="line"/>
      <point x="300" y="380"/>
      <point x="235" y="376"/>
      <point x="238" y="381" type="curve"/>
      <point x="243" y="389"/>
      <point x="238" y="414"/>
      <point x="231" y="418" type="curve"/>
      <point x="226" y="421"/>
      <point x="199" y="432"/>
      <point x="176" y="426" type="curve"/>
      <point x="151" y="418"/>
      <point x="142" y="402"/>
      <point x="140" y="373" type="curve"/>
      <point x="139" y="359"/>
      <point x="149" y="342"/>
      <point x="162" y="333" type="curve"/>
      <point x="174" y="325"/>
      <point x="218" y="320"/>
      <point x="247" y="321" type="curve"/>
      <point x="275" y="326"/>
      <point x="312" y="329"/>
    </contour>
    <component base="Schwa-cy" xScale="-1" yScale="-1" xOffset="858" yOffset="612"/>
  </outline>
</glyph>
<glyph name="enhook-cy" format="2">
  <advance width="387"/>
  <unicode hex="04C8"/>
  <outline>
    <contour>
      <point x="392" y="355" type="curve"/>
      <point x="388" y="346"/>
      <point x="382" y="326"/>
      <point x="381" y="324" type="curve"/>
      <point x="359" y="287"/>
      <point x="351" y="253"/>
      <point x="336" y="213" type="curve"/>
      <point x="334" y="215"/>
      <point x="267" y="213"/>
      <point x="258" y="211" type="curve"/>
      <point x="245" y="211"/>
      <point x="212" y="200"/>
      <point x="199" y="208" type="curve"/>
      <point x="199" y="216" type="line"/>
      <point x="251" y="343" type="line"/>
      <point x="253" y="347"/>
      <point x="253" y="354"/>
      <point x="254" y="362" type="curve"/>
      <point x="253" y="378"/>
      <point x="236" y="391"/>
      <point x="214" y="390" type="curve"/>
      <point x="206" y="390"/>
      <point x="201" y="387"/>
      <point x="198" y="379" type="curve"/>
      <point x="197" y="377"/>
      <point x="177" y="315"/>
      <point x="172" y="304" type="curve"/>
      <point x="177" y="318"/>
      <point x="150" y="244"/>
      <point x="151" y="245" type="curve"/>
      <point x="138" y="218"/>
      <point x="129" y="186"/>
      <point x="118" y="157" type="curve"/>
      <point x="112" y="141"/>
      <point x="109" y="124"/>
      <point x="104" y="106" type="curve"/>
      <point x="88" y="29" type="line"/>
      <point x="95" y="22"/>
      <point x="100" y="17"/>
      <point x="107" y="13" type="curve"/>
      <point x="135" y="-3"/>
      <point x="148" y="4"/>
      <point x="150" y="33" type="curve"/>
      <point x="151" y="51"/>
      <point x="156" y="68"/>
      <point x="158" y="86" type="curve"/>
      <point x="158" y="108"/>
      <point x="173" y="139"/>
      <point x="175" y="152" type="curve"/>
      <point x="181" y="155" type="line"/>
      <point x="193" y="150"/>
      <point x="235" y="148"/>
      <point x="246" y="153" type="curve"/>
      <point x="243" y="151"/>
      <point x="310" y="166"/>
      <point x="321" y="161" type="curve"/>
      <point x="315" y="128"/>
      <point x="312" y="114"/>
      <point x="305" y="95" type="curve"/>
      <point x="307" y="99"/>
      <point x="296" y="61"/>
      <point x="285" y="20" type="curve"/>
      <point x="283" y="13"/>
      <point x="285" y="8"/>
      <point x="283" y="1" type="curve"/>
      <point x="272" y="-33"/>
      <point x="257" y="-66"/>
      <point x="252" y="-73" type="curve"/>
      <point x="235" y="-96"/>
      <point x="197" y="-97"/>
      <point x="184" y="-91" type="curve"/>
      <point x="160" y="-80"/>
      <point x="138" y="-93"/>
      <point x="150" y="-121" type="curve"/>
      <point x="179" y="-157"/>
      <point x="233" y="-160"/>
      <point x="264" y="-133" type="curve"/>
      <point x="282" y="-120"/>
      <point x="304" y="-92"/>
      <point x="315" y="-68" type="curve"/>
      <point x="328" y="-35"/>
      <point x="342" y="19"/>
      <point x="353" y="53" type="curve"/>
      <point x="354" y="56"/>
      <point x="355" y="61"/>
      <point x="356" y="62" type="curve"/>
      <point x="357" y="64"/>
      <point x="358" y="70"/>
      <point x="358" y="71" type="curve"/>
      <point x="366" y="100"/>
      <point x="378" y="157"/>
      <point x="380" y="162" type="curve"/>
      <point x="381" y="167"/>
      <point x="388" y="172"/>
      <point x="392" y="172" type="curve"/>
      <point x="402" y="173"/>
      <point x="406" y="181"/>
      <point x="422" y="184" type="curve"/>
      <point x="423" y="200"/>
      <point x="421" y="215"/>
      <point x="400" y="215" type="curve"/>
      <point x="400" y="218" type="line"/>
      <point x="404" y="227"/>
      <point x="451" y="337"/>
      <point x="447" y="321" type="curve"/>
      <point x="458" y="352"/>
      <point x="420" y="371"/>
    </contour>
  </outline>
</glyph>
